<?xml version="1.0" standalone="no"?>
<!DOCTYPE svg PUBLIC "-//W3C//DTD SVG 1.1//EN" "http://www.w3.org/Graphics/SVG/1.1/DTD/svg11.dtd" >
<svg xmlns="http://www.w3.org/2000/svg">
<metadata></metadata>
<defs>
<font id="segoe_uibold_italic" horiz-adv-x="1180" >
<font-face units-per-em="2048" ascent="1638" descent="-410" />
<missing-glyph horiz-adv-x="563" />
<glyph horiz-adv-x="2048" />
<glyph horiz-adv-x="2048" />
<glyph horiz-adv-x="682" />
<glyph unicode="&#xd;" horiz-adv-x="100" />
<glyph unicode=" "  horiz-adv-x="563" />
<glyph unicode="&#x09;" horiz-adv-x="563" />
<glyph unicode="&#xa0;" horiz-adv-x="563" />
<glyph unicode="!" horiz-adv-x="709" d="M96 119.5q0 52.5 15 85t41 55.5q55 47 137 47q75 0 125.5 -45t50.5 -114q0 -37 -15 -68.5t-40 -54.5q-54 -48 -136 -48q-76 0 -127 45t-51 97.5zM207 446l172 988h332l-248 -988h-256z" />
<glyph unicode="&#x22;" horiz-adv-x="1010" d="M303 1452h262l-30 -444h-203zM698 1452h263l-31 -444h-201z" />
<glyph unicode="#" horiz-adv-x="1171" d="M63 461l37 180h189l53 248h-203l35 180h205l74 356h204l-73 -356h229l76 356h203l-74 -356h184l-39 -180h-184l-55 -248h206l-45 -180h-198l-78 -346h-201l74 346h-229l-74 -346h-201l72 346h-187zM489 641h232l55 248h-231z" />
<glyph unicode="$" d="M63 82l54 252q101 -62 251 -99q45 -11 87 -16l82 383q-162 79 -237 164q-93 106 -93 250q0 183 125 298q137 124 383 130l37 176h145l-39 -182q153 -12 285 -70l-51 -244q-136 69 -281 90l-84 -395q158 -71 240 -170t82 -200.5t-25.5 -180t-83.5 -138.5 q-130 -135 -389 -142l-43 -197h-143l41 201q-128 10 -280 64q-37 14 -63 26zM479 1048q0 -64 30.5 -100.5t84.5 -70.5l72 335q-89 -2 -140 -54q-47 -46 -47 -110zM598 217q87 4 137 60q43 49 43 113q0 27 -5.5 46t-18.5 36q-26 37 -84 71z" />
<glyph unicode="%" horiz-adv-x="1778" d="M170 1018q0 156 91 282q110 154 317 154q147 0 232 -84q83 -80 83 -221q0 -164 -93 -290q-111 -152 -308 -152q-164 0 -251 103q-71 84 -71 208zM182 0l1239 1434h246l-1239 -1434h-246zM385 1018q0 -95 65 -126q21 -11 57.5 -11t69.5 24.5t55.5 62.5t34 84.5t11.5 81 t-5.5 59.5t-18.5 45q-28 44 -80.5 44t-87 -26.5t-56.5 -65.5q-45 -79 -45 -172zM963 289q0 156 91 283q109 155 316 155q148 0 234 -84q82 -81 82 -211q0 -57 -9.5 -107.5t-30 -99.5t-52 -93.5t-76.5 -77.5q-97 -74 -232 -74q-164 0 -251 102q-72 84 -72 207zM1178 289 q0 -93 64 -125q21 -10 57.5 -10t69.5 24t55.5 62t34 84.5t11.5 81t-5.5 59t-18.5 43.5q-28 45 -80 45t-86.5 -26.5t-57.5 -66.5q-44 -78 -44 -171z" />
<glyph unicode="&#x26;" horiz-adv-x="1641" d="M-1 385q0 180 139 305q105 96 308 165q-79 68 -108 171q-10 38 -10 101t33 128.5t94 110.5q125 92 340 92q182 0 290 -81q109 -82 109 -217q0 -187 -205 -284q-58 -28 -119 -50q99 -50 203 -210q30 -47 51 -92q192 176 250 406q20 76 20 125.5t-2 65.5h269q3 -22 3 -70.5 t-19 -122t-51 -144.5t-74.5 -137.5t-89.5 -126.5q-89 -113 -191 -201q72 -101 177 -101q77 0 174 33l-42 -244q-88 -30 -172.5 -30t-130 15t-83.5 42q-61 42 -130 137q-246 -194 -540 -194q-229 0 -362 111q-131 111 -131 297zM323 412q0 -84 59 -138q59 -53 156 -53 q196 0 385 150q-54 128 -134.5 216.5t-167.5 132.5q-298 -112 -298 -308zM605 1108q0 -97 85 -153q101 34 137 57q79 52 79 125q0 49 -35 79.5t-78.5 30.5t-76 -9t-56.5 -28q-55 -42 -55 -102z" />
<glyph unicode="'" horiz-adv-x="600" d="M299 1452h262l-33 -442h-200z" />
<glyph unicode="(" horiz-adv-x="758" d="M156 315q0 646 528 1119h272q-256 -267 -382 -524q-146 -297 -146 -627q0 -350 141 -598h-245q-122 189 -158 471q-10 83 -10 159z" />
<glyph unicode=")" horiz-adv-x="758" d="M-199 -315q389 402 491 819q38 156 38 330q0 347 -142 600h246q122 -189 158 -472q10 -83 10 -159q0 -642 -528 -1118h-273z" />
<glyph unicode="*" horiz-adv-x="932" d="M164 1053l72 202l249 -108l-43 287h234l-43 -287l252 108l71 -202l-274 -37l199 -211l-185 -125l-137 254l-137 -254l-182 125l198 211z" />
<glyph unicode="+" horiz-adv-x="1450" d="M258 485v203h385v385h203v-385h385v-203h-385v-385h-203v385h-385z" />
<glyph unicode="," horiz-adv-x="555" d="M-109 -254l232 506h297l-270 -506h-259z" />
<glyph unicode="-" horiz-adv-x="827" d="M119 436l47 221h547l-47 -221h-547z" />
<glyph unicode="." horiz-adv-x="555" d="M14 133q0 36 15 68t41 55q55 47 137 47q76 0 127 -45q49 -44 49 -115q0 -36 -15 -67.5t-40 -53.5q-53 -47 -135 -47q-121 0 -165 93q-14 29 -14 65z" />
<glyph unicode="/" horiz-adv-x="909" d="M-225 -238l1052 1672h318l-1053 -1672h-317z" />
<glyph unicode="0" d="M80 465q0 224 72 446q77 239 213 379q160 168 399 168q202 0 312 -132q102 -124 102 -332q0 -105 -18 -227.5t-54 -238.5q-123 -397 -389 -513q-92 -40 -197.5 -40t-183 30.5t-134.5 91.5q-122 131 -122 368zM389 428.5q0 -102.5 38.5 -156t98.5 -53.5q73 0 127 62 q111 119 184 465q31 148 31 260.5t-34 161.5t-98.5 49t-127.5 -66q-121 -125 -190 -475q-29 -145 -29 -247.5z" />
<glyph unicode="1" d="M39 0l55 250h295l191 893l-320 -66l55 256l648 125l-256 -1208h292l-55 -250h-905z" />
<glyph unicode="2" d="M-14 0l55 256l514 406q163 126 211.5 185.5t66 102t17.5 83t-11 70.5t-35 53q-54 50 -155 50q-177 0 -370 -127l63 289q110 57 268 81q60 9 146.5 9t167.5 -26.5t135 -74.5t81 -114.5t27 -149.5t-27.5 -157t-79.5 -142q-88 -116 -290 -266l-354 -262v-4h571l-57 -262 h-944z" />
<glyph unicode="3" d="M35 57l55 256q154 -96 324 -96q153 0 228 68q60 55 60 143q0 186 -278 186h-123l51 242h152q219 0 286 120q21 39 21 80t-11 68.5t-35 47.5q-52 45 -151 45q-154 0 -309 -72l55 256q178 57 319 57t219 -26.5t129 -71.5q101 -91 101 -242q0 -142 -92 -244 q-102 -113 -280 -141v-4q190 -36 244 -197q18 -51 18 -123.5t-32 -152.5t-102 -142q-157 -139 -462 -139q-212 0 -387 82z" />
<glyph unicode="4" d="M-18 305l41 199l788 930h326l-193 -904h172l-47 -225h-172l-63 -305h-293l65 305h-624zM315 530h338l97 441q8 35 16 71.5t16 65.5h-6q-42 -68 -76 -111z" />
<glyph unicode="5" d="M49 47l55 256q86 -55 225 -79q44 -7 108 -7t123 24t95 60q68 68 68 158q0 192 -264 192q-138 0 -250 -16l172 799h797l-56 -258h-526l-61 -287q36 4 67 4q215 0 330 -115q106 -106 106 -282q0 -192 -137 -342q-164 -179 -483 -179q-172 0 -304 44q-39 13 -65 28z" />
<glyph unicode="6" d="M100 514q0 243 91 454q90 210 255 339q198 151 459 151q169 0 281 -45l-56 -258q-103 62 -241 62q-241 0 -381 -251q-49 -89 -76 -198h4q82 108 219 142q45 12 110.5 12t130 -28t108.5 -80q92 -105 92 -290q0 -215 -134 -372q-149 -175 -391 -175q-216 0 -341 137 q-130 143 -130 400zM408 434q0 -102 47.5 -156.5t112.5 -54.5t104 24t66 63t41 88t14 92.5t-9 78.5t-29 61q-43 58 -132 58q-97 0 -157 -78q-58 -74 -58 -176z" />
<glyph unicode="7" d="M121 0l753 1176h-657l55 258h1002l-35 -162l-764 -1272h-354z" />
<glyph unicode="8" d="M39 352q0 298 371 406q-125 81 -160 217q-10 42 -10 106t34 137t100 126q138 114 376 114q208 0 330 -107q110 -98 110 -243t-90.5 -240.5t-253.5 -136.5q106 -51 167.5 -135.5t61.5 -188.5t-40 -181.5t-113 -133.5q-156 -121 -408 -121q-221 0 -349 105 q-126 103 -126 276zM334 369q0 -64 46 -112q56 -58 157 -58q109 0 177 57q64 54 64 137q0 39 -12.5 72.5t-35.5 63.5q-51 64 -128 100q-136 -34 -202 -104t-66 -156zM539 1060q0 -127 116 -208q112 31 174 86.5t62 150t-93 131.5q-30 11 -67 11q-93 0 -142.5 -50.5 t-49.5 -120.5z" />
<glyph unicode="9" d="M70 23l45 256q104 -60 245 -60q149 0 258 84q145 114 205 363h-4q-123 -156 -303 -156q-172 0 -271 122q-89 109 -89 279q0 201 122 361q144 188 412 188q221 0 346 -153q119 -145 119 -385q0 -352 -182 -621q-99 -146 -253 -235q-103 -61 -201 -75t-183 -14 q-163 0 -266 46zM465 940q0 -132 88 -181q32 -18 81 -18t90 21t69.5 56t43.5 82t15 92.5t-11.5 84t-32.5 68.5q-49 67 -115.5 67t-106.5 -24.5t-67 -63.5q-54 -78 -54 -184z" />
<glyph unicode=":" horiz-adv-x="555" d="M14 133q0 36 15 68t41 55q55 47 137 47q76 0 127 -45q49 -44 49 -115q0 -36 -15 -67.5t-40 -53.5q-53 -47 -135 -47q-121 0 -165 93q-14 29 -14 65zM168 848q0 53 14.5 85.5t39.5 54.5q54 48 138 48q76 0 126.5 -45t50.5 -115q0 -36 -15 -67.5t-42 -54.5 q-55 -47 -136 -47q-75 0 -126 45q-50 43 -50 96z" />
<glyph unicode=";" horiz-adv-x="555" d="M-137 -254l229 506h299l-272 -506h-256zM168 848q0 53 14.5 85.5t39.5 54.5q54 48 138 48q76 0 126.5 -45t50.5 -115q0 -36 -15 -67.5t-42 -54.5q-55 -47 -136 -47q-75 0 -126 45q-50 43 -50 96z" />
<glyph unicode="&#x3c;" horiz-adv-x="1450" d="M229 504v164l934 445v-238l-665 -287v-4l665 -268v-235z" />
<glyph unicode="=" horiz-adv-x="1450" d="M258 266v203h973v-203h-973zM258 700v205h973v-205h-973z" />
<glyph unicode="&#x3e;" horiz-adv-x="1450" d="M307 81v237l668 267v4l-668 286v238l936 -444v-162z" />
<glyph unicode="?" horiz-adv-x="920" d="M147 119.5q0 52.5 14.5 85t40.5 55.5q55 47 138 47q75 0 125.5 -45t50.5 -114q0 -37 -15 -68.5t-41 -54.5q-53 -48 -136 -48q-76 0 -126.5 45t-50.5 97.5zM203 1124l57 277q153 69 330 69q209 0 316 -106q89 -90 89 -229q0 -60 -16 -114t-51 -105q-69 -104 -221 -199 q-100 -60 -143 -125q-39 -59 -58 -158h-260q30 148 63 211q61 116 162 184q115 81 150 119q59 67 59 127q0 95 -98 128q-32 11 -94 11t-141 -24.5t-144 -65.5z" />
<glyph unicode="@" horiz-adv-x="1954" d="M154 532q0 258 121 468q120 209 335 328q222 124 506 124q366 0 564 -188q180 -173 180 -453q0 -253 -136 -434q-92 -123 -236 -172q-74 -25 -148 -25t-117 15t-69 38q-50 44 -50 101q0 18 4 35h-6q-111 -189 -281 -189q-121 0 -191 96q-65 89 -65 234q0 213 129 382 q87 113 214 158q65 23 122.5 23t89 -9.5t53.5 -25.5q42 -29 56 -73h4l24 90h226q-158 -531 -158 -623q0 -42 17 -58t58 -16t87 35t82 94q80 131 80 306q0 325 -291 438q-106 41 -259 41t-284.5 -53t-228.5 -150q-207 -209 -207 -532q0 -386 318 -505q112 -42 233 -42 t197.5 9t138.5 23q113 24 180 56l-35 -193q-98 -44 -309 -65q-76 -8 -160 -8q-376 0 -585 198q-203 191 -203 522zM801 518q0 -77 30 -118.5t77 -41.5t85.5 27.5t70.5 74.5q65 95 97 242q10 44 10 91.5t-30.5 77.5t-84 30t-101.5 -35t-83 -90q-71 -114 -71 -258z" />
<glyph unicode="A" horiz-adv-x="1440" d="M-102 0l827 1434h385l205 -1434h-330l-41 319h-514l-168 -319h-364zM551 567h369l-52 484q-2 33 -2 60q0 39 4 67h-6q-10 -46 -51 -123z" />
<glyph unicode="B" horiz-adv-x="1327" d="M49 0l305 1434h508q331 0 410 -196q24 -59 24 -127t-22 -126t-66 -105q-91 -97 -256 -128v-4q131 -19 204 -102q69 -77 69 -183.5t-38 -189t-114 -143.5q-162 -130 -455 -130h-569zM424 238h180q209 0 263 130q16 38 16 98t-52 105t-155 45h-170zM555 856h152 q178 0 232 112q17 36 17 79q0 149 -194 149h-133z" />
<glyph unicode="C" horiz-adv-x="1300" d="M104 598q0 361 218 599q152 165 400 229q126 32 231.5 32t159.5 -6t103 -16q86 -16 164 -43l-67 -306q-167 89 -314.5 89t-247 -44.5t-167.5 -119.5q-138 -152 -138 -383q0 -180 104 -279q102 -96 277 -96q174 0 349 90l-68 -305q-153 -64 -334 -64t-300 44.5t-201 126.5 q-169 169 -169 452z" />
<glyph unicode="D" horiz-adv-x="1542" d="M49 0l305 1434h504q306 0 478 -162q163 -154 163 -410q0 -121 -23 -228.5t-69.5 -202.5t-117.5 -174t-167 -136q-205 -121 -493 -121h-580zM430 262h197q243 0 387 156q69 74 106 178.5t37 208.5t-22.5 167.5t-68.5 107.5q-97 91 -286 91h-157z" />
<glyph unicode="E" horiz-adv-x="1085" d="M49 0l305 1434h826l-56 -263h-501l-68 -323h467l-57 -264h-465l-70 -322h535l-56 -262h-860z" />
<glyph unicode="F" horiz-adv-x="1067" d="M49 0l305 1434h830l-56 -267h-505l-74 -346h465l-58 -266h-464l-117 -555h-326z" />
<glyph unicode="G" horiz-adv-x="1452" d="M111 612q0 356 223 592q153 161 399 222q125 32 234 32t170.5 -7.5t115.5 -19.5q92 -21 181 -55l-64 -295q-106 72 -264 98q-55 9 -146.5 9t-192 -40.5t-171.5 -113.5q-145 -152 -145 -407q0 -182 97 -284q95 -101 259 -101q83 0 154 22l61 291h-291l55 258h613 l-154 -727q-227 -111 -483 -111q-306 0 -480 176q-171 173 -171 461z" />
<glyph unicode="H" horiz-adv-x="1565" d="M49 0l305 1434h326l-123 -572h590l123 572h325l-305 -1434h-325l122 580h-589l-123 -580h-326z" />
<glyph unicode="I" horiz-adv-x="649" d="M49 0l303 1434h326l-303 -1434h-326z" />
<glyph unicode="J" horiz-adv-x="907" d="M-86 18l59 299q49 -39 100.5 -51t73.5 -12q113 0 184.5 79.5t106.5 248.5l183 852h325l-184 -861q-126 -598 -631 -598q-119 0 -217 43z" />
<glyph unicode="K" horiz-adv-x="1333" d="M49 0l305 1434h326l-141 -666h4q11 15 25.5 33t29 36.5t56 66t93 106t108.5 122.5t109 122q122 140 150 180h395q-62 -78 -230 -250.5t-233 -239.5q-145 -153 -190 -209q35 -89 136 -266.5t140 -248.5q88 -161 111 -220h-393q-21 62 -102.5 218.5t-111.5 216.5 q-73 143 -84 171q-20 53 -28 84h-4l-145 -690h-326z" />
<glyph unicode="L" horiz-adv-x="1049" d="M49 0l305 1434h326l-248 -1168h529l-56 -266h-856z" />
<glyph unicode="M" horiz-adv-x="1781" d="M48 0l305 1434h384l147 -498q31 -106 31 -205h5q11 22 23.5 49.5t26.5 55.5q30 64 58 102l366 496h416l-305 -1434h-290l182 858q30 137 78 307h-8q-64 -146 -111 -212l-384 -523h-226l-149 513q-14 42 -14 115v107h-9q-28 -189 -52 -306l-183 -859h-291z" />
<glyph unicode="N" horiz-adv-x="1636" d="M49 0l303 1434h320l430 -877q5 -11 12.5 -26.5t15.5 -32.5q18 -40 23 -60h4q4 61 21 140l182 856h305l-303 -1434h-295l-449 911q-38 77 -49 119h-6q-5 -37 -11 -83t-17 -91l-183 -856h-303z" />
<glyph unicode="O" horiz-adv-x="1554" d="M111 592q0 290 145 516q176 274 490 335q77 15 187.5 15t221 -42t189.5 -121.5t123 -194t44 -229.5t-15 -202t-44 -169q-89 -245 -287 -389q-187 -136 -454 -136q-277 0 -442 177q-158 169 -158 440zM453 585q0 -70 20.5 -134t58.5 -107q78 -90 211 -90q174 0 287 143 q99 119 130 320q9 59 9 127t-20.5 132t-58.5 108q-78 92 -216 92q-161 0 -280 -140q-100 -117 -132 -320q-9 -61 -9 -131z" />
<glyph unicode="P" horiz-adv-x="1290" d="M49 0l305 1434h492q234 0 358 -118q113 -107 113 -300q0 -96 -37 -192.5t-115 -169.5q-171 -160 -485 -160h-201l-104 -494h-326zM532 739h148q146 0 224 79q71 72 71 201q0 68 -56 117.5t-165 49.5h-127z" />
<glyph unicode="Q" horiz-adv-x="1554" d="M111 590q0 293 145 518q48 75 104.5 129.5t112.5 93.5t123 67q144 60 297.5 60t263.5 -42.5t189 -122.5q165 -167 165 -455q0 -271 -133 -495q-144 -243 -389 -325q110 -146 248 -169q48 -8 93 -8q96 0 163 25l-58 -272q-102 -27 -215.5 -27t-189 32t-138.5 87 q-91 81 -233 291q-257 17 -407 194q-141 167 -141 419zM453 596q0 -246 171 -319q53 -23 128.5 -23t150.5 37.5t118 91.5t69 106t43.5 108t26.5 115.5t9 128.5t-19.5 133t-57.5 109q-77 93 -213 93q-224 0 -344 -231q-82 -158 -82 -349z" />
<glyph unicode="R" horiz-adv-x="1311" d="M49 0l305 1434h490q237 0 356 -110q105 -96 105 -264q0 -82 -33 -155.5t-90 -127.5q-115 -109 -297 -134v-4q129 -41 172 -225l100 -414h-346l-78 369q-36 180 -186 180h-55l-117 -549h-326zM543 793h131q140 0 217 67q70 62 70 150q0 182 -197 182h-135z" />
<glyph unicode="S" horiz-adv-x="1100" d="M29 76l55 284q180 -131 373 -131q161 0 198 98q11 29 11 62q0 65 -45 111q-40 41 -130.5 92.5t-140.5 91t-86 88.5q-76 102 -76 240q0 184 128 306q147 140 413 140q206 0 393 -78l-55 -278q-166 102 -336 102q-104 0 -158 -54q-43 -43 -43 -87.5t10.5 -72t33.5 -52.5 q38 -44 126.5 -98.5t141 -97t89.5 -90.5q75 -99 75 -234q0 -164 -106 -284q-139 -159 -447 -159q-233 0 -424 101z" />
<glyph unicode="T" horiz-adv-x="1202" d="M164 1171l57 263h1139l-57 -263h-404l-248 -1171h-325l247 1171h-409z" />
<glyph unicode="U" horiz-adv-x="1481" d="M150 459q0 105 28 231l160 744h326l-162 -746q-29 -140 -29 -197t17.5 -101.5t49.5 -74.5q64 -61 165 -61q121 0 194 73q81 81 119 263l182 844h326l-183 -850q-65 -307 -201 -446q-160 -163 -474 -163q-241 0 -379 129q-139 129 -139 355z" />
<glyph unicode="V" horiz-adv-x="1366" d="M199 1434h331l97 -992q4 -40 4 -71q0 -40 -6 -68h8q20 66 59 143l498 988h356l-807 -1434h-356z" />
<glyph unicode="W" horiz-adv-x="2064" d="M201 1434h340l10 -951v-16q0 -33 -6 -75q-8 -53 -10 -66h6q18 66 61 159l461 949h342l47 -961q1 -14 1 -30q0 -48 -9 -115h4q19 65 53 151l397 955h338l-686 -1434h-344l-61 930q-1 10 -1 20q0 54 17 137h-4q-29 -93 -59 -157l-455 -930h-369z" />
<glyph unicode="X" horiz-adv-x="1341" d="M-111 0l615 739l-277 695h377l127 -441q12 -48 12 -112h5q27 72 51 104l342 449h377l-590 -725l284 -709h-366l-144 455q-14 39 -14 110h-4q-8 -17 -20.5 -48t-30.5 -56l-344 -461h-400z" />
<glyph unicode="Y" horiz-adv-x="1245" d="M193 1434h350l114 -545q8 -34 9.5 -63t3.5 -52h2q26 66 53 111l350 549h363l-662 -914l-108 -520h-326l109 514z" />
<glyph unicode="Z" horiz-adv-x="1243" d="M-70 0l39 186l922 985h-660l56 263h1102l-39 -181l-910 -991h701l-56 -262h-1155z" />
<glyph unicode="[" horiz-adv-x="758" d="M53 -326l373 1760h473l-41 -201h-219l-289 -1358h219l-43 -201h-473z" />
<glyph unicode="\" horiz-adv-x="895" d="M170 1434h274l342 -1672h-270z" />
<glyph unicode="]" horiz-adv-x="758" d="M-139 -326l43 201h215l289 1358h-218l41 201h474l-373 -1760h-471z" />
<glyph unicode="^" horiz-adv-x="1450" d="M250 610l430 848h162l452 -848h-241l-287 586h-6l-268 -586h-242z" />
<glyph unicode="_" horiz-adv-x="850" d="M-176 -297l24 119h850l-24 -119h-850z" />
<glyph unicode="`" horiz-adv-x="899" d="M291 1511h264l209 -325h-213z" />
<glyph unicode="a" horiz-adv-x="1214" d="M61 371q0 219 125 409q107 162 310 232q109 37 256 37q158 0 272.5 -22t159.5 -32l-140 -657q-38 -168 -38 -338h-320q0 62 14 174h-4q-73 -98 -120 -132q-93 -67 -184.5 -67t-150 27t-98.5 78q-82 105 -82 291zM379 413.5q0 -61.5 7.5 -93t23.5 -54.5q34 -49 92.5 -49 t103 33t78.5 84q58 90 92 244l53 239q-46 10 -109.5 10t-115.5 -23t-90.5 -60t-64.5 -84t-41 -96q-29 -89 -29 -150.5z" />
<glyph unicode="b" horiz-adv-x="1214" d="M37 86l303 1430h319l-96 -451q-4 -21 -10.5 -48t-12.5 -54q-18 -72 -24 -93h8q133 179 320 179q140 0 222 -96q87 -102 87 -287q0 -243 -133 -436q-107 -155 -305 -220q-104 -35 -202 -35t-157.5 7.5t-115.5 21.5q-122 32 -203 82zM385 223q52 -26 118 -26t109 18.5 t78.5 51t62.5 75t45 90.5q38 99 38 199q0 176 -136 176q-91 0 -164 -103q-68 -94 -98 -231z" />
<glyph unicode="c" horiz-adv-x="946" d="M61 397q0 267 167 454q177 198 466 198q161 0 264 -58l-57 -248q-84 64 -205 64q-139 0 -232 -122q-85 -112 -85 -253q0 -215 192 -215q84 0 189 46q29 13 53 28l-49 -242q-144 -74 -299 -74q-195 0 -302 118q-102 112 -102 304z" />
<glyph unicode="d" horiz-adv-x="1214" d="M61 367q0 283 175 476q188 206 489 206q81 0 149 -13l103 480h315l-248 -1178q-38 -168 -38 -338h-320l14 172h-4q-67 -95 -121 -132q-97 -65 -184.5 -65t-146 26t-99.5 75q-84 102 -84 291zM379 412.5q0 -60.5 8 -92t23 -54.5q34 -49 93.5 -49t103 32.5t77.5 84.5 q58 92 94 250l51 231q-46 12 -109.5 12t-115.5 -23t-90.5 -60.5t-64.5 -85t-41 -96.5q-29 -89 -29 -149.5z" />
<glyph unicode="e" horiz-adv-x="1065" d="M61 399q0 271 167 456q176 194 448 194q190 0 288 -89q87 -78 87 -212q0 -67 -33.5 -133t-111.5 -114q-165 -100 -533 -106q-2 -6 -2 -11v-9q0 -116 109 -159q40 -15 88 -15t90.5 6.5t86.5 18.5q95 27 168 69l-49 -236q-163 -84 -364 -84q-219 0 -336 125 q-103 112 -103 299zM393 590h16q341 0 341 166q0 37 -27.5 61.5t-74.5 24.5t-87.5 -19t-74.5 -53q-68 -68 -93 -180z" />
<glyph unicode="f" horiz-adv-x="768" d="M10 -340l242 1131h-174l51 233h172l33 147q42 187 156.5 278t310.5 91q105 0 188 -27l-49 -243q-71 28 -134.5 28t-101.5 -39t-57 -122l-24 -113h233l-49 -233h-238l-243 -1131h-316z" />
<glyph unicode="g" horiz-adv-x="1214" d="M-33 -406l56 254q144 -96 296 -96q223 0 308 184q28 61 45 140l18 90h-4q-127 -191 -311 -191q-151 0 -235 108q-79 103 -79 279q0 279 167 473q184 214 503 214q168 0 288 -21.5t165 -30.5l-185 -874q-62 -296 -202 -435q-170 -169 -498 -169q-175 0 -332 75zM379 389 q0 -120 71 -159q23 -13 58.5 -13t69 16t61 43.5t49 63.5t38.5 76q32 75 50 159l53 242q-46 10 -116.5 10t-131 -34t-105.5 -93q-97 -127 -97 -311z" />
<glyph unicode="h" horiz-adv-x="1225" d="M16 0l322 1516h319l-147 -689h4q118 153 278 205q52 17 103 17q125 0 190.5 -69.5t65.5 -199.5q0 -58 -29 -188l-125 -592h-317l123 584q18 96 18 118q0 105 -100 105q-79 0 -165 -90q-89 -94 -114 -213l-106 -504h-320z" />
<glyph unicode="i" horiz-adv-x="650" d="M79 217q0 84 17 162.5t26.5 124t22 104.5t26.5 124.5t26.5 124.5t22 104.5t13.5 62.5h320l-122 -576q-26 -114 -26 -154q0 -68 79 -68q52 0 101 20q-13 -60 -25 -118.5t-25 -118.5q-114 -32 -200 -32q-128 0 -196 69q-60 61 -60 171zM272 1340q0 36 14.5 67t39.5 53 q53 47 137 47q76 0 125 -43q51 -45 51 -113q0 -36 -15 -67t-40 -54q-53 -46 -135 -46q-119 0 -163 92q-14 28 -14 64z" />
<glyph unicode="j" horiz-adv-x="538" d="M-344 -449l51 242q50 -33 115 -33t117 61t81 199l213 1004h320l-207 -971q-52 -247 -162 -375q-137 -159 -368 -159q-96 0 -160 32zM272 1340q0 36 14.5 67t39.5 53q53 47 137 47q76 0 125 -43q51 -45 51 -113q0 -36 -15 -67t-40 -54q-53 -46 -135 -46q-119 0 -163 92 q-14 28 -14 64z" />
<glyph unicode="k" horiz-adv-x="1151" d="M16 0l322 1516h319l-200 -936h4l407 444h375l-479 -483l264 -541h-352l-225 532h-5l-112 -532h-318z" />
<glyph unicode="l" horiz-adv-x="650" d="M79 217q0 84 16.5 160.5t27 127t26.5 124.5t35 164.5t39.5 185t39.5 185t35 164.5t26.5 124.5t13.5 63.5h320l-227 -1068q-26 -114 -26 -154q0 -68 79 -68q52 0 101 20q-13 -60 -25 -118.5t-25 -118.5q-114 -32 -200 -32q-128 0 -196 69q-60 61 -60 171z" />
<glyph unicode="m" horiz-adv-x="1866" d="M16 0l152 702q42 216 55 322h312q-17 -163 -25 -197h4q119 154 271 205q51 17 102 17q120 0 181 -62t71 -172q122 167 285 217q55 17 112 17q127 0 191.5 -69.5t64.5 -199.5q0 -58 -29 -188l-125 -592h-317l125 584q18 96 18 118q0 105 -98 105q-76 0 -162 -94 q-86 -93 -110 -207l-105 -506h-319l125 584q18 96 18 118q0 105 -98 105q-79 0 -163 -95q-84 -93 -108 -206l-108 -506h-320z" />
<glyph unicode="n" horiz-adv-x="1225" d="M16 0l152 702q42 216 55 322h312q-17 -163 -25 -197h4q116 152 275 205q53 17 106 17q127 0 191.5 -70.5t64.5 -198.5q0 -58 -29 -188l-125 -592h-317l123 584q18 96 18 118q0 105 -98 105q-83 0 -169 -93q-86 -92 -110 -208l-106 -506h-322z" />
<glyph unicode="o" horiz-adv-x="1178" d="M61 408q0 250 142 432q102 129 273 182q87 27 195 27t190.5 -30.5t139 -87t86 -136t29.5 -164t-14 -159.5t-44 -146.5t-77.5 -135.5t-114.5 -112q-148 -103 -358 -103q-220 0 -338 124q-109 115 -109 309zM379 408q0 -91 42.5 -141t109 -50t116 35t83 91.5t50.5 127.5 t17 128t-10 92.5t-29 60.5q-42 55 -109 55t-116.5 -36t-83.5 -93q-70 -117 -70 -270z" />
<glyph unicode="p" horiz-adv-x="1214" d="M-86 -471l246 1157q46 236 49 338h311q-3 -48 -20 -174h4q133 199 342 199q139 0 222 -99q85 -102 85 -280q0 -276 -161 -474q-112 -138 -288 -193q-91 -28 -191 -28t-179 21l-101 -467h-319zM375 215q54 -18 127.5 -18t135 36.5t105.5 96.5q93 128 93 303q0 121 -70 160 q-26 14 -73 14t-92 -32.5t-79 -84.5q-64 -97 -94 -241z" />
<glyph unicode="q" horiz-adv-x="1214" d="M61 354q0 78 13.5 153t44.5 150.5t82.5 146t127.5 124.5q168 121 414 121q219 0 439 -62l-310 -1458h-317l90 430q14 60 22.5 96t15.5 61t11 42h-4q-131 -183 -313 -183q-227 0 -295 228q-21 73 -21 151zM379 393q0 -176 127 -176q136 0 220 192q29 67 48 152l53 252 q-54 14 -112.5 14t-108.5 -21.5t-88 -57.5t-64.5 -82t-43.5 -94q-31 -92 -31 -179z" />
<glyph unicode="r" horiz-adv-x="819" d="M16 0l140 653q47 219 63 371h313q-12 -116 -26 -207h4q62 115 130.5 173.5t158.5 58.5q26 0 51 -5t45 -8l-64 -303h-2q-55 29 -114 29t-106 -26.5t-83 -71.5q-67 -84 -100 -234l-90 -430h-320z" />
<glyph unicode="s" horiz-adv-x="899" d="M4 29l47 241q149 -80 295 -80t146 97q0 38 -28 66.5t-91 58t-106.5 58.5t-73.5 64q-60 70 -60 175q0 135 97 227q118 113 348 113q148 0 288 -43l-49 -238q-120 63 -215 63t-126.5 -28t-31.5 -68.5t31 -66.5t86.5 -53.5t100.5 -56.5t75 -64q60 -70 60 -179 q0 -140 -106 -231q-125 -109 -372 -109q-180 0 -315 54z" />
<glyph unicode="t" horiz-adv-x="768" d="M63 791l56 233h151l52 240l333 82l-67 -322h243l-55 -233h-239l-82 -383q-2 -13 -5 -28l-6 -30q-6 -39 -6 -51q0 -78 86 -78q50 0 135 31l-49 -234q-105 -41 -231 -41q-264 0 -264 254q0 52 24 166l82 394h-158z" />
<glyph unicode="u" horiz-adv-x="1225" d="M66 244q0 62 28 188l125 592h318l-123 -578q-19 -76 -19 -121t24 -71.5t72 -26.5t95 28t85 73q80 94 105 213l103 483h319l-147 -684q-36 -180 -47 -340h-320q7 72 13 107q10 68 12 86h-4q-123 -154 -277 -202q-51 -16 -104 -16q-127 0 -192.5 70.5t-65.5 198.5z" />
<glyph unicode="v" horiz-adv-x="1092" d="M115 1024h315l41 -567q9 -82 9 -144q0 -36 -3 -65h4q19 51 49 116.5t41 90.5l275 569h348l-592 -1024h-352z" />
<glyph unicode="w" horiz-adv-x="1628" d="M117 1024h303v-666q0 -70 -10 -116h6q4 10 16 44q22 65 29 79l311 659h305l19 -664q0 -80 -9 -120h7q21 70 41 120l268 664h307l-510 -1024h-328l-24 606q0 67 8 131h-4q-18 -69 -47 -131l-285 -606h-334z" />
<glyph unicode="x" horiz-adv-x="1122" d="M-104 0l456 518l-219 506h352l84 -270q18 -47 27 -107h4q21 38 68 103l200 274h359l-447 -510l228 -514h-351l-92 268q-12 35 -28 101h-5q-15 -25 -30 -51t-31 -46l-203 -272h-372z" />
<glyph unicode="y" horiz-adv-x="1102" d="M-160 -453l54 244q43 -31 108 -31q133 0 205 117l82 129l-199 1018h332l72 -623q5 -51 5 -88q0 -28 -3 -49h4q33 91 57 137l313 623h332l-651 -1114q-112 -196 -224 -285q-133 -106 -317 -106q-93 0 -170 28z" />
<glyph unicode="z" horiz-adv-x="995" d="M-84 0l27 133l645 658h-453l49 233h877l-35 -160l-606 -631h475l-49 -233h-930z" />
<glyph unicode="{" horiz-adv-x="758" d="M82 446l41 187q78 0 123.5 39.5t62.5 126.5l53 252q53 242 193 322q86 49 167.5 55t137.5 6l-39 -189q-126 0 -171 -97q-16 -34 -27 -85l-54 -248q-52 -243 -211 -291v-4q97 -54 97 -192q0 -53 -13 -115l-47 -215q-8 -30 -8 -68q0 -114 129 -114l-39 -187 q-272 0 -329 168q-17 50 -17 91q0 58 14 130l52 238q8 30 8 68q0 122 -123 122z" />
<glyph unicode="|" horiz-adv-x="668" d="M229 -481v2048h252v-2048h-252z" />
<glyph unicode="}" horiz-adv-x="758" d="M-106 -369l40 189q125 0 172 98q16 35 27 86l51 248q55 243 211 291v4q-96 55 -96 192q0 55 14 115l45 213q9 34 9 68q0 114 -129 114l38 187q347 0 347 -271q0 -62 -15 -118l-51 -236q-8 -30 -8 -80.5t33 -81.5t90 -31l-39 -184q-81 0 -125.5 -40.5t-63.5 -125.5 l-53 -252q-50 -240 -193 -324q-83 -49 -165.5 -55t-138.5 -6z" />
<glyph unicode="~" horiz-adv-x="1450" d="M207 399q10 253 179 336q58 29 117 29t91 -6t60 -16q50 -19 118 -60t89 -51q44 -21 76.5 -21t54.5 12.5t38 33.5q31 44 33 116h205q-4 -165 -86 -263q-84 -101 -226 -101q-100 0 -195 52q-30 17 -66 37t-75 41t-75.5 21t-60 -13t-38.5 -36q-30 -42 -32 -111h-207z" />
<glyph unicode="&#xa2;" d="M174 568.5q0 176.5 68.5 310t185.5 221.5q151 111 363 121l43 200h161l-45 -207q122 -17 168 -49l-53 -254q-57 47 -166 64l-123 -576q111 16 201 72l-53 -246q-82 -49 -197 -65l-43 -197h-162l41 189q-187 14 -290 129q-99 111 -99 287.5zM481 633.5q0 -63.5 10.5 -96.5 t28.5 -58q34 -48 98 -69l119 559q-169 -41 -230 -203q-26 -69 -26 -132.5z" />
<glyph unicode="&#xa3;" d="M12 0l49 229q110 26 168.5 91t81.5 172l27 120h-174l45 217h174l39 183q43 204 182 322q144 124 357 124q139 0 229 -49l-55 -266q-80 65 -184 65t-162 -57t-82 -178l-29 -144h262l-47 -217h-262l-23 -102q-36 -175 -198 -266h626l-51 -244h-973z" />
<glyph unicode="&#xa5;" d="M72 262l39 189h313l35 153h-316l41 189h256l-207 641h314l106 -490q17 -63 21 -86h4q11 20 24.5 41t30.5 49l307 486h310l-490 -641h250l-39 -189h-305l-33 -153h305l-39 -189h-305l-57 -262h-307l55 262h-313z" />
<glyph unicode="&#xad;" horiz-adv-x="827" d="M119 436l47 221h547l-47 -221h-547z" />
<glyph unicode="&#x192;" d="M55 -248l33 211q48 -26 80 -26t54.5 8.5t41.5 30.5q42 48 68 167l133 590h-133l51 215h129l35 148q37 170 142.5 260t264.5 90q109 0 195 -37l-45 -221q-62 35 -120 35t-97.5 -36.5t-55.5 -101.5l-32 -137h178l-51 -215h-174l-134 -583q-74 -337 -263 -404 q-62 -22 -119 -22q-109 0 -181 28z" />
<glyph unicode="&#x401;" horiz-adv-x="1085" d="M49 0l305 1434h826l-56 -263h-501l-68 -323h467l-57 -264h-465l-70 -322h535l-56 -262h-860zM408 1690q0 44 12 69t33 42q45 38 95 38t78 -10t49 -28q42 -37 42 -97q0 -93 -90 -128q-28 -11 -62.5 -11t-63.5 11t-50 30q-43 40 -43 84zM867 1705q0 29 11.5 54t32.5 42 q45 38 94.5 38t77.5 -10t48 -28q43 -37 43 -97q0 -93 -89 -128q-29 -11 -64 -11q-106 0 -143 86q-11 25 -11 54z" />
<glyph unicode="&#x410;" horiz-adv-x="1440" d="M-102 0l827 1434h385l205 -1434h-330l-41 319h-514l-168 -319h-364zM551 567h369l-52 484q-5 79 2 127h-6q-10 -46 -51 -123z" />
<glyph unicode="&#x411;" horiz-adv-x="1318" d="M49 0l304 1434h924l-58 -266h-599l-66 -315h226q228 0 350 -113q113 -104 113 -283q0 -313 -317 -418q-118 -39 -295 -39h-582zM422 238h194q214 0 266 124q16 38 16 83q0 171 -212 171h-184z" />
<glyph unicode="&#x412;" horiz-adv-x="1327" d="M49 0l305 1434h508q331 0 410 -196q24 -59 24 -127t-22 -126t-66 -105q-91 -97 -256 -128v-4q131 -19 204 -102q69 -77 69 -183.5t-38 -189t-114 -143.5q-162 -130 -455 -130h-569zM424 238h180q209 0 263 130q16 38 16 98t-52 105t-155 45h-170zM555 856h152 q178 0 232 112q17 36 17 79q0 149 -194 149h-133z" />
<glyph unicode="&#x413;" horiz-adv-x="1085" d="M49 0l305 1434h855l-57 -266h-532l-248 -1168h-323z" />
<glyph unicode="&#x414;" horiz-adv-x="1573" d="M-149 -393l144 675h122q286 312 447 796q55 164 103 356h846l-244 -1152h218l-144 -675h-295l83 393h-903l-82 -393h-295zM473 282h470l185 870h-249q-154 -574 -406 -870z" />
<glyph unicode="&#x415;" horiz-adv-x="1085" d="M49 0l305 1434h826l-56 -263h-501l-68 -323h467l-57 -264h-465l-70 -322h535l-56 -262h-860z" />
<glyph unicode="&#x416;" horiz-adv-x="1884" d="M-121 0l666 744l-335 690h350l250 -619q3 -10 10 -29t9 -33h4l143 681h299l-144 -675h4q8 19 49 70l500 605h363l-632 -699l351 -735h-358l-266 640q-13 35 -16 66h-4l-151 -706h-299l148 693h-5q-7 -11 -19 -30t-27 -36l-518 -627h-372z" />
<glyph unicode="&#x417;" horiz-adv-x="1176" d="M-6 68l57 283q173 -115 395 -115q155 0 227 63q57 50 57 132q0 173 -249 173h-186l51 264h194q297 0 297 191q0 98 -110 129q-38 10 -85 10t-95 -7.5t-96 -20.5q-98 -25 -168 -59l50 278q190 69 391 69q219 0 334 -98q108 -92 108 -250q0 -217 -202 -320 q-70 -36 -170 -50v-4q125 -26 195 -112q69 -84 69 -209q0 -170 -132 -292q-159 -148 -485 -148q-265 0 -447 93z" />
<glyph unicode="&#x418;" horiz-adv-x="1607" d="M48 0l303 1434h302q-42 -201 -83.5 -398.5t-65.5 -312.5q-35 -169 -54 -227h4q29 38 62.5 74t53.5 58q70 75 168.5 180.5t258.5 278.5t321 347h318l-303 -1434h-302l162 768q23 108 49 205h-4q-56 -70 -129.5 -147t-253 -272t-512.5 -554h-295z" />
<glyph unicode="&#x419;" horiz-adv-x="1607" d="M48 0l303 1434h302q-42 -201 -83.5 -398.5t-65.5 -312.5q-35 -169 -54 -227h4q29 38 62.5 74t53.5 58q70 75 168.5 180.5t258.5 278.5t321 347h318l-303 -1434h-302l162 768q23 108 49 205h-4q-56 -70 -129.5 -147t-253 -272t-512.5 -554h-295zM611 1909h240 q2 -74 33 -111q54 -65 134 -65q121 0 195 107q22 32 35 69h241q-45 -155 -175 -249q-136 -98 -319 -98q-163 0 -271.5 97t-112.5 250z" />
<glyph unicode="&#x41a;" horiz-adv-x="1333" d="M49 0l305 1434h326l-141 -666h4q11 15 25.5 33t29 36.5t56 66t93 106t108.5 122.5t109 122q122 140 150 180h395q-62 -78 -230 -250.5t-233 -239.5q-145 -153 -190 -209q35 -89 136 -266.5t140 -248.5q88 -161 111 -220h-393q-21 62 -102.5 218.5t-111.5 216.5 q-73 143 -84 171q-20 53 -28 84h-4l-145 -690h-326z" />
<glyph unicode="&#x41b;" horiz-adv-x="1530" d="M-86 2l56 263q32 -15 90 -15q109 0 213 208q141 288 365 976h890l-305 -1434h-326l247 1163h-300q-188 -576 -303 -812q-87 -187 -191 -275q-113 -94 -270 -94q-102 0 -166 20z" />
<glyph unicode="&#x41c;" horiz-adv-x="1781" d="M48 0l305 1434h384l147 -498q31 -106 31 -205h5q11 22 23.5 49.5t26.5 55.5q30 64 58 102l366 496h416l-305 -1434h-290l182 858q30 137 78 307h-8q-64 -146 -111 -212l-384 -523h-226l-149 513q-14 42 -14 115v107h-9q-28 -189 -52 -306l-183 -859h-291z" />
<glyph unicode="&#x41d;" horiz-adv-x="1565" d="M49 0l305 1434h326l-123 -572h590l123 572h325l-305 -1434h-325l122 580h-589l-123 -580h-326z" />
<glyph unicode="&#x41e;" horiz-adv-x="1554" d="M111 592q0 290 145 516q176 274 490 335q77 15 187.5 15t221 -42t189.5 -121.5t123 -194t44 -229.5t-15 -202t-44 -169q-89 -245 -287 -389q-187 -136 -454 -136q-277 0 -442 177q-158 169 -158 440zM453 585q0 -70 20.5 -134t58.5 -107q78 -90 211 -90q174 0 287 143 q99 119 130 320q9 59 9 127t-20.5 132t-58.5 108q-78 92 -216 92q-161 0 -280 -140q-100 -117 -132 -320q-9 -61 -9 -131z" />
<glyph unicode="&#x41f;" horiz-adv-x="1539" d="M49 0l303 1434h1220l-303 -1434h-326l244 1152h-570l-243 -1152h-325z" />
<glyph unicode="&#x420;" horiz-adv-x="1290" d="M49 0l305 1434h492q234 0 358 -118q113 -107 113 -300q0 -96 -37 -192.5t-115 -169.5q-171 -160 -485 -160h-201l-104 -494h-326zM532 739h148q146 0 224 79q71 72 71 201q0 68 -56 117.5t-165 49.5h-127z" />
<glyph unicode="&#x421;" horiz-adv-x="1300" d="M104 598q0 361 218 599q152 165 400 229q126 32 231.5 32t159.5 -6t103 -16q86 -16 164 -43l-67 -306q-167 89 -314.5 89t-247 -44.5t-167.5 -119.5q-138 -152 -138 -383q0 -180 104 -279q102 -96 277 -96q174 0 349 90l-68 -305q-153 -64 -334 -64t-300 44.5t-201 126.5 q-169 169 -169 452z" />
<glyph unicode="&#x422;" horiz-adv-x="1202" d="M164 1171l57 263h1139l-57 -263h-404l-248 -1171h-325l247 1171h-409z" />
<glyph unicode="&#x423;" horiz-adv-x="1255" d="M-6 17l57 272q65 -38 139.5 -38t138 45.5t133.5 150.5l-263 987h353l113 -555q10 -55 17 -147h4q44 102 66 137l334 565h361l-653 -1014q-152 -237 -268 -332q-140 -113 -330 -113q-132 0 -202 42z" />
<glyph unicode="&#x424;" horiz-adv-x="1722" d="M101 654q0 251 153 434q108 130 294 183q96 27 215 27h115l32 158h299l-31 -158h52q219 0 346 -124q63 -61 97.5 -152.5t34.5 -186.5t-15.5 -169t-49 -144t-85 -132t-124.5 -108q-156 -101 -378 -101h-115l-41 -203h-309l43 203h-53q-218 0 -347 123q-133 127 -133 350z M425 674q0 -183 137 -234q42 -15 92 -15h32l133 628h-51q-164 0 -260 -121q-83 -105 -83 -258zM993 425h50q165 0 261 121q83 106 83 256q0 66 -17 112.5t-48 77.5q-61 61 -165 61h-31z" />
<glyph unicode="&#x425;" horiz-adv-x="1341" d="M-111 0l615 739l-277 695h377l127 -441q12 -48 12 -112h5q27 72 51 104l342 449h377l-590 -725l284 -709h-366l-144 455q-14 39 -14 110h-4q-8 -17 -20.5 -48t-30.5 -56l-344 -461h-400z" />
<glyph unicode="&#x426;" horiz-adv-x="1665" d="M47 0l305 1434h325l-245 -1153h599l246 1153h325l-245 -1153h208l-142 -674h-295l84 393h-1165z" />
<glyph unicode="&#x427;" horiz-adv-x="1476" d="M200 779q0 63 22 162l103 493h325l-105 -492q-12 -60 -12 -90t9.5 -53.5t29.5 -40.5q42 -37 126 -37q188 0 354 90l131 623h326l-303 -1434h-326l113 541q-195 -92 -419 -92q-193 0 -290 100q-84 87 -84 230z" />
<glyph unicode="&#x428;" horiz-adv-x="2009" d="M47 0l303 1434h326l-244 -1153h361l243 1153h326l-243 -1153h361l244 1153h326l-303 -1434h-1700z" />
<glyph unicode="&#x429;" horiz-adv-x="2115" d="M47 0l305 1434h325l-245 -1153h361l245 1153h325l-244 -1153h360l246 1153h326l-246 -1153h210l-143 -674h-295l83 393h-1613z" />
<glyph unicode="&#x42a;" horiz-adv-x="1554" d="M178 1168l57 266h708l-123 -581h226q228 0 350 -113q113 -104 113 -283q0 -313 -317 -418q-118 -39 -295 -39h-582l247 1168h-384zM688 238h194q214 0 266 124q16 38 16 83q0 171 -212 171h-184z" />
<glyph unicode="&#x42b;" horiz-adv-x="1839" d="M49 0l304 1434h324l-123 -581h166q228 0 350 -113q113 -104 113 -283q0 -313 -317 -418q-118 -39 -295 -39h-522zM422 238h134q214 0 266 124q16 38 16 83q0 171 -212 171h-124zM1239 0l303 1434h326l-303 -1434h-326z" />
<glyph unicode="&#x42c;" horiz-adv-x="1318" d="M49 0l304 1434h324l-123 -581h226q228 0 350 -113q113 -104 113 -283q0 -313 -317 -418q-118 -39 -295 -39h-582zM422 238h194q214 0 266 124q16 38 16 83q0 171 -212 171h-184z" />
<glyph unicode="&#x42d;" horiz-adv-x="1315" d="M11 40q15 70 30 145.5t31 146.5q160 -80 332 -80q304 0 430 200q40 64 59 143h-577l54 256h552q2 10 2 17v17q0 198 -192 266q-68 24 -164 24q-189 0 -328 -65q14 69 28.5 147.5t28.5 147.5q157 53 328 53t290 -45t199 -126q158 -161 158 -437q0 -337 -182 -578 q-137 -182 -392 -258q-131 -39 -302 -39q-217 0 -385 65z" />
<glyph unicode="&#x42e;" horiz-adv-x="2116" d="M47 0l305 1434h326l-118 -551h225q77 261 254 412q191 163 467 163q142 0 248.5 -47.5t177.5 -131.5q141 -169 141 -445q0 -348 -195 -594q-134 -167 -340 -232q-105 -33 -227 -33t-210.5 32t-151 83.5t-102 115.5t-61.5 128q-40 112 -40 216v54h-244l-128 -604h-327z M1088 607q0 -250 144 -327q48 -26 115.5 -26t123 26t98.5 70.5t73.5 102t50 121t29 127.5t9.5 134.5t-18 136.5t-51 111q-70 93 -190 93q-191 0 -296 -202q-88 -167 -88 -367z" />
<glyph unicode="&#x42f;" horiz-adv-x="1335" d="M-80 0q126 200 203.5 323.5t112.5 165.5t75 77q84 72 177 99v4q-119 28 -188 113q-68 84 -68 191t35 189.5t107 142.5q156 129 452 129h538q-76 -361 -152 -717t-152 -717h-325q29 140 58.5 274.5t58.5 274.5h-66q-178 0 -287 -188q-65 -111 -213 -361h-366zM577 970 q0 -124 124 -164q40 -13 91 -13h111q22 100 42.5 200t43.5 199h-139q-141 0 -212 -66q-61 -58 -61 -156z" />
<glyph unicode="&#x430;" horiz-adv-x="1214" d="M61 371q0 219 125 409q107 162 310 232q109 37 256 37q158 0 272.5 -22t159.5 -32l-140 -657q-38 -168 -38 -338h-320q0 62 14 174h-4q-73 -98 -120 -132q-93 -67 -184.5 -67t-150 27t-98.5 78q-82 105 -82 291zM379 413.5q0 -61.5 7.5 -93t23.5 -54.5q34 -49 92.5 -49 t103 33t78.5 84q58 90 92 244l53 239q-46 10 -109.5 10t-115.5 -23t-90.5 -60t-64.5 -84t-41 -96q-29 -89 -29 -150.5z" />
<glyph unicode="&#x431;" horiz-adv-x="1189" d="M71 473q0 329 127 601q73 155 167.5 240.5t187 128t196 62.5t221 24.5t253.5 7.5l-58 -269q-298 -5 -379 -16q-227 -30 -285 -153q-31 -67 -43.5 -131.5t-19.5 -103.5h4q150 160 348 160q155 0 246 -120q87 -112 87 -293q0 -254 -137 -432q-157 -204 -453 -204 q-221 0 -342 133q-120 131 -120 365zM383 449.5q0 -112.5 45 -172t114 -59.5t116.5 34t80 88t49 120.5t16.5 141t-42 127.5t-125 53q-102 0 -189 -86q-26 -25 -45 -54q-20 -80 -20 -192.5z" />
<glyph unicode="&#x432;" horiz-adv-x="1118" d="M61 359q0 237 99 414q37 66 103.5 129.5t182 105t243 41.5t198 -22.5t113 -58.5t60 -79.5t17.5 -83.5t-12.5 -81t-42.5 -78q-68 -83 -208 -110q106 -8 161.5 -62t55.5 -144q0 -122 -111 -224q-140 -131 -433 -131q-215 0 -315 81q-111 89 -111 303zM357 329 q0 -145 162 -145q100 0 159 48q52 42 52 113q0 38 -37 68t-107 30q-108 0 -222 -18q-7 -28 -7 -96zM403 612q195 5 258 25.5t89 48t26 70t-28.5 69.5t-79.5 27t-92.5 -18t-75.5 -50q-68 -66 -97 -172z" />
<glyph unicode="&#x433;" horiz-adv-x="931" d="M23 261q0 220 257 319q69 27 121 45t84 31.5t55 29.5q47 31 47 75q0 71 -118 71q-100 0 -221 -40q-34 -11 -57 -22q13 58 25 118t24 119q135 42 267 42t197 -20t107.5 -56t63 -86t20.5 -118t-27.5 -122.5t-73.5 -93.5q-70 -61 -226 -115q-134 -45 -172 -66 q-76 -42 -76 -98q0 -37 32.5 -60.5t88.5 -23.5t98 6.5t84 17.5q84 23 163 63q-13 -61 -25.5 -124.5t-25.5 -124.5q-151 -53 -344 -53q-192 0 -287 85q-81 73 -81 201z" />
<glyph unicode="&#x434;" horiz-adv-x="1201" d="M61 387q0 253 137 435q151 202 399 202q93 0 160.5 -43t99.5 -118h4q12 72 12 130q0 278 -233 278q-108 0 -232 -43q-35 -13 -59 -26q14 66 28.5 135t29.5 136q96 43 264 43q506 0 506 -509q0 -401 -146 -683q-111 -216 -314 -304q-105 -45 -230.5 -45t-204.5 33.5 t-128 89.5q-93 108 -93 289zM377 397q0 -178 142 -178q115 0 199 141q72 122 99 297q-18 69 -63 106.5t-96.5 37.5t-89 -20t-68 -52.5t-53.5 -75t-39 -87.5q-31 -91 -31 -169z" />
<glyph unicode="&#x435;" horiz-adv-x="1065" d="M61 399q0 271 167 456q176 194 448 194q190 0 288 -89q87 -78 87 -212q0 -67 -33.5 -133t-111.5 -114q-165 -100 -533 -106q-2 -6 -2 -11v-9q0 -116 109 -159q40 -15 88 -15t90.5 6.5t86.5 18.5q95 27 168 69l-49 -236q-163 -84 -364 -84q-219 0 -336 125 q-103 112 -103 299zM393 590q357 -4 357 166q0 37 -27.5 61.5t-74.5 24.5t-87.5 -19t-74.5 -53q-68 -68 -93 -180z" />
<glyph unicode="&#x436;" horiz-adv-x="1660" d="M-123 0l510 539l-247 485h326l215 -480h4l102 480h299l-103 -483h4l417 483h351l-480 -511l260 -513h-333l-223 505h-4l-107 -505h-299l109 508h-4l-438 -508h-359z" />
<glyph unicode="&#x437;" horiz-adv-x="982" d="M-36 37l44 234q153 -74 305 -74q257 0 257 121q0 55 -62 84t-174 29h-179l39 190h182q126 0 196 33.5t70 85.5q0 104 -189 104q-160 0 -312 -67l47 221q176 51 362.5 51t290.5 -63t104 -191q0 -159 -161 -230q-59 -26 -146 -38v-3q174 -17 220 -146q14 -37 14 -74.5 t-9 -76t-32 -75t-61.5 -69t-97.5 -56.5q-128 -52 -291 -52q-263 0 -417 62z" />
<glyph unicode="&#x438;" horiz-adv-x="1225" d="M66 244q0 62 28 188l125 592h318l-123 -578q-19 -76 -19 -121t24 -71.5t72 -26.5t95 28t85 73q80 94 105 213l103 483h319l-147 -684q-36 -180 -47 -340h-320q7 72 13 107q10 68 12 86h-4q-123 -154 -277 -202q-51 -16 -104 -16q-127 0 -192.5 70.5t-65.5 198.5z" />
<glyph unicode="&#x439;" horiz-adv-x="1225" d="M66 244q0 62 28 188l125 592h318l-123 -578q-19 -76 -19 -121t24 -71.5t72 -26.5t95 28t85 73q80 94 105 213l103 483h319l-147 -684q-36 -180 -47 -340h-320q7 72 13 107q10 68 12 86h-4q-123 -154 -277 -202q-51 -16 -104 -16q-127 0 -192.5 70.5t-65.5 198.5z M354 1536h240q2 -74 33 -111q54 -65 134 -65q121 0 195 107q22 32 35 69h241q-45 -155 -175 -249q-136 -98 -319 -98q-163 0 -271.5 97t-112.5 250z" />
<glyph unicode="&#x43a;" horiz-adv-x="1140" d="M16 0l217 1024h319l-95 -444h4l407 444h375l-479 -483l264 -541h-352l-225 532h-5l-112 -532h-318z" />
<glyph unicode="&#x43b;" horiz-adv-x="1256" d="M-90 5l43 235q22 -10 73.5 -10t100.5 38.5t99 130.5q95 172 232 625h771l-218 -1024h-317l168 792h-204q-107 -328 -159 -441.5t-95.5 -177.5t-95.5 -105q-101 -81 -260 -81q-84 0 -138 18z" />
<glyph unicode="&#x43c;" horiz-adv-x="1585" d="M16 0l217 1024h384l70 -584q17 -129 12 -182q15 44 89 180l316 586h454l-217 -1024h-295l169 797q-20 -54 -93 -189l-328 -608h-278l-70 608q-17 151 -13 187l-169 -795h-248z" />
<glyph unicode="&#x43d;" horiz-adv-x="1251" d="M16 0l217 1024h319l-79 -371h355l79 371h317l-217 -1024h-317l89 421h-355l-89 -421h-319z" />
<glyph unicode="&#x43e;" horiz-adv-x="1178" d="M61 408q0 250 142 432q102 129 273 182q87 27 195 27t190.5 -30.5t139 -87t86 -136t29.5 -164t-14 -159.5t-44 -146.5t-77.5 -135.5t-114.5 -112q-148 -103 -358 -103q-220 0 -338 124q-109 115 -109 309zM379 408q0 -91 42.5 -141t109 -50t116 35t83 91.5t50.5 127.5 t17 128t-10 92.5t-29 60.5q-42 55 -109 55t-116.5 -36t-83.5 -93q-70 -117 -70 -270z" />
<glyph unicode="&#x43f;" horiz-adv-x="1225" d="M16 0l152 702q42 216 55 322h312q-17 -163 -25 -197h4q116 152 275 205q53 17 106 17q127 0 191.5 -70.5t64.5 -198.5q0 -58 -29 -188l-125 -592h-317l123 584q18 96 18 118q0 105 -98 105q-83 0 -169 -93q-86 -92 -110 -208l-106 -506h-322z" />
<glyph unicode="&#x440;" horiz-adv-x="1214" d="M-86 -471l246 1157q46 236 49 338h311q-3 -48 -20 -174h4q133 199 342 199q139 0 222 -99q85 -102 85 -280q0 -276 -161 -474q-112 -138 -288 -193q-91 -28 -191 -28t-179 21l-101 -467h-319zM375 215q54 -18 127.5 -18t135 36.5t105.5 96.5q93 128 93 303q0 121 -70 160 q-26 14 -73 14t-92 -32.5t-79 -84.5q-64 -97 -94 -241z" />
<glyph unicode="&#x441;" horiz-adv-x="946" d="M61 397q0 267 167 454q177 198 466 198q161 0 264 -58l-57 -248q-84 64 -205 64q-139 0 -232 -122q-85 -112 -85 -253q0 -215 192 -215q84 0 189 46q29 13 53 28l-49 -242q-144 -74 -299 -74q-195 0 -302 118q-102 112 -102 304z" />
<glyph unicode="&#x442;" horiz-adv-x="1866" d="M16 0l152 702q42 216 55 322h312q-17 -163 -25 -197h4q119 154 271 205q51 17 102 17q120 0 181 -62t71 -172q122 167 285 217q55 17 112 17q127 0 191.5 -69.5t64.5 -199.5q0 -58 -29 -188l-125 -592h-317l125 584q18 96 18 118q0 105 -98 105q-76 0 -162 -94 q-86 -93 -110 -207l-105 -506h-319l125 584q18 96 18 118q0 105 -98 105q-79 0 -163 -95q-84 -93 -108 -206l-108 -506h-320z" />
<glyph unicode="&#x443;" horiz-adv-x="1102" d="M-160 -453l54 244q43 -31 108 -31q133 0 205 117l82 129l-199 1018h332l72 -623q8 -89 2 -137h4q33 91 57 137l313 623h332l-651 -1114q-112 -196 -224 -285q-133 -106 -317 -106q-93 0 -170 28z" />
<glyph unicode="&#x444;" horiz-adv-x="1752" d="M61 349.5q0 163.5 38.5 287t112.5 215.5q160 196 435 196q81 0 126 -16.5t56 -25.5l53 217q39 158 134 231q101 78 280 78q116 0 196 -25l-44 -225q-65 24 -119 24t-89 -27.5t-55 -73t-31.5 -103.5t-23.5 -119h4q105 64 235 64q144 0 231 -103q91 -108 91 -271.5 t-38.5 -286.5t-112.5 -214q-161 -198 -435 -198q-81 0 -126 16.5t-56 25.5l-18 -81q-45 -200 -145 -297q-113 -112 -313 -112q-101 0 -181 25l45 220q57 -23 102.5 -23t75.5 14.5t52 39.5q40 47 62 141l21 94h-5q-102 -62 -236 -62q-144 0 -231 103q-91 108 -91 271.5z M378 405q0 -131 70 -175q24 -15 66 -15q82 0 157 55l115 524q-37 39 -111 39t-128 -38t-91 -99q-78 -126 -78 -291zM966 228q37 -39 111 -39t128 38t91 99q78 126 78 291q0 131 -70 175q-24 15 -66 15q-82 0 -157 -55z" />
<glyph unicode="&#x445;" horiz-adv-x="1122" d="M-104 0l456 518l-219 506h352l84 -270q18 -47 27 -107h4q21 38 68 103l200 274h359l-447 -510l228 -514h-351l-92 268q-12 35 -28 101h-5q-15 -25 -30 -51t-31 -46l-203 -272h-372z" />
<glyph unicode="&#x446;" horiz-adv-x="1284" d="M66 244q0 62 28 188l125 592h318l-123 -578q-19 -76 -19 -121t24 -71.5t72 -26.5t95 28t85 73q80 94 105 213l103 483h319l-145 -675q-8 -44 -8 -62q0 -68 83 -68q12 0 41 2t45 3l-135 -601h-264l102 366q-105 0 -158 32.5t-53 104.5q0 39 5 67h-4q-123 -154 -278 -202 q-52 -16 -105 -16q-127 0 -192.5 70.5t-65.5 198.5z" />
<glyph unicode="&#x447;" horiz-adv-x="1194" d="M116 603q0 53 18 139l62 282h312q-10 -47 -20 -91.5t-20 -91.5t-17 -78q-13 -58 -13 -92q0 -100 111 -100q95 0 213 59q12 50 23.5 105t24.5 117t37 172h320l-217 -1024h-320l88 418q-167 -81 -320 -81q-134 0 -210 77q-72 71 -72 189z" />
<glyph unicode="&#x448;" horiz-adv-x="1821" d="M66 236q0 67 25 181l127 607h320l-122 -571q-21 -95 -21 -129q0 -104 86 -104q71 0 152 94q85 97 108 214l106 496h316l-121 -571q-19 -89 -19 -134q0 -98 83 -98q72 0 152 91q84 98 109 217l106 495h321l-150 -699q-39 -183 -55 -325h-315q13 146 30 213h-4 q-128 -166 -281 -220q-51 -18 -106 -18t-96.5 18t-68.5 51q-47 61 -54 185q-127 -180 -296 -236q-54 -18 -106 -18q-109 0 -167.5 64.5t-58.5 196.5z" />
<glyph unicode="&#x449;" horiz-adv-x="1879" d="M66 236q0 67 25 181l127 607h320l-122 -571q-21 -95 -21 -129q0 -104 86 -104q71 0 152 94q85 97 108 214l106 496h316l-121 -571q-19 -89 -19 -134q0 -98 83 -98q72 0 152 91q84 98 109 217l106 495h321l-145 -675q-2 -11 -5.5 -30t-3.5 -32q0 -68 83 -68q37 0 61 2.5 t25 2.5l-135 -601h-264q27 93 51.5 183t50.5 183q-105 0 -158 32.5t-53 104.5q0 11 9 92h-4q-130 -169 -286 -224q-52 -19 -107 -19t-96.5 18t-68.5 51q-47 61 -54 185q-127 -180 -296 -236q-54 -18 -106 -18q-109 0 -167.5 64.5t-58.5 196.5z" />
<glyph unicode="&#x44a;" horiz-adv-x="1336" d="M48 792l49 232h631q-20 -96 -41 -193.5t-41 -192.5q135 37 247 37t174.5 -19t106.5 -56q90 -75 90 -217q0 -174 -134 -287q-146 -121 -394 -121q-233 0 -336 80q-110 85 -110 284q0 98 22 208l53 254l-285 -9h-32zM594 325.5q0 -66.5 34.5 -102.5t101 -36t106 12.5 t66.5 34.5q58 46 58 117q0 122 -140 122q-98 0 -214 -31q-12 -50 -12 -116.5z" />
<glyph unicode="&#x44b;" horiz-adv-x="1661" d="M87 343q0 83 22 204l97 477h319q-20 -96 -41 -193.5t-41 -192.5q127 37 231.5 37t162.5 -19t99 -56q85 -75 85 -217q0 -175 -129 -287q-140 -121 -377 -121q-227 0 -327 87q-101 86 -101 281zM391 321q0 -134 138 -134q130 0 175 99q13 30 13 65q0 122 -124 122 q-87 0 -190 -31q-12 -60 -12 -121zM1099 0l217 1024h318l-217 -1024h-318z" />
<glyph unicode="&#x44c;" horiz-adv-x="1133" d="M87 339q0 87 22 208l97 477h319q-20 -96 -41 -193.5t-41 -192.5q135 37 247 37t174.5 -19t105.5 -56q91 -75 91 -217q0 -174 -135 -287q-145 -121 -393 -121q-237 0 -341 83q-105 84 -105 281zM391 324q0 -68 35.5 -102.5t101 -34.5t105 12.5t67.5 34.5q57 46 57 117 q0 122 -140 122q-98 0 -214 -31q-12 -50 -12 -118z" />
<glyph unicode="&#x44d;" horiz-adv-x="966" d="M-19 31q6 27 11 58.5t10.5 64t10.5 64t11 59.5q95 -61 235 -61q270 0 323 207h-428l39 188h410q2 10 2 30t-10 50.5t-36 56.5q-60 60 -191 60q-125 0 -243 -59q12 48 23 106q20 104 32 152q126 42 266 42t220 -32.5t133 -89.5q105 -113 105 -306q0 -264 -149 -443 q-168 -203 -486 -203q-135 0 -241 36q-30 10 -47 20z" />
<glyph unicode="&#x44e;" horiz-adv-x="1695" d="M16 0l217 1024h319l-79 -371h188q91 274 341 363q90 33 202.5 33t192 -31.5t132.5 -88.5q105 -113 105 -313q0 -239 -121 -418q-93 -137 -260 -194q-87 -29 -199 -29t-193 33.5t-133 91.5q-104 116 -104 305l1 10v6h-201l-89 -421h-319zM940 410q0 -92 36.5 -143t102 -51 t109.5 37.5t72.5 95.5t41.5 128.5t13 146.5t-34.5 129.5t-106.5 53.5q-147 0 -210 -219q-24 -86 -24 -178z" />
<glyph unicode="&#x44f;" horiz-adv-x="1188" d="M-61 0l175 268q101 156 261 192q-91 18 -151 85q-60 68 -60 144t21.5 134.5t75.5 102.5q118 98 373 98h527l-217 -1024h-317l80 378h-82q-107 0 -196 -150l-135 -228h-355zM480 684q0 -90 96 -114q30 -8 65 -8h104l57 266h-127q-195 0 -195 -144z" />
<glyph unicode="&#x451;" horiz-adv-x="1065" d="M61 399q0 271 167 456q176 194 448 194q190 0 288 -89q87 -78 87 -212q0 -67 -33.5 -133t-111.5 -114q-165 -100 -533 -106q-2 -6 -2 -11v-9q0 -116 109 -159q40 -15 88 -15t90.5 6.5t86.5 18.5q95 27 168 69l-49 -236q-163 -84 -364 -84q-219 0 -336 125 q-103 112 -103 299zM333 1311q0 44 12 69t33 42q45 38 95 38t78 -10t49 -28q42 -37 42 -97q0 -93 -90 -128q-28 -11 -62.5 -11t-63.5 11t-50 30q-43 40 -43 84zM393 590q357 -4 357 166q0 37 -27.5 61.5t-74.5 24.5t-87.5 -19t-74.5 -53q-68 -68 -93 -180zM792 1326 q0 29 11.5 54t32.5 42q45 38 94.5 38t77.5 -10t48 -28q43 -37 43 -97q0 -93 -89 -128q-29 -11 -64 -11q-106 0 -143 86q-11 25 -11 54z" />
<glyph unicode="&#x2000;" horiz-adv-x="954" />
<glyph unicode="&#x2001;" horiz-adv-x="1909" />
<glyph unicode="&#x2002;" horiz-adv-x="954" />
<glyph unicode="&#x2003;" horiz-adv-x="1909" />
<glyph unicode="&#x2004;" horiz-adv-x="636" />
<glyph unicode="&#x2005;" horiz-adv-x="477" />
<glyph unicode="&#x2006;" horiz-adv-x="318" />
<glyph unicode="&#x2007;" horiz-adv-x="318" />
<glyph unicode="&#x2008;" horiz-adv-x="238" />
<glyph unicode="&#x2009;" horiz-adv-x="381" />
<glyph unicode="&#x200a;" horiz-adv-x="106" />
<glyph unicode="&#x2010;" horiz-adv-x="827" d="M119 436l47 221h547l-47 -221h-547z" />
<glyph unicode="&#x2011;" horiz-adv-x="827" d="M119 436l47 221h547l-47 -221h-547z" />
<glyph unicode="&#x2012;" horiz-adv-x="827" d="M119 436l47 221h547l-47 -221h-547z" />
<glyph unicode="&#x2013;" horiz-adv-x="1024" d="M-20 436l47 221h1024l-47 -221h-1024z" />
<glyph unicode="&#x2014;" horiz-adv-x="2048" d="M-20 436l47 221h2048l-47 -221h-2048z" />
<glyph unicode="&#x2018;" horiz-adv-x="596" d="M217 1008l213 444h199l-158 -444h-254z" />
<glyph unicode="&#x2019;" horiz-adv-x="596" d="M248 1008l158 444h251l-215 -444h-194z" />
<glyph unicode="&#x201c;" horiz-adv-x="1010" d="M217 1008l213 444h197l-156 -444h-254zM633 1008l213 444h196l-157 -444h-252z" />
<glyph unicode="&#x201d;" horiz-adv-x="1010" d="M248 1008l158 444h251l-215 -444h-194zM662 1008l157 444h252l-215 -444h-194z" />
<glyph unicode="&#x2026;" horiz-adv-x="1872" d="M53 120q0 52 15 84.5t41 55.5q55 47 137 47q76 0 126 -45q50 -44 50 -114q0 -37 -14.5 -68.5t-39.5 -54.5q-54 -48 -137 -48q-75 0 -126 45q-52 46 -52 98zM676 119.5q0 52.5 15 85t41 55.5q53 47 136 47q76 0 126 -45q50 -44 50 -114q0 -37 -14.5 -68.5t-39.5 -54.5 q-54 -48 -136 -48q-76 0 -127 45t-51 97.5zM1298 119.5q0 52.5 15 85t41 55.5q55 47 137 47q75 0 125.5 -45t50.5 -114q0 -37 -15 -68.5t-40 -54.5q-54 -48 -135 -48q-77 0 -128 45t-51 97.5z" />
<glyph unicode="&#x202f;" horiz-adv-x="381" />
<glyph unicode="&#x205f;" horiz-adv-x="477" />
<glyph unicode="&#x20ac;" d="M43 455l35 170h112q4 38 8 78.5t13 80.5h-98l34 168h111q87 233 269 366q192 140 456 140q134 0 238 -36q30 -11 49 -23l-53 -271q-117 97 -244 97q-287 0 -406 -273h475l-36 -168h-502q-17 -74 -23 -159h490l-35 -170h-449q39 -248 279 -248q137 0 281 84l-46 -256 q-137 -60 -270 -60t-225 34.5t-158 97.5q-133 127 -151 348h-154z" />
<glyph unicode="&#x2116;" horiz-adv-x="2491" d="M47 0l303 1434h305q90 -204 178.5 -405.5t136 -309.5t54.5 -126.5t14 -38.5q16 -40 23 -70h4q2 17 6 38t8 43t8 42l7 35q8 35 15 69.5t28.5 134t55.5 261.5t69 327h304l-303 -1434h-277q-94 211 -188 420.5t-145 324t-58.5 134t-14.5 39.5q-17 51 -24 67h-4 q-10 -87 -38 -217l-30 -138q-34 -158 -66.5 -315t-67.5 -315h-303zM1506 261l41 189h809q-33 -159 -40 -189h-810zM1606 935q0 191 114 339q138 179 412 179q187 0 286 -98q95 -94 95 -243q0 -66 -10.5 -124.5t-35 -116t-63.5 -110.5t-97 -93q-127 -89 -315 -89 q-196 0 -296 105q-90 93 -90 251zM1884 957q0 -170 131 -170q106 0 167 103q51 87 51 214q0 59 -32 100t-92.5 41t-102 -29.5t-68.5 -75.5q-54 -90 -54 -183z" />
<glyph unicode="&#xe000;" horiz-adv-x="1025" d="M0 0v1025h1025v-1025h-1025z" />
</font>
</defs>
</svg>
