<?xml version="1.0" standalone="no"?>
<!DOCTYPE svg PUBLIC "-//W3C//DTD SVG 1.1//EN" "http://www.w3.org/Graphics/SVG/1.1/DTD/svg11.dtd" >
<svg xmlns="http://www.w3.org/2000/svg">
<metadata></metadata>
<defs>
<font id="segoe_uiitalic" horiz-adv-x="1104" >
<font-face units-per-em="2048" ascent="1638" descent="-410" />
<missing-glyph horiz-adv-x="563" />
<glyph horiz-adv-x="2048" />
<glyph horiz-adv-x="2048" />
<glyph horiz-adv-x="682" />
<glyph unicode="&#xd;" horiz-adv-x="199" />
<glyph unicode=" "  horiz-adv-x="563" />
<glyph unicode="&#x09;" horiz-adv-x="563" />
<glyph unicode="&#xa0;" horiz-adv-x="563" />
<glyph unicode="!" horiz-adv-x="653" d="M133 92q0 47 23 70q41 41 75.5 41t54.5 -8.5t35 -23.5q33 -33 33 -79q0 -45 -24 -69q-41 -41 -75 -41t-54.5 8.5t-35.5 23.5q-32 32 -32 78zM231 403l201 1031h172l-237 -1031h-136z" />
<glyph unicode="&#x22;" horiz-adv-x="766" d="M274 1434h138l-11 -447h-116zM557 1434h137l-10 -447h-119z" />
<glyph unicode="#" horiz-adv-x="1210" d="M92 520l21 107h264l61 297h-276l20 108h277l84 402h127l-82 -402h250l86 402h123l-82 -402h260l-23 -106h-260l-63 -299h280l-26 -107h-275l-88 -397h-127l86 397h-250l-84 -397h-125l84 397h-262zM500 627h254l63 299h-252z" />
<glyph unicode="$" d="M74 63l28 162q89 -57 230 -90q43 -10 82 -14l114 530q-147 106 -193 165q-89 112 -89 245q0 166 124 275q127 112 328 114l35 166h105l-37 -170q125 -9 246 -60l-29 -153q-116 66 -244 78l-119 -553q134 -99 182 -155q95 -113 95 -222q0 -251 -232 -355q-84 -38 -208 -42 l-43 -193h-103l41 195q-119 6 -254 52q-36 13 -59 25zM414 1065q0 -72 31 -117q46 -66 120 -123l103 488q-121 -8 -190 -83q-64 -68 -64 -165zM522 121q120 9 186 83q56 65 56 154q0 36 -8 62.5t-25 53.5q-32 49 -113 112z" />
<glyph unicode="%" horiz-adv-x="1686" d="M170 1003q0 61 12.5 114.5t36.5 103t58.5 92t78.5 73.5q93 68 209 68q199 0 263 -168q20 -55 20 -132t-28 -157.5t-79 -143.5q-113 -140 -280 -140q-204 0 -267 167q-24 62 -24 123zM190 0l1229 1434h148l-1229 -1434h-148zM305 1008q0 -124 87 -169q30 -16 79 -16 t94.5 28.5t78.5 75t51 106.5t18 110t-8 83.5t-26 59.5q-39 57 -109 57t-117.5 -32t-80.5 -81q-67 -99 -67 -222zM913 258.5q0 98.5 28 178t79 143.5q115 141 289 141q130 0 205 -77q77 -78 77 -223q0 -77 -28 -157.5t-79 -143.5q-112 -140 -280 -140q-156 0 -233 103 q-58 77 -58 175.5zM1049 274q0 -124 86 -168q30 -16 79.5 -16t95 28.5t78 75t50.5 106.5t18 110t-8 83.5t-26 59.5q-39 57 -108.5 57t-117 -32t-80.5 -82q-67 -100 -67 -222z" />
<glyph unicode="&#x26;" horiz-adv-x="1576" d="M51 350q0 255 261 407q80 47 177 84q-78 67 -109 175q-11 39 -11 102.5t33.5 130t90.5 113.5q118 96 292 96q148 0 243 -77q94 -76 94 -192q0 -141 -94 -229q-76 -72 -255 -143q194 -102 318 -369q271 289 287 673h159q-14 -418 -388 -807q51 -102 84 -133 q55 -52 127 -52q57 0 131 28l-33 -155q-52 -25 -115.5 -25t-107.5 17t-80 48q-62 53 -122 169q-260 -234 -557 -234q-200 0 -316 107q-109 101 -109 266zM223 360q0 -111 71 -176t200 -65q69 0 137.5 18t129.5 49q99 49 217 155q-103 243 -248 347q-52 38 -118 69 q-174 -58 -267 -139q-122 -105 -122 -258zM528 1114q0 -152 120 -220q148 51 205 93t83.5 84t26.5 89t-15 76t-40 50q-52 41 -120.5 41t-114.5 -17t-78 -48q-67 -63 -67 -148z" />
<glyph unicode="'" horiz-adv-x="463" d="M268 1434h135l-10 -447h-114z" />
<glyph unicode="(" horiz-adv-x="623" d="M127 354q0 124 37 277.5t105 292.5q127 259 384 510h160q-539 -530 -539 -1121q0 -245 93 -474q30 -74 69 -138h-141q-123 194 -157 450q-11 79 -11 203z" />
<glyph unicode=")" horiz-adv-x="623" d="M-184 -299q540 531 540 1120q0 247 -92 474q-30 74 -69 139h139q123 -197 159 -452q11 -78 11 -201.5t-37 -277.5t-105 -293q-129 -259 -385 -509h-161z" />
<glyph unicode="*" horiz-adv-x="856" d="M172 1104l43 125l262 -99l-22 304h137l-23 -304l262 99l43 -125l-274 -55l191 -244l-111 -76l-156 264l-157 -264l-111 76l193 244z" />
<glyph unicode="+" horiz-adv-x="1403" d="M256 530v134h406v403h131v-403h403v-134h-403v-403h-131v403h-406z" />
<glyph unicode="," horiz-adv-x="446" d="M-78 -264l201 491h164l-236 -491h-129z" />
<glyph unicode="-" horiz-adv-x="819" d="M131 506l29 129h547l-29 -129h-547z" />
<glyph unicode="." horiz-adv-x="446" d="M23 88q0 47 23 70q41 41 87 41q47 0 71 -23q40 -41 40 -88q0 -46 -24 -70q-41 -41 -87 -41q-45 0 -69 24q-41 41 -41 87z" />
<glyph unicode="/" horiz-adv-x="811" d="M-164 -238l1041 1672h167l-1040 -1672h-168z" />
<glyph unicode="0" d="M92 451q0 373 165 673q55 100 128 176q153 158 360 158q163 0 257 -108q96 -111 96 -301q0 -90 -7 -171.5t-22 -164.5t-38.5 -164.5t-56.5 -157.5q-70 -161 -171 -266q-144 -150 -346 -150q-166 0 -264 123q-101 128 -101 353zM260 432.5q0 -73.5 16.5 -136t45.5 -102.5 q56 -79 153 -79q242 0 383 443q74 235 74 475q0 127 -52 206.5t-151 79.5q-210 0 -349 -321q-86 -196 -112 -423q-8 -69 -8 -142.5z" />
<glyph unicode="1" d="M51 0l33 143h324l235 1106l-354 -96l35 158l526 147l-281 -1315h324l-31 -143h-811z" />
<glyph unicode="2" d="M-10 0l30 143l560 469q194 164 251.5 240t79 133.5t21.5 112t-14 92.5t-44 66q-64 63 -182 63q-125 0 -284 -84q-46 -24 -84 -51l38 178q174 96 355 96q190 0 293 -99q90 -88 90 -239q0 -76 -29.5 -152.5t-84.5 -151.5q-95 -127 -314 -306l-439 -358v-5h654l-31 -147 h-866z" />
<glyph unicode="3" d="M35 57l35 156q97 -64 236 -89q48 -9 124 -9t147 25.5t114 67.5q79 76 79 199.5t-88 193t-266 69.5h-109l31 141h119q204 0 317 81q109 77 109 216q0 144 -131 194q-45 17 -101.5 17t-103 -7.5t-87.5 -19.5q-75 -22 -138 -57l34 164q153 59 286 59t204 -28t117 -73.5 t67 -103t21 -123t-22 -130t-69 -116.5q-100 -110 -294 -145v-4q121 -18 196 -104q74 -86 74 -193t-33 -188t-101 -142q-147 -133 -407 -133q-207 0 -360 82z" />
<glyph unicode="4" d="M2 379l25 113l833 942h199l-195 -920h189l-31 -133h-186l-80 -381h-166l80 379h-668zM225 514h473l131 608q4 16 9 35.5t10 39.5t9.5 39t8.5 34h-4q-55 -81 -82 -111z" />
<glyph unicode="5" d="M61 29l37 161q78 -52 212 -70q41 -5 81 -5q206 0 312 120q85 96 85 230q0 262 -301 262q-139 0 -249 -10l151 717h694l-30 -150h-539l-88 -418q58 4 139.5 4t162 -30.5t131.5 -81.5q97 -98 97 -264q0 -201 -126 -345q-151 -174 -451 -174q-134 0 -213.5 21t-104.5 33z " />
<glyph unicode="6" d="M117 481q0 257 95 483t255 353q178 141 405 141q134 0 242 -41l-33 -155q-100 57 -205 57q-183 0 -313 -111q-147 -121 -231 -368q-25 -74 -39 -146h4q86 141 245 188q53 15 126.5 15t140.5 -28t112 -79q91 -103 91 -280q0 -215 -124 -368q-137 -167 -358 -167 q-190 0 -298 125q-115 132 -115 381zM285 426q0 -142 69 -226.5t187 -84.5q138 0 223 118q80 109 80 255q0 63 -14.5 110.5t-44.5 82.5q-64 75 -189 75q-145 0 -232 -105q-79 -95 -79 -225z" />
<glyph unicode="7" d="M139 0l797 1286h-709l31 148h930l-10 -52l-852 -1382h-187z" />
<glyph unicode="8" d="M61 334q0 240 228 364q71 38 157 66q-178 130 -178 311q0 184 137 289q123 94 312 94q179 0 282 -98q93 -88 93 -223q0 -232 -213 -345q-66 -35 -144 -61q122 -67 184 -153t62 -183.5t-30 -169.5t-91 -127q-136 -123 -379 -123q-190 0 -306 101q-114 98 -114 258z M227 342q0 -90 63 -154q74 -73 202 -73q152 0 238 71q83 69 83 181q0 53 -17.5 98t-49.5 83q-64 75 -179 130q-169 -48 -254.5 -127.5t-85.5 -208.5zM436 1089.5q0 -97.5 45 -162.5t123 -116q320 82 320 297q0 55 -15 92.5t-43 63.5q-59 55 -142.5 55t-134.5 -18t-85 -50 q-68 -64 -68 -161.5z" />
<glyph unicode="9" d="M74 16l22 156q100 -57 202 -57q191 0 320 104q150 114 234 350q27 76 43 160h-4q-91 -146 -241 -190q-51 -15 -131.5 -15t-152 38t-114.5 96q-82 110 -82 266q0 202 118 356q135 178 376 178q199 0 306 -142q101 -133 101 -355q0 -395 -201 -688q-206 -298 -561 -298 q-158 0 -235 41zM338 940q0 -183 130 -252q47 -24 122.5 -24t136.5 31t100 80.5t57.5 110t18.5 125t-18 122.5t-51 99q-70 87 -181 87q-143 0 -233 -117q-82 -106 -82 -262z" />
<glyph unicode=":" horiz-adv-x="446" d="M23 88q0 47 23 70q41 41 87 41q47 0 71 -23q40 -41 40 -88q0 -46 -24 -70q-41 -41 -87 -41q-45 0 -69 24q-41 41 -41 87zM201 923.5q0 34.5 8.5 54.5t23.5 36q32 33 78 33q47 0 70.5 -24.5t32 -44.5t8.5 -42.5t-9 -43t-24 -35.5q-32 -32 -78 -32t-69 23q-41 41 -41 75.5z " />
<glyph unicode=";" horiz-adv-x="446" d="M-102 -264l202 491h164l-237 -491h-129zM201 923.5q0 34.5 8.5 54.5t23.5 36q32 33 78 33q47 0 70.5 -24.5t32 -44.5t8.5 -42.5t-9 -43t-24 -35.5q-32 -32 -78 -32t-69 23q-41 41 -41 75.5z" />
<glyph unicode="&#x3c;" horiz-adv-x="1403" d="M238 559v59l860 482v-150l-643 -356v-4l643 -314v-149z" />
<glyph unicode="=" horiz-adv-x="1403" d="M256 317v134h940v-134h-940zM256 743v134h940v-134h-940z" />
<glyph unicode="&#x3e;" horiz-adv-x="1403" d="M330 127v149l643 312v6l-643 354v152l858 -482v-59z" />
<glyph unicode="?" horiz-adv-x="881" d="M193 92q0 47 23 70q41 41 75 41t54 -8.5t35 -23.5q34 -32 34 -79q0 -46 -24 -69q-43 -41 -76.5 -41t-53.5 8.5t-35 23.5q-32 32 -32 78zM268 1235l29 168q131 59 281 59q164 0 258 -96q86 -88 86 -221q0 -178 -148 -317q-50 -47 -111 -89.5t-97.5 -76t-61.5 -70.5 q-48 -71 -72 -189h-151q29 151 68.5 218t81 108.5t103 82.5t105.5 79.5t72 76.5q53 73 53 160q0 129 -120 180q-41 17 -102 17q-141 0 -274 -90z" />
<glyph unicode="@" horiz-adv-x="1966" d="M205 557q0 263 125 474q118 198 328 311q205 112 454 112q341 0 535 -198q178 -180 178 -459q0 -261 -131 -437q-136 -180 -338 -180q-98 0 -156 54q-53 50 -53 131q0 15 1 25l5 28h-4q-123 -236 -311 -236q-109 0 -178 84q-70 86 -70 214.5t38 234.5t103.5 187t153 129 t186.5 48q125 0 183 -77q17 -24 26 -50h4l31 113h131q-9 -31 -24.5 -84.5t-34.5 -118t-38 -134t-35 -132.5q-36 -143 -36 -199t23.5 -79t84 -23t120 42.5t102.5 110.5q92 145 92 324q0 236 -137 388q-157 175 -469 175q-200 0 -374 -97q-270 -150 -356 -460 q-28 -103 -28 -231t39.5 -243.5t120.5 -198.5q171 -175 495 -175q225 0 406 59q49 16 80 31l-25 -126q-172 -80 -463 -80q-367 0 -577 200q-207 198 -207 543zM733 494q0 -138 88 -182q26 -13 71 -13t97 32.5t94 89.5t74 133t48 145t16 128t-40 100.5t-108 41.5 t-130.5 -37.5t-108.5 -102.5q-101 -140 -101 -335z" />
<glyph unicode="A" horiz-adv-x="1294" d="M-104 0l854 1434h176l250 -1434h-177l-65 401h-608l-232 -401h-198zM412 553h495l-92 610q-2 20 -2 41v56h-4q-11 -33 -25 -60l-18 -37z" />
<glyph unicode="B" horiz-adv-x="1174" d="M74 0l303 1434h395q167 0 263 -90q91 -85 91 -221q0 -66 -19 -127.5t-59 -111.5q-85 -109 -247 -139v-4q119 -19 186 -101q62 -76 62 -187t-40.5 -195.5t-112.5 -141.5q-147 -116 -384 -116h-438zM279 152h231q272 0 340 170q22 54 22 120q0 105 -73 165.5t-224 60.5 h-190zM418 819h188q253 0 321 162q21 50 21 111h2q0 131 -120 174q-42 16 -103 16h-209z" />
<glyph unicode="C" horiz-adv-x="1309" d="M137 604q0 379 229 615q231 239 603 239q218 0 393 -90l-37 -172q-169 111 -340.5 111t-292 -53t-204.5 -146q-175 -194 -175 -490q0 -234 127 -364q123 -127 334 -127q174 0 306 61q41 18 79 39l-39 -176q-166 -76 -381 -76q-273 0 -437 173q-165 172 -165 456z" />
<glyph unicode="D" horiz-adv-x="1458" d="M74 0l305 1434h399q284 0 452 -154q81 -75 126 -182.5t45 -228.5t-21.5 -226t-66 -200t-114.5 -176t-167 -141q-206 -126 -504 -126h-454zM276 152h267q326 0 509 202q173 190 173 488q0 210 -123 325t-365 115h-219z" />
<glyph unicode="E" horiz-adv-x="1022" d="M74 0l303 1434h727l-33 -152h-553l-104 -489h512l-33 -152h-512l-105 -489h588l-30 -152h-760z" />
<glyph unicode="F" horiz-adv-x="1001" d="M74 0l303 1434h727l-33 -156h-553l-106 -490h514l-33 -155h-514l-133 -633h-172z" />
<glyph unicode="G" horiz-adv-x="1409" d="M137 610q0 364 212 598q225 250 616 250q235 0 417 -94l-32 -174q-176 117 -406 117q-289 0 -464 -197q-167 -189 -167 -481q0 -234 126 -368t343 -134q131 0 248 45l86 418h-332l33 149h504l-141 -661q-198 -105 -418 -105q-287 0 -460 183q-165 176 -165 454z" />
<glyph unicode="H" horiz-adv-x="1450" d="M74 0l303 1434h174l-135 -629h733l135 629h172l-305 -1434h-172l137 647h-733l-135 -647h-174z" />
<glyph unicode="I" horiz-adv-x="545" d="M74 0l303 1434h174l-305 -1434h-172z" />
<glyph unicode="J" horiz-adv-x="709" d="M-106 10l28 160q55 -45 123 -45t114 19.5t83 63.5q78 92 120 292l197 934h172l-196 -926q-86 -400 -303 -498q-76 -35 -173 -35q-59 0 -107.5 14.5t-57.5 20.5z" />
<glyph unicode="K" horiz-adv-x="1228" d="M74 0l303 1434h174l-143 -674h4q22 24 47 49l659 625h228l-773 -711l498 -723h-209l-434 653q-6 11 -15 27t-14 27h-4l-149 -707h-172z" />
<glyph unicode="L" horiz-adv-x="948" d="M74 0l303 1434h174l-272 -1278h571l-33 -156h-743z" />
<glyph unicode="M" horiz-adv-x="1675" d="M74 0l304 1434h200l227 -682q30 -89 34 -152h6q52 97 98 156l515 678h222l-304 -1434h-167l204 962q25 120 75 285h-4q-29 -59 -74 -120.5t-52 -72.5l-513 -680h-82l-224 678q-2 12 -9.5 34.5t-14.5 49.5q-18 71 -18 111h-4q-12 -86 -53 -287l-204 -960h-162z" />
<glyph unicode="N" horiz-adv-x="1538" d="M74 0l303 1434h201l507 -1125q13 -22 37 -96h4q1 12 3 28t4 33.5t5 34.5t5 29l233 1096h170l-305 -1434h-186l-529 1149q-22 58 -26 88h-6q-6 -59 -15 -109l-239 -1128h-166z" />
<glyph unicode="O" horiz-adv-x="1544" d="M137 586q0 403 256 659q213 213 518 213q262 0 420 -171q75 -81 115.5 -192t40.5 -223.5t-17 -204t-49 -176.5q-93 -248 -288 -389q-176 -127 -414 -127q-265 0 -427 175q-155 167 -155 436zM313 573q0 -89 27.5 -173t79.5 -144q112 -129 307 -129q235 0 391 176 q138 156 179 403q12 73 12 160t-29 172t-83 145q-112 124 -300 124q-225 0 -391 -181q-137 -150 -180 -388q-13 -76 -13 -165z" />
<glyph unicode="P" horiz-adv-x="1178" d="M74 0l303 1434h371q216 0 330 -116q98 -100 98 -278q0 -89 -36 -182.5t-110 -163.5q-158 -151 -452 -151h-218l-114 -543h-172zM393 694h201q203 0 308 100q97 90 97 238q0 64 -18.5 108.5t-54.5 75.5q-75 66 -213 66h-195z" />
<glyph unicode="Q" horiz-adv-x="1544" d="M137 582q0 489 355 746q179 130 423 130q259 0 419 -173q153 -167 153 -437q0 -298 -148 -530q-158 -246 -430 -318q88 -123 140 -162q92 -69 202 -69q82 0 149 25l-34 -162q-78 -20 -166.5 -20t-158.5 28.5t-126.5 78t-104.5 115.5t-99 142q-269 6 -427 183 q-147 165 -147 423zM313 614q0 -131 27.5 -214.5t79.5 -143.5q112 -129 307 -129q234 0 389 174q193 217 193 559q0 89 -28.5 174.5t-81.5 146.5q-109 126 -298 126q-109 0 -211 -46t-188 -140t-137.5 -235t-51.5 -272z" />
<glyph unicode="R" horiz-adv-x="1192" d="M74 0l303 1434h395q200 0 303 -104q94 -95 94 -261q0 -83 -32.5 -158t-89.5 -129q-117 -111 -308 -127v-4q96 -31 140 -192l120 -459h-184l-106 428q-45 182 -207 182h-125l-131 -610h-172zM408 762h198q195 0 298 91q89 78 89 203q0 53 -15 93.5t-46 70.5 q-66 62 -193 62h-221z" />
<glyph unicode="S" horiz-adv-x="1018" d="M37 66l29 174q107 -77 255 -104q49 -9 111 -9t116.5 18t89.5 49q69 61 69 168q0 84 -57 152q-46 54 -137 118.5t-135.5 105t-77.5 88.5q-73 104 -73 206.5t30.5 176t90.5 129.5q130 120 354 120q165 0 322 -65l-33 -174q-82 59 -216 81q-43 7 -104 7t-115.5 -22.5 t-87.5 -56.5q-62 -65 -62 -153q0 -126 119 -228q41 -35 99.5 -77.5t107 -86.5t82.5 -91q69 -94 69 -209q0 -148 -88 -259q-118 -149 -387 -149q-206 0 -371 91z" />
<glyph unicode="T" horiz-adv-x="1077" d="M195 1282l32 152h996l-33 -152h-408l-270 -1282h-172l272 1282h-417z" />
<glyph unicode="U" horiz-adv-x="1411" d="M168 430q0 92 20 199l174 805h173l-173 -795q-24 -138 -24 -207.5t24 -128.5t66 -98q86 -78 225 -78q171 0 270 99q100 100 148 319l191 889h172l-187 -871q-64 -299 -193 -434q-146 -154 -421 -154q-217 0 -344 131q-121 125 -121 324z" />
<glyph unicode="V" horiz-adv-x="1286" d="M213 1434h174l158 -1123q8 -46 8 -86q0 -20 -2 -39h4q15 40 25 59l18 35q9 17 16 31l641 1123h193l-852 -1434h-168z" />
<glyph unicode="W" horiz-adv-x="1903" d="M197 1434h178l74 -1092q1 -19 1 -39q0 -53 -8 -104h4q29 81 60 143l557 1092h154l90 -1100q3 -23 3 -51q0 -37 -5 -84h4q24 77 55 139l526 1096h187l-715 -1434h-178l-92 1063q-1 11 -1 25q0 43 7 118h-4q-28 -91 -56 -141l-544 -1065h-183z" />
<glyph unicode="X" horiz-adv-x="1210" d="M-88 0q569 651 639 733q-13 39 -98 231.5t-110 249.5t-45 103.5t-33.5 77.5t-16.5 39h198l203 -535q8 -18 12 -32.5t7 -24.5t4 -17h4q26 52 47 76l440 533h201l-606 -715q5 -17 39 -97t59.5 -140.5t52 -123t52 -122.5t46.5 -109.5t35.5 -83t18.5 -43.5h-195l-213 549 q-10 25 -14 46t-6 28h-4q-28 -57 -47 -78l-455 -545h-215z" />
<glyph unicode="Y" horiz-adv-x="1135" d="M211 1434h182l178 -660q7 -25 19 -86h2q12 25 51 84l477 662h193l-662 -889l-114 -545h-172l114 541z" />
<glyph unicode="Z" horiz-adv-x="1167" d="M-78 0l10 51l1074 1231h-744l31 152h1026l-10 -43l-1082 -1239h799l-33 -152h-1071z" />
<glyph unicode="[" horiz-adv-x="623" d="M35 -326l375 1760h368l-26 -119h-222l-323 -1522h221l-25 -119h-368z" />
<glyph unicode="\" horiz-adv-x="791" d="M158 1434h147l344 -1674h-143z" />
<glyph unicode="]" horiz-adv-x="623" d="M-152 -326l25 119h221l324 1520h-221l24 121h369l-375 -1760h-367z" />
<glyph unicode="^" horiz-adv-x="1403" d="M262 625l422 833h66l456 -833h-151l-332 618h-6l-307 -618h-148z" />
<glyph unicode="_" horiz-adv-x="850" d="M-172 -297l25 119h849l-24 -119h-850z" />
<glyph unicode="`" horiz-adv-x="715" d="M289 1546h153l207 -327h-121z" />
<glyph unicode="a" horiz-adv-x="1110" d="M78 356q0 235 128 434q103 158 285 224q96 35 199 35q154 0 357 -41l-142 -680q-41 -195 -41 -328h-170q6 128 23 215h-4q-76 -120 -124 -161q-94 -79 -210 -79q-138 0 -218 95q-83 99 -83 286zM246 362q0 -247 176 -247t300 255q46 94 71 208l65 311q-88 20 -172.5 20 t-151 -27.5t-115.5 -72t-82.5 -102.5t-53.5 -119q-37 -111 -37 -226z" />
<glyph unicode="b" horiz-adv-x="1110" d="M63 68l308 1448h166l-103 -490q-11 -49 -22.5 -103t-22.5 -96h2q139 222 338 222q146 0 224.5 -100t78.5 -283q0 -243 -138 -447q-101 -149 -272 -211q-88 -33 -167 -33t-128 6.5t-96 18.5q-101 26 -168 68zM250 160q81 -45 172 -45t150 23.5t106 64.5t82 95t58 114 q46 122 46 250q0 247 -186 247q-121 0 -227 -135q-101 -128 -134 -295z" />
<glyph unicode="c" horiz-adv-x="893" d="M78 393q0 264 150 454q100 126 254 177q78 25 145 25t106 -6t71 -16q64 -20 97 -44l-37 -162q-100 88 -233 88q-190 0 -297 -180q-90 -151 -90 -308.5t63 -231.5t172 -74q127 0 271 98l-35 -164q-137 -74 -248.5 -74t-181 32t-115.5 88q-92 112 -92 298z" />
<glyph unicode="d" horiz-adv-x="1110" d="M78 358q0 256 146 457q105 144 277 203q89 31 187 31t199 -23l104 490h162l-252 -1201q-19 -87 -28 -190t-9 -125h-170q0 73 23 211h-4q-77 -124 -148 -177q-81 -59 -167.5 -59t-142.5 25t-95 74q-82 100 -82 284zM246 365q0 -250 178 -250q177 0 300 261q46 97 71 212 l63 297q-83 24 -169 24t-152.5 -27t-116 -72t-83 -102.5t-53.5 -117.5q-38 -111 -38 -225z" />
<glyph unicode="e" horiz-adv-x="997" d="M78 399q0 269 164 461q103 120 246 166q71 23 148.5 23t138 -21t101 -57.5t61.5 -84.5t21 -115.5t-36 -134t-119 -114.5q-172 -98 -555 -100q-2 -11 -2 -22v-21q0 -183 142 -243q50 -21 118 -21q153 0 309 102l-31 -162q-138 -80 -276 -80t-215.5 35t-124.5 94 q-90 110 -90 295zM264 559q408 0 498 125q29 41 29 98t-46.5 92t-115.5 35t-126 -26.5t-105 -72.5q-102 -99 -134 -251z" />
<glyph unicode="f" horiz-adv-x="604" d="M10 -340l264 1225h-176l31 139h176l41 190q70 326 371 326q71 0 133 -20l-27 -146q-54 27 -128.5 27t-119 -53.5t-67.5 -159.5l-37 -164h242l-33 -139h-242l-262 -1225h-166z" />
<glyph unicode="g" horiz-adv-x="1110" d="M-35 -403l31 153q149 -90 287 -90q249 0 347 226q31 73 52 167l35 160h-4q-114 -184 -235 -223q-44 -15 -105 -15t-117 24.5t-96 72.5q-82 100 -82 286q0 279 166 480q111 132 272 184q81 27 174 27q154 0 357 -39l-197 -936q-55 -266 -174 -398q-143 -157 -408 -157 q-157 0 -303 78zM246 365q0 -177 92 -231q33 -19 84 -19t97.5 23t85.5 61t69.5 86.5t53.5 99.5q43 92 65 190l65 314q-85 20 -182.5 20t-175.5 -43.5t-134 -117.5q-120 -158 -120 -383z" />
<glyph unicode="h" horiz-adv-x="1141" d="M49 0l324 1516h164l-156 -732h4q122 187 279 245q54 20 112 20q128 0 194 -75.5t66 -207.5q0 -77 -32 -205l-119 -561h-166l125 600q22 88 22 145q0 164 -145 164q-123 0 -247 -135q-119 -128 -152 -278l-107 -496h-166z" />
<glyph unicode="i" horiz-adv-x="530" d="M96 172q0 48 21 143l149 709h166l-150 -713q-16 -75 -16 -104q0 -84 94 -84q48 0 82 12l-26 -131q-56 -18 -138 -18t-132 50.5t-50 135.5zM318 1389q0 46 32.5 75t76.5 29t75 -29.5t31 -74.5t-30.5 -77t-75 -32t-77 31.5t-32.5 77.5z" />
<glyph unicode="j" horiz-adv-x="492" d="M-391 -451l29 154q68 -45 133 -45q208 0 282 358l215 1008h164l-207 -977q-55 -264 -170.5 -396t-298.5 -132q-83 0 -147 30zM318 1389q0 46 32.5 75t76.5 29t75 -29.5t31 -74.5t-30.5 -77t-75 -32t-77 31.5t-32.5 77.5z" />
<glyph unicode="k" horiz-adv-x="1004" d="M49 0l324 1516h164l-197 -926h4l510 434h213l-569 -473l362 -551h-190l-336 541h-4l-115 -541h-166z" />
<glyph unicode="l" horiz-adv-x="530" d="M96 172q0 48 21 143l256 1202h166l-257 -1206q-16 -75 -16 -104q0 -84 94 -84q48 0 82 12l-26 -131q-56 -18 -138 -18t-132 50.5t-50 135.5z" />
<glyph unicode="m" horiz-adv-x="1757" d="M49 0l158 731q33 161 51 293h160q-5 -39 -12 -81.5t-12.5 -81.5t-12.5 -79h4q117 189 265 247q51 20 110.5 20t105.5 -19t76 -54q60 -66 66 -192q175 265 389 265q128 0 192 -74.5t64 -208.5q0 -40 -33 -205l-121 -561h-164l125 600q23 98 23 145q0 164 -140 164 q-112 0 -231 -135q-116 -130 -147 -272l-107 -502h-166l127 600q23 98 23 145q0 164 -140 164q-115 0 -234 -137q-115 -130 -146 -272l-107 -500h-166z" />
<glyph unicode="n" horiz-adv-x="1151" d="M57 0l158 731q33 161 51 293h160q-5 -39 -12 -81.5t-12.5 -81.5t-12.5 -79h4q119 187 275 246q55 21 119.5 21t113.5 -20.5t81.5 -57.5t48 -89t15.5 -90.5t-3.5 -64.5t-8.5 -56q-16 -86 -22 -110l-119 -561h-166l125 600q22 88 22 154.5t-36.5 110.5t-105.5 44t-134 -39 t-120 -99q-118 -129 -148 -271l-107 -500h-166z" />
<glyph unicode="o" horiz-adv-x="1096" d="M78 379q0 286 154 477q158 193 403 193q175 0 278 -109q105 -110 105 -316q0 -115 -38.5 -237t-111.5 -213q-157 -199 -409 -199q-176 0 -279 109q-102 108 -102 295zM246 387q0 -124 60 -199q59 -73 155.5 -73t167.5 44.5t120 118t75 167.5t26 175.5t-16 132t-45 85.5 q-60 71 -155 71t-166 -45t-120 -118q-102 -154 -102 -359z" />
<glyph unicode="p" horiz-adv-x="1110" d="M-57 -475l250 1184q18 84 26 188.5t8 126.5h168q0 -71 -24 -215h4q141 240 354 240q219 0 282 -216q21 -72 21 -156.5t-16 -164t-49 -156.5t-82.5 -146t-116.5 -122q-145 -113 -340 -113q-111 0 -217 37l-102 -487h-166zM240 152q83 -37 177 -37t152.5 23t105 62.5t82 93 t59.5 114t36 125t12 122.5t-9.5 104t-31.5 79q-47 71 -141 71q-182 0 -310 -261q-49 -101 -69 -199z" />
<glyph unicode="q" horiz-adv-x="1110" d="M78 344.5q0 79.5 13.5 156.5t44 154t79 148t118.5 125q155 121 374 121q162 0 340 -48l-312 -1476h-166l101 473q17 91 45 199h-2q-145 -222 -332 -222q-217 0 -282 219q-21 71 -21 150.5zM246 365q0 -250 178 -250q141 0 249 164q86 131 120 296l65 310q-93 24 -174 24 t-147 -27t-115.5 -71.5t-83 -101.5t-54.5 -117q-38 -114 -38 -227z" />
<glyph unicode="r" horiz-adv-x="727" d="M51 0l144 680q45 211 57 344h162q-7 -73 -29 -225h4q69 123 120 169q91 81 181 81q43 0 105 -17l-29 -182h-4q-58 35 -116.5 35t-111.5 -37.5t-96 -99.5q-88 -124 -127 -302l-96 -446h-164z" />
<glyph unicode="s" horiz-adv-x="809" d="M16 37l33 156q71 -50 185 -71q38 -7 75 -7q100 0 149.5 40t49.5 111q0 53 -26 83q-41 48 -140 107q-195 117 -195 279q0 131 91 219q100 95 276 95q144 0 246 -50l-35 -155q-101 65 -204 65t-154.5 -43t-51.5 -114q0 -55 28 -87q36 -43 122 -96q112 -65 161.5 -133.5 t49.5 -140.5t-21.5 -127.5t-68.5 -97.5q-105 -95 -303 -95q-105 0 -173.5 23.5t-93.5 38.5z" />
<glyph unicode="t" horiz-adv-x="662" d="M98 885l31 139h168l53 250q4 2 30.5 9.5t57.5 16.5q85 26 88 27l-63 -303h258l-31 -139h-258l-115 -543q-18 -93 -18 -134q0 -87 94 -87q41 0 144 41l-31 -144q-84 -36 -164 -36q-211 0 -211 208q0 62 19 138l118 557h-170z" />
<glyph unicode="u" horiz-adv-x="1143" d="M98 258q0 43 15.5 113.5t19.5 91.5l119 561h166l-127 -600q-23 -92 -23 -156t36.5 -108.5t95 -44.5t102.5 18t85.5 48.5t78.5 71t67 85.5q61 93 82 186l107 500h165l-157 -733q-9 -39 -16.5 -81t-14.5 -81q-10 -56 -20 -129h-160q9 69 20 135.5t17 106.5h-4 q-119 -187 -274 -246q-56 -21 -119 -21t-112.5 20.5t-82.5 57.5q-66 74 -66 205z" />
<glyph unicode="v" horiz-adv-x="969" d="M137 1024h166l90 -645q15 -95 15 -184h4q39 88 94 184l366 645h187l-621 -1024h-139z" />
<glyph unicode="w" horiz-adv-x="1475" d="M125 1024h158l49 -766q1 -13 1 -28q0 -30 -5 -68h6q25 72 39 100l399 762h146l57 -768q1 -9 1 -19q0 -31 -7 -77h8q8 40 37 98l368 766h166l-524 -1024h-162l-59 727q-1 9 -1 23q0 37 5 77h-4q-12 -40 -43 -102l-383 -725h-162z" />
<glyph unicode="x" horiz-adv-x="932" d="M-86 0l461 510l-230 514h181l123 -326q12 -32 32 -96h4q8 9 24 31q29 38 44 55l278 336h187l-459 -524l236 -500l-181 -2l-129 321q-9 24 -36 93h-5q-7 -10 -16.5 -22.5t-18.5 -24.5t-17.5 -22.5t-14.5 -18.5l-268 -324h-195z" />
<glyph unicode="y" horiz-adv-x="991" d="M-160 -467l31 145q34 -18 94 -18q124 0 221 154l123 190l-186 1020h170l119 -786q4 -28 4 -50q0 -15 -2 -28h6q19 45 39 76l454 788h181l-727 -1194q-144 -235 -301 -290q-59 -21 -106 -21q-72 0 -120 14z" />
<glyph unicode="z" horiz-adv-x="926" d="M-78 0l12 53l768 832h-534l31 139h792l-10 -49l-768 -836h582l-31 -139h-842z" />
<glyph unicode="{" horiz-adv-x="623" d="M72 504l26 114q83 5 131.5 54.5t71.5 156.5l61 289q54 255 248 301q59 14 125 15l-26 -125q-77 0 -127.5 -45t-73.5 -152l-62 -283q-49 -228 -196 -274v-4q90 -45 90 -178q0 -51 -10 -94l-56 -259q-12 -62 -12 -107q0 -97 129 -103l-26 -121q-190 3 -236 133 q-14 40 -14 75q0 55 10 101l61 285q9 38 9 79q0 132 -123 142z" />
<glyph unicode="|" horiz-adv-x="492" d="M174 -481v2048h145v-2048h-145z" />
<glyph unicode="}" horiz-adv-x="623" d="M-111 -309l25 123q78 1 129 46t74 152l59 281q52 231 199 276v4q-92 46 -92 179q0 42 10 94l55 258q12 50 12 100q0 105 -127 109l25 121q191 -3 236 -132q14 -40 14 -74q0 -56 -10 -102l-60 -284q-10 -46 -10 -80q0 -135 123 -141l-27 -117q-123 -6 -174 -118 q-17 -39 -28 -93l-62 -287q-54 -255 -246 -301q-59 -14 -125 -14z" />
<glyph unicode="~" horiz-adv-x="1403" d="M225 440q10 219 163 287q51 23 103.5 23t85.5 -7.5t61 -20.5q43 -18 115 -67.5t94 -60.5q46 -23 84 -23t63 13t42 37q37 50 39 129h135q-10 -218 -160 -286q-52 -24 -105.5 -24t-87.5 8.5t-65 23.5q-38 18 -90 53.5t-71.5 47t-40.5 21.5q-45 22 -84 22q-138 0 -146 -176 h-135z" />
<glyph unicode="&#xa2;" d="M190 573q0 308 195 508q132 132 342 146l39 186h127l-39 -190q132 -17 184 -58l-39 -172q-66 73 -176 90l-166 -780q113 11 228 96l-33 -168q-102 -64 -225 -73l-43 -207h-127l43 211q-146 25 -230 140q-80 110 -80 271zM362 613q0 -249 170 -298l164 764 q-165 -33 -258 -195q-76 -132 -76 -271z" />
<glyph unicode="&#xa3;" d="M10 0l31 135q233 66 285 314l39 186h-197l29 141h198l56 260q45 208 169 318q119 104 293 104q133 0 220 -41l-33 -155q-89 57 -197 57q-229 0 -295 -315l-49 -228h297l-31 -141h-295l-41 -184q-45 -222 -237 -312h688l-29 -139h-901z" />
<glyph unicode="&#xa5;" d="M84 293l29 139h342l43 207h-342l30 139h291l-213 656h174l146 -525q20 -70 26 -110h6q21 43 74 116l359 519h190l-498 -656h285l-29 -139h-335l-44 -207h334l-28 -139h-334l-64 -293h-164l64 293h-342z" />
<glyph unicode="&#xad;" horiz-adv-x="819" d="M131 506l29 129h547l-29 -129h-547z" />
<glyph unicode="&#x192;" d="M57 -256l17 145q39 -26 78.5 -26t67.5 13t52 46q50 68 84 236l136 628h-119l30 140h115l47 219q44 206 208 269q54 20 106 20q91 0 163 -25l-28 -149q-57 34 -116 34t-104.5 -39t-64.5 -120l-45 -209h174l-31 -138h-172l-139 -649q-71 -337 -235 -397q-51 -18 -85 -18 t-49 1t-31 3q-37 6 -59 16z" />
<glyph unicode="&#x401;" horiz-adv-x="1022" d="M74 0l303 1434h727l-33 -152h-553l-104 -489h512l-33 -152h-512l-105 -489h588l-30 -152h-760zM481 1665q0 65 61 91q18 7 38 7t38.5 -7.5t31.5 -21.5q30 -29 30 -69t-22 -61q-36 -37 -67 -37t-49 7.5t-32 20.5q-29 28 -29 70zM868 1654q0 32 8 50t21 31q28 28 58 28 t48.5 -7.5t32 -21t21.5 -31t8 -49t-29 -59.5t-69.5 -28t-69.5 27.5t-29 59.5z" />
<glyph unicode="&#x410;" horiz-adv-x="1294" d="M-104 0l854 1434h176l250 -1434h-177l-65 401h-608l-232 -401h-198zM412 553h495l-92 610q-2 20 -2 41v56h-4q-11 -33 -25 -60l-18 -37z" />
<glyph unicode="&#x411;" horiz-adv-x="1171" d="M74 0l303 1434h774l-33 -156h-601l-97 -454h228q203 0 320 -102q117 -103 117 -276q0 -323 -314 -416q-104 -30 -241 -30h-456zM279 152h248q378 0 378 281q0 114 -73.5 177t-226.5 63h-218z" />
<glyph unicode="&#x412;" horiz-adv-x="1174" d="M74 0l303 1434h395q167 0 263 -90q91 -85 91 -221q0 -66 -19 -127.5t-59 -111.5q-85 -109 -247 -139v-4q119 -19 186 -101q62 -76 62 -187t-40.5 -195.5t-112.5 -141.5q-147 -116 -384 -116h-438zM279 152h231q272 0 340 170q22 54 22 120q0 105 -73 165.5t-224 60.5 h-190zM418 819h188q253 0 321 162q21 50 21 111h2q0 131 -120 174q-42 16 -103 16h-209z" />
<glyph unicode="&#x413;" horiz-adv-x="967" d="M73 0l305 1434h744l-33 -156h-572l-272 -1278h-172z" />
<glyph unicode="&#x414;" horiz-adv-x="1429" d="M-151 -379l113 531h114q321 284 497 874q56 188 108 408h696l-271 -1282h213l-114 -531h-160l82 379h-1038l-80 -379h-160zM286 152h648l238 1126h-371q-87 -342 -153 -513.5t-117 -271.5q-113 -222 -245 -341z" />
<glyph unicode="&#x415;" horiz-adv-x="1022" d="M74 0l303 1434h727l-33 -152h-553l-104 -489h512l-33 -152h-512l-105 -489h588l-30 -152h-760z" />
<glyph unicode="&#x416;" horiz-adv-x="1673" d="M-115 0l750 745l-404 689h193l352 -639q3 -7 9.5 -19.5t9.5 -23.5h4l145 682h162l-143 -676h4q7 13 41 47l616 629h205l-707 -701l430 -733h-202l-373 674q-6 12 -9.5 23t-6.5 20h-5l-153 -717h-162l150 711h-5q-19 -26 -36 -43l-650 -668h-215z" />
<glyph unicode="&#x417;" horiz-adv-x="1071" d="M-25 65l35 166q123 -79 286 -107q55 -9 135 -9t151 27t114 70q80 79 80 204q0 253 -332 253h-147l31 145h145q317 0 394 176q24 55 24 107.5t-13 90t-42 66.5q-63 65 -187 65q-164 0 -354 -98l29 163q166 74 360 74q193 0 292 -103q85 -87 85 -224q0 -62 -21 -125.5 t-66 -117.5q-97 -117 -284 -147v-4q119 -23 188 -112q66 -86 66 -209q0 -173 -118 -294q-144 -147 -429 -147q-250 0 -422 90z" />
<glyph unicode="&#x418;" horiz-adv-x="1520" d="M74 0l303 1434h163l-213 -1016q-16 -67 -32 -127h4q18 23 37 44l30 34q13 14 23 24l977 1041h160l-304 -1434h-163l213 1008q21 97 37 157h-4q-17 -25 -93 -108l-989 -1057h-149z" />
<glyph unicode="&#x419;" horiz-adv-x="1520" d="M74 0l303 1434h163l-213 -1016q-16 -67 -32 -127h4q18 23 37 44l30 34q13 14 23 24l977 1041h160l-304 -1434h-163l213 1008q21 97 37 157h-4q-17 -25 -93 -108l-989 -1057h-149zM655 1871h163q9 -188 162 -188h2q155 0 218 188h167q-76 -210 -248 -279q-64 -25 -145 -25 q-153 0 -238 92q-74 80 -81 212z" />
<glyph unicode="&#x41a;" horiz-adv-x="1228" d="M74 0l303 1434h174l-143 -674h4q22 24 47 49l659 625h228l-773 -711l498 -723h-209l-434 653q-6 11 -15 27t-14 27h-4l-149 -707h-172z" />
<glyph unicode="&#x41b;" horiz-adv-x="1370" d="M-104 -2l32 154q32 -19 78.5 -19t79 13.5t62.5 43.5q101 101 298 654q114 317 205 590h725l-305 -1434h-172l272 1278h-408q-28 -81 -58.5 -170t-62.5 -179t-63.5 -177.5t-61.5 -167.5q-66 -176 -105 -260.5t-77.5 -148t-84.5 -106.5q-92 -87 -230 -87q-78 0 -124 16z " />
<glyph unicode="&#x41c;" horiz-adv-x="1675" d="M74 0l304 1434h200l227 -682q30 -89 34 -152h6q52 97 98 156l515 678h222l-304 -1434h-167l204 962q25 120 75 285h-4q-29 -59 -74 -120.5t-52 -72.5l-513 -680h-82l-224 678q-2 12 -9.5 34.5t-14.5 49.5q-18 71 -18 111h-4q-12 -86 -53 -287l-204 -960h-162z" />
<glyph unicode="&#x41d;" horiz-adv-x="1450" d="M74 0l303 1434h174l-135 -629h733l135 629h172l-305 -1434h-172l137 647h-733l-135 -647h-174z" />
<glyph unicode="&#x41e;" horiz-adv-x="1544" d="M137 586q0 403 256 659q213 213 518 213q262 0 420 -171q75 -81 115.5 -192t40.5 -223.5t-17 -204t-49 -176.5q-93 -248 -288 -389q-176 -127 -414 -127q-265 0 -427 175q-155 167 -155 436zM313 573q0 -89 27.5 -173t79.5 -144q112 -129 307 -129q235 0 391 176 q138 156 179 403q12 73 12 160t-29 172t-83 145q-112 124 -300 124q-225 0 -391 -181q-137 -150 -180 -388q-13 -76 -13 -165z" />
<glyph unicode="&#x41f;" horiz-adv-x="1478" d="M73 0l303 1434h1108l-303 -1434h-173l272 1276h-765l-271 -1276h-171z" />
<glyph unicode="&#x420;" horiz-adv-x="1178" d="M74 0l303 1434h371q216 0 330 -116q98 -100 98 -278q0 -89 -36 -182.5t-110 -163.5q-158 -151 -452 -151h-218l-114 -543h-172zM393 694h201q203 0 308 100q97 90 97 238q0 64 -18.5 108.5t-54.5 75.5q-75 66 -213 66h-195z" />
<glyph unicode="&#x421;" horiz-adv-x="1309" d="M137 604q0 379 229 615q231 239 603 239q218 0 393 -90l-37 -172q-169 111 -340.5 111t-292 -53t-204.5 -146q-175 -194 -175 -490q0 -234 127 -364q123 -127 334 -127q174 0 306 61q41 18 79 39l-39 -176q-166 -76 -381 -76q-273 0 -437 173q-165 172 -165 456z" />
<glyph unicode="&#x422;" horiz-adv-x="1077" d="M195 1282l32 152h996l-33 -152h-408l-270 -1282h-172l272 1282h-417z" />
<glyph unicode="&#x423;" horiz-adv-x="1133" d="M-18 12l32 158q66 -43 129 -43t103 17t79 52q66 58 169 210l-256 1028h182l164 -727l6 -33q4 -17 7 -36t6 -36.5t5 -32.5h4q47 87 72 125l459 740h192l-671 -1043q-152 -235 -224 -300t-136 -90.5t-117.5 -25.5t-79.5 3t-49 8q-50 12 -76 26z" />
<glyph unicode="&#x424;" horiz-adv-x="1622" d="M129 655q0 263 161 443q177 196 480 196h119l33 158h163l-34 -158h63q209 0 333 -124q60 -60 93 -147t33 -182.5t-18 -173.5t-53.5 -148.5t-89 -130t-124.5 -102.5q-149 -93 -352 -93h-117l-45 -211h-166l45 211h-63q-212 0 -335 123q-126 126 -126 339zM308 668 q0 -245 186 -305q59 -19 132 -19h59l168 798h-88q-216 0 -340 -136q-117 -128 -117 -338zM851 344h88q215 0 340 136q117 129 117 330q0 92 -22 153t-63 101q-81 78 -233 78h-59z" />
<glyph unicode="&#x425;" horiz-adv-x="1210" d="M-88 0q569 651 639 733q-13 39 -98 231.5t-110 249.5t-45 103.5t-33.5 77.5t-16.5 39h198l203 -535q8 -18 12 -32.5t7 -24.5t4 -17h4q26 52 47 76l440 533h201l-606 -715q5 -17 39 -97t59.5 -140.5t52 -123t52 -122.5t46.5 -109.5t35.5 -83t18.5 -43.5h-195l-213 549 q-10 25 -14 46t-6 28h-4q-28 -57 -47 -78l-455 -545h-215z" />
<glyph unicode="&#x426;" horiz-adv-x="1509" d="M74 0l303 1434h172l-272 -1276h750l271 1276h172l-271 -1276h190l-113 -537h-160l82 379h-1124z" />
<glyph unicode="&#x427;" horiz-adv-x="1345" d="M229 793q0 52 17 120l108 521h172l-110 -516q-13 -65 -13 -99q0 -74 51 -117t155 -43q174 0 433 125l137 650h172l-303 -1434h-172l136 639q-254 -127 -447 -127q-173 0 -259 81q-77 72 -77 200z" />
<glyph unicode="&#x428;" horiz-adv-x="1851" d="M74 0l303 1434h172l-271 -1276h492l268 1276h174l-268 -1276h491l271 1276h172l-303 -1434h-1501z" />
<glyph unicode="&#x429;" horiz-adv-x="1919" d="M74 0l303 1434h172l-272 -1276h492l271 1276h172l-269 -1276h491l272 1276h172l-272 -1276h193l-114 -537h-161l81 379h-1531z" />
<glyph unicode="&#x42a;" horiz-adv-x="1447" d="M216 1278l34 156h576l-131 -610h219q205 0 324 -98q123 -101 123 -286q0 -99 -37 -183.5t-108 -141.5q-143 -115 -410 -115h-456l270 1278h-404zM554 152h244q286 0 357 156q25 54 25 131q0 113 -76 173.5t-228 60.5h-213z" />
<glyph unicode="&#x42b;" horiz-adv-x="1622" d="M74 0l303 1434h174l-132 -610h178q202 0 320 -102.5t118 -275.5q0 -323 -314 -416q-104 -30 -241 -30h-406zM279 152h198q378 0 378 281q0 114 -74 177t-227 63h-168zM1153 0l303 1434h172l-303 -1434h-172z" />
<glyph unicode="&#x42c;" horiz-adv-x="1171" d="M74 0l303 1434h173l-130 -610h228q203 0 320 -102q117 -103 117 -276q0 -323 -314 -416q-104 -30 -241 -30h-456zM279 152h248q378 0 378 281q0 114 -73.5 177t-226.5 63h-218z" />
<glyph unicode="&#x42d;" horiz-adv-x="1282" d="M27 43l34 167q162 -84 336 -84q228 0 401 134q184 141 232 385h-655l30 151h644q6 34 6 106t-28.5 149t-84.5 134q-122 123 -338 123q-175 0 -336 -74l33 167q149 57 310.5 57t273 -39t189.5 -113q163 -155 163 -425q0 -383 -217 -635q-146 -171 -375 -238 q-116 -33 -249 -33q-220 0 -369 68z" />
<glyph unicode="&#x42e;" horiz-adv-x="1988" d="M74 0l303 1434h174l-131 -611h270q57 276 232 447q192 188 471 188q357 0 485 -320q53 -131 53 -265.5t-20 -239.5t-60 -201.5t-100 -180t-140 -145.5q-171 -131 -403 -131q-204 0 -336 106q-160 128 -194 375q-10 67 -10 123t3 86h-284l-139 -665h-174zM846 600 q0 -326 203 -434q72 -39 169.5 -39t172.5 30.5t133.5 83t101.5 122.5t70.5 148.5t41 161.5t13.5 177.5t-26 182t-75 147.5q-99 125 -270 125q-257 0 -404 -231q-130 -204 -130 -474z" />
<glyph unicode="&#x42f;" horiz-adv-x="1207" d="M-55 0l293 436q114 172 262 228v4q-105 22 -176 104q-80 92 -80 202.5t32.5 190.5t99.5 140q146 129 412 129h425l-304 -1434h-168l130 610h-155q-143 0 -246 -124q-33 -39 -64 -87l-259 -399h-202zM426 992.5q0 -60.5 21 -103t58 -71.5q73 -56 200 -56h197l113 520h-221 q-274 0 -346 -176q-22 -53 -22 -113.5z" />
<glyph unicode="&#x430;" horiz-adv-x="1110" d="M78 356q0 235 128 434q103 158 285 224q96 35 199 35q154 0 357 -41l-142 -680q-41 -195 -41 -328h-170q6 128 23 215h-4q-76 -120 -124 -161q-94 -79 -210 -79q-138 0 -218 95q-83 99 -83 286zM246 362q0 -247 176 -247t300 255q46 94 71 208l65 311q-88 20 -172.5 20 t-151 -27.5t-115.5 -72t-82.5 -102.5t-53.5 -119q-37 -111 -37 -226z" />
<glyph unicode="&#x431;" horiz-adv-x="1118" d="M100 471q0 336 136 615q100 206 260 296q155 87 409 114q122 12 266 24l-35 -157q-288 -16 -397 -39.5t-170 -53t-94.5 -67t-56.5 -77.5t-43 -86q-41 -96 -62 -190h4q155 174 375 174q157 0 250 -94q98 -101 98 -292q0 -276 -150 -466q-155 -197 -402 -197 q-197 0 -296 137q-92 127 -92 359zM259 482q0 -102 13.5 -164.5t42.5 -107.5q61 -95 184 -95q166 0 273 160q99 149 99 350q0 67 -16 119t-45 85q-56 64 -156 64q-155 0 -296 -131q-42 -39 -75 -82q-24 -96 -24 -198z" />
<glyph unicode="&#x432;" horiz-adv-x="1049" d="M84 328q0 234 88 418q31 67 89 136.5t162.5 118t219 48.5t174 -21t95.5 -54.5t51.5 -75t15.5 -82t-13.5 -84.5t-45.5 -83q-72 -86 -218 -112q160 -16 208 -125q17 -38 17 -79.5t-9.5 -81t-32 -78.5t-58.5 -74.5t-89 -62.5q-115 -61 -285 -61q-203 0 -288 85 q-81 82 -81 268zM248 335q0 -61 12 -103.5t39 -69.5q53 -54 149.5 -54t151 19t90 49t53 68t17.5 78t-17.5 68.5t-48.5 45.5q-57 29 -151 29q-140 0 -285 -17q-10 -52 -10 -113zM280 583q62 2 126 4t123 8.5t110.5 19t90 35.5t60.5 57t22 87.5t-41 89.5t-118 36t-137.5 -23.5 t-107.5 -67.5q-93 -87 -128 -246z" />
<glyph unicode="&#x433;" horiz-adv-x="860" d="M25 248.5q0 63.5 26.5 115.5t72.5 91q77 65 241 123q150 52 195.5 83.5t64.5 61t19 77t-45.5 79.5t-105.5 32t-97.5 -6t-73.5 -15q-73 -20 -129 -51l32 158q120 52 271 52q230 0 294 -147q19 -46 19 -105.5t-23.5 -107.5t-65.5 -86q-71 -63 -234 -124q-167 -62 -211 -92 q-85 -57 -85 -139q0 -90 104 -120q34 -10 75 -10t80.5 6t80.5 18q80 24 156 71l-36 -178q-118 -60 -296 -60q-239 0 -308 161q-21 49 -21 112.5z" />
<glyph unicode="&#x434;" horiz-adv-x="1130" d="M78 373q0 230 129 425q93 140 241 198q77 30 148.5 30t115.5 -12.5t81 -35.5q74 -45 114 -126h4q12 72 12 165.5t-19 164.5t-56 115q-68 83 -217 83q-151 0 -273 -80l35 163q62 35 185 49q37 4 71 4q437 0 437 -509q0 -373 -140 -671q-103 -219 -288 -313 q-95 -48 -206 -48t-180 34.5t-112 90.5q-82 107 -82 273zM246 405q0 -83 13.5 -131.5t40.5 -83.5q56 -76 159 -76q231 0 357 314q49 122 69 270q-27 86 -101 138q-72 51 -148.5 51t-131.5 -24t-97 -63.5t-72.5 -91.5t-50.5 -108q-38 -112 -38 -195z" />
<glyph unicode="&#x435;" horiz-adv-x="997" d="M78 399q0 269 164 461q103 120 246 166q71 23 148.5 23t138 -21t101 -57.5t61.5 -84.5t21 -115.5t-36 -134t-119 -114.5q-172 -98 -555 -100q-2 -11 -2 -22v-21q0 -183 142 -243q50 -21 118 -21q153 0 309 102l-31 -162q-138 -80 -276 -80t-215.5 35t-124.5 94 q-90 110 -90 295zM264 559q408 0 498 125q29 41 29 98t-46.5 92t-115.5 35t-126 -26.5t-105 -72.5q-102 -99 -134 -251z" />
<glyph unicode="&#x436;" horiz-adv-x="1458" d="M-94 0l592 530l-342 494h178l321 -485h4l103 485h160l-105 -487h4l529 487h192l-567 -506l354 -518h-188l-326 504h-4l-106 -504h-160l108 504h-4l-540 -504h-203z" />
<glyph unicode="&#x437;" horiz-adv-x="918" d="M-11 47l25 167q163 -96 328 -96q141 0 216 55q65 48 65 122q0 166 -261 166h-155l24 136h146q303 0 303 172q0 139 -209 139q-156 0 -326 -86l29 165q151 62 327 62t265.5 -65t89.5 -185q0 -160 -153 -231q-52 -24 -123 -36v-4q98 -12 158 -76q59 -63 59 -158 q0 -127 -97 -213q-118 -104 -350 -104q-161 0 -297 43q-39 13 -64 27z" />
<glyph unicode="&#x438;" horiz-adv-x="1143" d="M98 258q0 43 15.5 113.5t19.5 91.5l119 561h166l-127 -600q-23 -92 -23 -156t36.5 -108.5t95 -44.5t102.5 18t85.5 48.5t78.5 71t67 85.5q61 93 82 186l107 500h165l-157 -733q-9 -39 -16.5 -81t-14.5 -81q-10 -56 -20 -129h-160q9 69 20 135.5t17 106.5h-4 q-119 -187 -274 -246q-56 -21 -119 -21t-112.5 20.5t-82.5 57.5q-66 74 -66 205z" />
<glyph unicode="&#x439;" horiz-adv-x="1143" d="M98 258q0 43 15.5 113.5t19.5 91.5l119 561h166l-127 -600q-23 -92 -23 -156t36.5 -108.5t95 -44.5t102.5 18t85.5 48.5t78.5 71t67 85.5q61 93 82 186l107 500h165l-157 -733q-9 -39 -16.5 -81t-14.5 -81q-10 -56 -20 -129h-160q9 69 20 135.5t17 106.5h-4 q-119 -187 -274 -246q-56 -21 -119 -21t-112.5 20.5t-82.5 57.5q-66 74 -66 205zM381 1519h163q9 -188 162 -188h2q155 0 218 188h167q-76 -210 -248 -279q-64 -25 -145 -25q-153 0 -238 92q-74 80 -81 212z" />
<glyph unicode="&#x43a;" horiz-adv-x="1004" d="M49 0l218 1024h164l-94 -451h4l513 451h213l-572 -490l365 -534h-190l-339 524h-4l-112 -524h-166z" />
<glyph unicode="&#x43b;" horiz-adv-x="1079" d="M-98 -2l24 139q27 -8 60 -8q71 0 129 50t114 158q95 184 240 687h569l-217 -1024h-166l188 885h-268q-69 -230 -127 -399.5t-122 -280.5t-142 -165t-188 -54q-65 0 -94 12z" />
<glyph unicode="&#x43c;" horiz-adv-x="1421" d="M49 0l217 1024h194l128 -668q10 -48 31 -202q20 34 48 83.5t67 114.5l404 672h234l-217 -1024h-162l179 844q-36 -64 -108 -189l-395 -655h-147l-125 655q-10 54 -28 189l-179 -844h-141z" />
<glyph unicode="&#x43d;" horiz-adv-x="1155" d="M43 0l217 1024h166l-92 -428h524l92 428h166l-217 -1024h-166l98 469h-524l-98 -469h-166z" />
<glyph unicode="&#x43e;" horiz-adv-x="1096" d="M78 379q0 286 154 477q158 193 403 193q175 0 278 -109q105 -110 105 -316q0 -115 -38.5 -237t-111.5 -213q-157 -199 -409 -199q-176 0 -279 109q-102 108 -102 295zM246 387q0 -124 60 -199q59 -73 155.5 -73t167.5 44.5t120 118t75 167.5t26 175.5t-16 132t-45 85.5 q-60 71 -155 71t-166 -45t-120 -118q-102 -154 -102 -359z" />
<glyph unicode="&#x43f;" horiz-adv-x="1151" d="M57 0l158 731q33 161 51 293h160q-5 -39 -12 -81.5t-12.5 -81.5t-12.5 -79h4q119 187 275 246q55 21 119.5 21t113.5 -20.5t81.5 -57.5t48 -89t15.5 -90.5t-3.5 -64.5t-8.5 -56q-16 -86 -22 -110l-119 -561h-166l125 600q22 88 22 154.5t-36.5 110.5t-105.5 44t-134 -39 t-120 -99q-118 -129 -148 -271l-107 -500h-166z" />
<glyph unicode="&#x440;" horiz-adv-x="1110" d="M-57 -475l250 1184q18 84 26 188.5t8 126.5h168q0 -71 -24 -215h4q141 240 354 240q219 0 282 -216q21 -72 21 -156.5t-16 -164t-49 -156.5t-82.5 -146t-116.5 -122q-145 -113 -340 -113q-111 0 -217 37l-102 -487h-166zM240 152q83 -37 177 -37t152.5 23t105 62.5t82 93 t59.5 114t36 125t12 122.5t-9.5 104t-31.5 79q-47 71 -141 71q-182 0 -310 -261q-49 -101 -69 -199z" />
<glyph unicode="&#x441;" horiz-adv-x="893" d="M78 393q0 264 150 454q100 126 254 177q78 25 145 25t106 -6t71 -16q64 -20 97 -44l-37 -162q-100 88 -233 88q-190 0 -297 -180q-90 -151 -90 -308.5t63 -231.5t172 -74q127 0 271 98l-35 -164q-137 -74 -248.5 -74t-181 32t-115.5 88q-92 112 -92 298z" />
<glyph unicode="&#x442;" horiz-adv-x="1757" d="M49 0l158 731q33 161 51 293h160q-5 -39 -12 -81.5t-12.5 -81.5t-12.5 -79h4q117 189 265 247q51 20 110.5 20t105.5 -19t76 -54q60 -66 66 -192q175 265 389 265q128 0 192 -74.5t64 -208.5q0 -40 -33 -205l-121 -561h-164l125 600q23 98 23 145q0 164 -140 164 q-112 0 -231 -135q-116 -130 -147 -272l-107 -502h-166l127 600q23 98 23 145q0 164 -140 164q-115 0 -234 -137q-115 -130 -146 -272l-107 -500h-166z" />
<glyph unicode="&#x443;" horiz-adv-x="991" d="M-160 -467l31 145q34 -18 94 -18q124 0 221 154l123 190l-186 1020h170l119 -786q6 -46 2 -78h6q19 45 39 76l454 788h181l-727 -1194q-144 -235 -301 -290q-59 -21 -106 -21q-72 0 -120 14z" />
<glyph unicode="&#x444;" horiz-adv-x="1604" d="M78 356q0 274 132 474q90 136 234 191q74 28 153 28q157 0 225 -70l45 201q76 342 355 342q49 0 114 -17l-18 -129q-40 17 -80 17q-166 0 -213 -217l-43 -207l4 2q113 78 248 78q132 0 212 -101q80 -102 80 -282q0 -272 -130 -472q-89 -135 -234 -191q-72 -28 -160 -28 q-151 0 -217 70l-26 -113q-44 -197 -125 -296q-95 -115 -252 -115q-64 0 -106 16l20 127q32 -16 78.5 -16t82 19t62.5 55q48 64 80 208l29 123l-4 -2q-107 -76 -250 -76q-130 0 -210 100q-86 106 -86 281zM248 367q0 -187 107 -240q32 -16 86 -16q112 0 211 82l140 649 q-29 45 -120 65q-28 6 -55 6q-174 0 -277 -172q-92 -154 -92 -374zM812 180q19 -28 66 -49t110 -21t114.5 22t92.5 60t71.5 90t51.5 112q40 120 40 254.5t-48.5 199.5t-122.5 65q-132 0 -236 -84z" />
<glyph unicode="&#x445;" horiz-adv-x="932" d="M-86 0l461 510l-230 514h181l123 -326q12 -32 32 -96h4q8 9 24 31q29 38 44 55l278 336h187l-459 -524l236 -500l-181 -2l-129 321q-9 24 -36 93h-5q-7 -10 -16.5 -22.5t-18.5 -24.5t-17.5 -22.5t-14.5 -18.5l-268 -324h-195z" />
<glyph unicode="&#x446;" horiz-adv-x="1173" d="M100 250q0 53 29 190l123 584h166l-121 -582q-4 -18 -8 -40.5t-8 -44.5q-9 -49 -9 -73q0 -80 34.5 -124.5t100 -44.5t111.5 21.5t88 57t78 81t64 93.5q59 100 76 183l100 473h166l-150 -694q-16 -90 -16 -135q0 -66 80 -66q45 0 61 4l-127 -518h-163l118 383 q-143 0 -143 111q0 71 15 144h-4q0 -2 -22 -35t-66 -83.5t-93 -86.5q-100 -73 -224.5 -73t-190 71.5t-65.5 203.5z" />
<glyph unicode="&#x447;" horiz-adv-x="1102" d="M150 594q0 58 14 119l67 311h160l-65 -303q-13 -68 -13 -96q0 -68 40.5 -109t129.5 -41q118 0 241 70q38 22 79 49l92 430h168l-219 -1024h-166l100 471q-181 -127 -354 -127q-122 0 -196 64q-78 67 -78 186z" />
<glyph unicode="&#x448;" horiz-adv-x="1750" d="M98 250q0 43 27 190l123 584h166l-121 -582q-4 -21 -8 -44.5t-8 -46.5q-9 -52 -9 -76q0 -160 131 -160q113 0 236 141q120 138 149 283l105 485h164l-121 -582q-25 -119 -25 -165t7.5 -72.5t23.5 -46.5q33 -43 86 -43t93.5 18.5t80 49.5t75.5 73t66 90q65 102 84 195 l105 483h166l-156 -727q-38 -185 -47 -297h-166q3 20 7 47t9 56t9.5 57t8 51t6.5 38t3 17h-4q-134 -205 -290 -269q-54 -22 -115.5 -22t-105.5 21.5t-69 59.5q-45 67 -47 214q-132 -207 -299 -273q-56 -22 -112 -22q-228 0 -228 275z" />
<glyph unicode="&#x449;" horiz-adv-x="1777" d="M98 250q0 43 27 190l123 584h166l-121 -582q-4 -21 -8 -44.5t-8 -46.5q-9 -52 -9 -76q0 -160 131 -160q113 0 236 141q120 138 149 283l105 485h164l-121 -582q-25 -119 -25 -165t7.5 -72.5t23.5 -46.5q33 -43 86 -43t93.5 18.5t80 49.5t75.5 73t66 90q65 102 84 195 l105 483h166l-151 -694q-16 -73 -16 -137t80 -64q45 0 61 4l-127 -518h-163l118 383q-143 0 -143 111q0 77 17 156l-5 1q-133 -205 -291 -269q-54 -22 -115.5 -22t-105.5 21.5t-69 59.5q-45 67 -47 214q-132 -207 -299 -273q-56 -22 -112 -22q-228 0 -228 275z" />
<glyph unicode="&#x44a;" horiz-adv-x="1249" d="M84 885l29 139h502l-92 -435q142 48 295 48t240 -73t87 -212q0 -153 -101 -255q-121 -122 -351 -122q-373 0 -373 327q0 108 20.5 206.5t31.5 150.5t24 113t24 114l-1 -1h-335zM482 301q0 -193 223 -193q138 0 211 74q62 63 62 154q0 168 -212 168q-123 0 -269 -47 q-15 -67 -15 -156z" />
<glyph unicode="&#x44b;" horiz-adv-x="1423" d="M108 302q0 80 26 230l104 492h165l-92 -435q132 48 275.5 48t225 -73t81.5 -212q0 -153 -96 -255q-115 -122 -334 -122q-355 0 -355 327zM270 301q0 -193 205 -193q127 0 194 74q57 63 57 154q0 168 -195 168q-114 0 -247 -47q-14 -84 -14 -156zM999 0l218 1024h163 l-217 -1024h-164z" />
<glyph unicode="&#x44c;" horiz-adv-x="1036" d="M109 302q0 80 26 230l104 492h165l-92 -435q142 48 295 48t240 -73t87 -212q0 -153 -102 -255q-120 -122 -350 -122q-373 0 -373 327zM271 301q0 -193 223 -193q138 0 210 74q63 63 63 154q0 168 -212 168q-123 0 -269 -47q-15 -67 -15 -156z" />
<glyph unicode="&#x44d;" horiz-adv-x="936" d="M10 35l27 162q55 -47 171 -71q38 -8 102 -8t132.5 27t117.5 73q95 88 128 241h-483l25 133h474q3 12 3 56t-15 93.5t-48 86.5q-71 80 -216 80q-130 0 -276 -86l34 171q112 56 281 56q191 0 295 -112q103 -110 103 -278t-40.5 -290.5t-115.5 -210.5q-157 -183 -418 -183 q-137 0 -237 37q-28 11 -44 23z" />
<glyph unicode="&#x44e;" horiz-adv-x="1542" d="M43 0l217 1024h166l-92 -428h264q49 199 174 320q137 133 332 133q176 0 270 -111q90 -106 90 -290q0 -87 -14 -168.5t-43 -155.5t-72.5 -138t-102.5 -111q-124 -100 -294 -100q-168 0 -264 103q-107 117 -100 332q1 30 6 59h-273l-98 -469h-166zM741 389 q0 -194 119 -254q39 -20 95 -20t105 22.5t87 60.5t66 89t47 109q36 114 36 243.5t-54 199.5t-157 70q-163 0 -259 -172q-85 -151 -85 -348z" />
<glyph unicode="&#x44f;" horiz-adv-x="1021" d="M-48 0l184 279q98 151 227 192q-82 17 -141 80q-64 68 -64 147t21.5 136t70.5 100q103 90 324 90h408l-217 -1024h-167l89 419h-152q-128 0 -233 -167l-160 -252h-190zM330 707q0 -80 62 -122q54 -36 143 -36h178l73 345h-205q-251 0 -251 -187z" />
<glyph unicode="&#x451;" horiz-adv-x="997" d="M78 399q0 269 164 461q103 120 246 166q71 23 148.5 23t138 -21t101 -57.5t61.5 -84.5t21 -115.5t-36 -134t-119 -114.5q-172 -98 -555 -100q-2 -11 -2 -22v-21q0 -183 142 -243q50 -21 118 -21q153 0 309 102l-31 -162q-138 -80 -276 -80t-215.5 35t-124.5 94 q-90 110 -90 295zM264 559q408 0 498 125q29 41 29 98t-46.5 92t-115.5 35t-126 -26.5t-105 -72.5q-102 -99 -134 -251zM342 1317q0 65 61 91q18 7 38 7t38.5 -7.5t31.5 -21.5q30 -29 30 -69t-22 -61q-36 -37 -67 -37t-49 7.5t-32 20.5q-29 28 -29 70zM729 1306q0 32 8 50 t21 31q28 28 58 28t48.5 -7.5t32 -21t21.5 -31t8 -49t-29 -59.5t-69.5 -28t-69.5 27.5t-29 59.5z" />
<glyph unicode="&#x2000;" horiz-adv-x="935" />
<glyph unicode="&#x2001;" horiz-adv-x="1871" />
<glyph unicode="&#x2002;" horiz-adv-x="935" />
<glyph unicode="&#x2003;" horiz-adv-x="1871" />
<glyph unicode="&#x2004;" horiz-adv-x="623" />
<glyph unicode="&#x2005;" horiz-adv-x="467" />
<glyph unicode="&#x2006;" horiz-adv-x="311" />
<glyph unicode="&#x2007;" horiz-adv-x="311" />
<glyph unicode="&#x2008;" horiz-adv-x="233" />
<glyph unicode="&#x2009;" horiz-adv-x="374" />
<glyph unicode="&#x200a;" horiz-adv-x="103" />
<glyph unicode="&#x2010;" horiz-adv-x="819" d="M131 506l29 129h547l-29 -129h-547z" />
<glyph unicode="&#x2011;" horiz-adv-x="819" d="M131 506l29 129h547l-29 -129h-547z" />
<glyph unicode="&#x2012;" horiz-adv-x="819" d="M131 506l29 129h547l-29 -129h-547z" />
<glyph unicode="&#x2013;" horiz-adv-x="1024" d="M4 506l26 129h1024l-26 -129h-1024z" />
<glyph unicode="&#x2014;" horiz-adv-x="2048" d="M4 506l26 129h2048l-26 -129h-2048z" />
<glyph unicode="&#x2018;" horiz-adv-x="432" d="M193 987l204 447h119l-174 -447h-149z" />
<glyph unicode="&#x2019;" horiz-adv-x="432" d="M201 987l176 447h147l-207 -447h-116z" />
<glyph unicode="&#x201c;" horiz-adv-x="766" d="M193 987l204 447h119l-174 -447h-149zM526 987l207 447h117l-174 -447h-150z" />
<glyph unicode="&#x201d;" horiz-adv-x="766" d="M201 987l176 447h147l-207 -447h-116zM535 987l176 447h147l-207 -447h-116z" />
<glyph unicode="&#x2026;" horiz-adv-x="1507" d="M53 81q0 34 8.5 54.5t23.5 36.5q32 33 66 33t54 -9t35 -24.5t23.5 -36t8.5 -43t-8.5 -42.5t-23.5 -35q-33 -33 -66.5 -33t-53.5 9t-35 24q-32 32 -32 66zM553 81q0 34 8.5 54.5t23.5 36.5q32 33 79 33q46 0 69.5 -24.5t32 -45t8.5 -43t-8.5 -42.5t-23.5 -35 q-33 -33 -78 -33q-46 0 -70 24q-41 41 -41 75zM1057 81q0 34 8.5 54.5t23.5 36.5q52 54 119 24q68 -30 68 -104q0 -22 -8.5 -42t-23.5 -35q-33 -33 -67 -33t-53.5 9t-34.5 24q-32 32 -32 66z" />
<glyph unicode="&#x202f;" horiz-adv-x="374" />
<glyph unicode="&#x205f;" horiz-adv-x="467" />
<glyph unicode="&#x20ac;" d="M47 485l25 111h135q4 116 24 213h-112l22 109h117q119 380 448 499q113 41 224 41q172 0 297 -61l-31 -172q-123 84 -240 84t-198.5 -29.5t-144.5 -81.5q-119 -99 -181 -280h576l-25 -109h-582q-17 -83 -22 -213h559l-23 -111h-532q19 -180 108.5 -269t239.5 -89 q129 0 264 72l-22 -168q-124 -58 -248 -58t-210.5 33.5t-152.5 98.5q-137 137 -155 380h-160z" />
<glyph unicode="&#x2116;" horiz-adv-x="2359" d="M74 0l303 1434h158l475 -1039q5 -10 10.5 -25.5t11.5 -31.5q12 -33 19 -55h4q2 15 6 33t7.5 37t7.5 36.5t6 30.5l215 1014h166l-303 -1434h-146l-483 1057q-10 22 -25 61.5t-20 48.5h-4q-3 -41 -29 -159l-215 -1008h-164zM1432 322l25 114h739l-23 -114h-741zM1532 926 q0 206 124 356q139 166 370 166q164 0 252 -88q84 -84 84 -246q0 -85 -30 -179t-92 -169q-137 -166 -370 -166q-166 0 -254 92q-84 86 -84 234zM1686 930q0 -147 112 -194q38 -15 104 -15t126.5 37t100 94.5t58.5 127.5t19 153t-51 137.5t-139 54.5t-148.5 -37t-101.5 -94 q-80 -115 -80 -264z" />
<glyph unicode="&#xe000;" horiz-adv-x="1025" d="M0 0v1025h1025v-1025h-1025z" />
</font>
</defs>
</svg>
