<?xml version="1.0" standalone="no"?>
<!DOCTYPE svg PUBLIC "-//W3C//DTD SVG 1.1//EN" "http://www.w3.org/Graphics/SVG/1.1/DTD/svg11.dtd" >
<svg xmlns="http://www.w3.org/2000/svg">
<metadata></metadata>
<defs>
<font id="segoe_uiregular" horiz-adv-x="1104" >
<font-face units-per-em="2048" ascent="1638" descent="-410" />
<missing-glyph horiz-adv-x="561" />
<glyph horiz-adv-x="2048" />
<glyph horiz-adv-x="2048" />
<glyph horiz-adv-x="682" />
<glyph unicode="&#xd;" horiz-adv-x="199" />
<glyph unicode=" "  horiz-adv-x="561" />
<glyph unicode="&#x09;" horiz-adv-x="561" />
<glyph unicode="&#xa0;" horiz-adv-x="561" />
<glyph unicode="!" horiz-adv-x="582" d="M180 92q0 46 32.5 78.5t78 32.5t78.5 -32.5t33 -78.5t-33 -78t-78.5 -32t-78 32t-32.5 78zM203 1434h172l-19 -1030h-135z" />
<glyph unicode="&#x22;" horiz-adv-x="803" d="M148 1434h175l-30 -447h-115zM480 1434h175l-30 -447h-115z" />
<glyph unicode="#" horiz-adv-x="1210" d="M33 520l20 106h265l61 300h-277l21 106h277l84 402h126l-84 -402h252l86 402h123l-84 -402h263l-23 -106h-261l-63 -300h281l-27 -106h-275l-88 -397h-126l86 397h-250l-84 -397h-125l84 397h-262zM440 626h254l64 300h-252z" />
<glyph unicode="$" d="M162 1070.5q0 133.5 99 239t251 126.5v180h104v-176q196 -6 271 -56v-170q-102 80 -271 86v-528q208 -99 284.5 -191.5t76.5 -222.5t-95.5 -226.5t-265.5 -123.5v-217h-104v209q-213 0 -346 86v174q58 -51 158.5 -85.5t187.5 -34.5v512q-220 106 -285 195.5t-65 223z M330 1078q0 -84 40 -139t142 -111v466q-84 -17 -133 -74.5t-49 -141.5zM616 148q193 42 193 208q0 138 -193 244v-452z" />
<glyph unicode="%" horiz-adv-x="1676" d="M80 1080.5q0 170.5 93 273t248.5 102.5t240 -95t84.5 -267t-94.5 -275.5t-245 -103.5t-238.5 97.5t-88 268zM213 1083q0 -122 54 -189.5t147.5 -67.5t146.5 70t53 192.5t-52.5 190t-145.5 67.5t-148 -70.5t-55 -192.5zM301 -10l919 1444h144l-920 -1444h-143zM934 344 q0 170 94 273.5t248 103.5t239 -96t85 -268t-94.5 -275.5t-245 -103.5t-238.5 98t-88 268zM1067 346.5q0 -121.5 54 -189t147.5 -67.5t146.5 70.5t53 193t-52.5 188.5t-146 66t-148 -70t-54.5 -191.5z" />
<glyph unicode="&#x26;" horiz-adv-x="1639" d="M119 390q0 294 333 439q-166 122 -166 301q0 153 107 243q101 85 265 85q157 0 254 -83q98 -85 98 -213t-68.5 -207.5t-205.5 -135.5q178 -70 317 -256q41 -55 81 -114q163 227 163 534q0 68 -17 138h159q8 -34 13 -133q0 -261 -144 -526q-43 -78 -90 -143 q78 -107 115 -137q65 -53 126.5 -53t138.5 28v-152q-72 -28 -141 -28t-112.5 15.5t-80.5 43.5q-58 45 -144 163q-207 -222 -514 -222q-222 0 -352 107q-135 110 -135 306zM286 395q0 -132 94 -207q87 -69 230 -69q72 0 136 16.5t118 44.5q95 48 178 140q-123 192 -216 279 q-97 90 -250 149q-141 -56 -208 -128q-82 -88 -82 -225zM442 1130q0 -119 100 -199q30 -24 64 -41q126 44 188 102.5t62 148t-60 138t-148 48.5t-146.5 -53t-59.5 -144z" />
<glyph unicode="'" horiz-adv-x="471" d="M148 1434h175l-30 -447h-115z" />
<glyph unicode="(" horiz-adv-x="618" d="M140 548q0 520 310 886h148q-314 -380 -314 -883t312 -877h-146q-310 354 -310 874z" />
<glyph unicode=")" horiz-adv-x="618" d="M22 1434h148q312 -366 312 -886t-312 -874h-146q312 374 312 877t-314 883z" />
<glyph unicode="*" horiz-adv-x="854" d="M76 1104l45 125l262 -99l-23 304h138l-23 -304l263 99l42 -125l-274 -56l190 -243l-110 -76l-156 265l-158 -265l-110 76l190 243z" />
<glyph unicode="+" horiz-adv-x="1401" d="M232 530v134h403v403h133v-403h404v-134h-404v-403h-133v403h-403z" />
<glyph unicode="," horiz-adv-x="444" d="M39 -264l117 492h160l-160 -492h-117z" />
<glyph unicode="-" horiz-adv-x="819" d="M144 506v129h546v-129h-546z" />
<glyph unicode="." horiz-adv-x="444" d="M112 90q0 46 32.5 79.5t79 33.5t79.5 -33.5t33 -79.5t-33 -79t-79.5 -33t-79 33t-32.5 79z" />
<glyph unicode="/" horiz-adv-x="798" d="M-28 -238l686 1672h155l-688 -1672h-153z" />
<glyph unicode="0" d="M86 705q0 363 124.5 558t359.5 195q450 0 450 -735q0 -364 -127 -555.5t-347.5 -191.5t-340 183t-119.5 546zM254 696q0 -582 299 -582t299 602.5t-291 602.5q-307 0 -307 -623z" />
<glyph unicode="1" d="M168 1159v156l496 151v-1322h323v-144h-811v144h324v1114z" />
<glyph unicode="2" d="M96 0v146l418 419q160 160 228.5 266.5t68.5 229t-71 190.5t-202 68q-192 0 -368 -164v172q168 131 375.5 131t317.5 -104t110 -279q0 -138 -76 -269.5t-273 -326.5l-331 -327v-4h667v-148h-864z" />
<glyph unicode="3" d="M131 53v177q147 -116 314.5 -116t257 75t89.5 202q0 281 -399 281h-119v139h113q355 0 355 264q0 244 -271 244q-151 0 -285 -103v160q138 82 322.5 82t293 -96t108.5 -246q0 -283 -288 -364v-4q155 -15 246.5 -108.5t91.5 -233.5q0 -193 -138.5 -311.5t-354 -118.5 t-336.5 77z" />
<glyph unicode="4" d="M14 381v107l638 946h198v-920h184v-133h-184v-381h-162v381h-674zM192 514h496v620q0 66 4 148h-4q-14 -36 -55 -110z" />
<glyph unicode="5" d="M164 35v174q147 -95 299 -95t245 86t93 227.5t-95 220.5t-272 79q-60 0 -225 -12v719h694v-148h-539v-420q66 4 122 4q230 0 356 -115.5t126 -320t-135.5 -331.5t-353 -127t-315.5 59z" />
<glyph unicode="6" d="M110 631q0 377 161 602t425 225q150 0 238 -41v-155q-111 57 -234 57q-191 0 -305.5 -170t-114.5 -455h4q100 203 328 203q188 0 299 -120.5t111 -327t-127 -340t-333 -133.5t-329 172t-123 483zM291 454q0 -132 78.5 -236t205.5 -104t203 90.5t76 236t-73 231.5 t-202.5 86t-208.5 -86t-79 -218z" />
<glyph unicode="7" d="M86 1286v148h924v-52l-568 -1382h-170l537 1286h-723z" />
<glyph unicode="8" d="M100 350q0 276 310 402v4q-258 120 -258 348q0 155 118 254.5t295 99.5t285 -93t108 -239q0 -238 -266 -370v-4q314 -112 314 -388q0 -178 -128 -283t-334 -105t-325 104t-119 270zM268 358q0 -107 79.5 -175.5t206.5 -68.5t205.5 67.5t78.5 170.5q0 216 -296 322 q-274 -109 -274 -316zM320 1108q0 -187 233 -282q237 98 237 280q0 99 -62 156t-165.5 57t-173 -59.5t-69.5 -151.5z" />
<glyph unicode="9" d="M94 985.5q0 203.5 129.5 338t336.5 134.5t325.5 -167.5t118.5 -487.5q0 -397 -154 -612t-428 -215q-144 0 -250 48v158q120 -68 254 -68q195 0 303.5 157t108.5 446q-2 -1 -4 0q-92 -185 -320 -185q-184 0 -302 125t-118 328.5zM262 995.5q0 -144.5 78 -231t202.5 -86.5 t205 79t80.5 193q0 163 -80 266t-203.5 103t-203 -89.5t-79.5 -234z" />
<glyph unicode=":" horiz-adv-x="444" d="M112 90q0 46 32.5 79.5t79 33.5t79.5 -33.5t33 -79.5t-33 -79t-79.5 -33t-79 33t-32.5 79zM112 936q0 46 32.5 78t79 32t79.5 -32t33 -78t-33 -79t-79.5 -33t-79 33t-32.5 79z" />
<glyph unicode=";" horiz-adv-x="444" d="M39 -264l117 492h160l-160 -492h-117zM114 936q0 46 32.5 78t79 32t79.5 -32t33 -78t-33 -79t-79.5 -33t-79 33t-32.5 79z" />
<glyph unicode="&#x3c;" horiz-adv-x="1401" d="M272 559v59l860 482v-150l-642 -356v-4l642 -314v-149z" />
<glyph unicode="=" horiz-adv-x="1401" d="M232 318v132h940v-132h-940zM232 744v132h940v-132h-940z" />
<glyph unicode="&#x3e;" horiz-adv-x="1401" d="M272 127v149l644 312v6l-644 356v150l860 -482v-59z" />
<glyph unicode="?" horiz-adv-x="918" d="M131 1186v176q153 96 317 96q159 0 260 -80q109 -84 109 -235q0 -167 -177 -329q-112 -102 -144.5 -158.5t-32.5 -118t33 -139.5h-161q-23 66 -23 140t25.5 125.5t63.5 96.5t83 86.5t83 83.5q89 100 89 192q0 93 -69 147q-64 50 -163 50q-169 0 -293 -133zM314 92.5 q0 46.5 33 78.5t78 32t78 -32t33 -78.5t-33.5 -78.5t-77.5 -32t-78 32q-33 32 -33 78.5z" />
<glyph unicode="@" horiz-adv-x="1956" d="M172 611.5q0 360.5 233.5 601.5t585 241t574.5 -202t223 -527q0 -238 -117.5 -390.5t-286.5 -152.5q-219 0 -220 238h-5q-73 -238 -287 -238q-137 0 -220.5 101t-83.5 272q0 226 115.5 375.5t303.5 149.5q72 0 128.5 -37t72.5 -93h4q2 28 10 115h125q-47 -551 -47 -561 q0 -207 119 -207q108 0 179.5 117t71.5 303q0 275 -174 449t-476.5 174t-496.5 -208t-194 -517.5t184.5 -498t497.5 -188.5q247 0 422 82v-124q-173 -74 -432 -74q-364 0 -586.5 219.5t-222.5 580zM708 553q0 -118 51.5 -186t137.5 -68q124 0 196.5 123.5t72.5 332.5 t-181 209q-124 0 -200.5 -118t-76.5 -293z" />
<glyph unicode="A" horiz-adv-x="1321" d="M22 0l550 1434h174l552 -1434h-186l-152 402h-608l-143 -402h-187zM408 553h497l-225 611q-11 30 -22 96h-4q-10 -61 -23 -96z" />
<glyph unicode="B" horiz-adv-x="1174" d="M188 0v1434h408q186 0 295 -91t109 -225t-66 -224t-182 -128v-4q145 -17 232 -109.5t87 -240.5q0 -184 -132 -298t-333 -114h-418zM356 152h228q148 0 229.5 70t81.5 192q0 254 -346 254h-193v-516zM356 819h172q138 0 217 66.5t79 187.5q0 209 -275 209h-193v-463z" />
<glyph unicode="C" horiz-adv-x="1268" d="M94 702q0 332 207 544t525 212q204 0 338 -59v-179q-154 86 -340 86q-247 0 -400.5 -165t-153.5 -434t143.5 -424.5t368 -155.5t382.5 96v-163q-159 -84 -396 -84q-306 0 -490 197t-184 529z" />
<glyph unicode="D" horiz-adv-x="1436" d="M188 0v1434h396q758 0 758 -699q0 -332 -210.5 -533.5t-563.5 -201.5h-380zM356 152h214q282 0 439 151t157 428q0 551 -586 551h-224v-1130z" />
<glyph unicode="E" horiz-adv-x="1036" d="M188 0v1434h728v-152h-560v-477h518v-151h-518v-502h592v-152h-760z" />
<glyph unicode="F" horiz-adv-x="1000" d="M188 0v1434h728v-152h-560v-496h518v-151h-518v-635h-168z" />
<glyph unicode="G" horiz-adv-x="1405" d="M94 701.5q0 329.5 210.5 543t533.5 213.5q234 0 393 -76v-186q-174 110 -413.5 110t-393.5 -166t-154 -434t143 -423.5t388 -155.5q168 0 291 67v402h-314v152h482v-650q-216 -122 -480 -122q-307 0 -496.5 198t-189.5 527.5z" />
<glyph unicode="H" horiz-adv-x="1454" d="M188 0v1434h168v-629h742v629h168v-1434h-168v654h-742v-654h-168z" />
<glyph unicode="I" horiz-adv-x="545" d="M48 0v144h140v1146h-140v144h448v-144h-140v-1146h140v-144h-448z" />
<glyph unicode="J" horiz-adv-x="731" d="M20 0v166q54 -39 140 -39q227 0 227 385v922h168v-920q0 -255 -108 -396.5t-289 -141.5q-84 0 -138 24z" />
<glyph unicode="K" horiz-adv-x="1188" d="M188 0v1434h168v-674h4q14 22 38 49l536 625h209l-615 -688l658 -746h-234l-554 656q-31 37 -38 50h-4v-706h-168z" />
<glyph unicode="L" horiz-adv-x="964" d="M188 0v1434h168v-1282h576v-152h-744z" />
<glyph unicode="M" horiz-adv-x="1839" d="M188 0v1434h222l440 -1000q51 -115 66 -172h6q43 118 69 176l449 996h210v-1434h-167v962q0 114 14 279h-4q-24 -97 -43 -139l-490 -1102h-82l-489 1094q-21 48 -43 147h-4q8 -86 8 -281v-960h-162z" />
<glyph unicode="N" horiz-adv-x="1532" d="M188 0v1434h218l718 -1125q45 -70 58 -96h4q-10 62 -10 211v1010h168v-1434h-206l-738 1143q-28 43 -46 90h-6q8 -46 8 -197v-1036h-168z" />
<glyph unicode="O" horiz-adv-x="1544" d="M94 712q0 334 187 540t496.5 206t491 -200t181.5 -537t-186 -541t-494.5 -204t-492 201t-183.5 535zM270 715q0 -265 137.5 -426.5t366 -161.5t364.5 154t136 434.5t-132 435.5t-361 155t-370 -163t-141 -428z" />
<glyph unicode="P" horiz-adv-x="1147" d="M188 0v1434h394q230 0 356.5 -112t126.5 -316t-140.5 -334t-379.5 -130h-189v-542h-168zM356 694h176q174 0 265.5 79.5t91.5 224.5q0 284 -336 284h-197v-588z" />
<glyph unicode="Q" horiz-adv-x="1544" d="M94 712q0 335 187 540.5t496 205.5t491 -200t182 -523q0 -282 -123 -474q-131 -205 -378 -261q115 -124 175 -162q105 -69 201.5 -69t158.5 25v-162q-64 -20 -157 -20t-169.5 28.5t-143 78t-128.5 115.5t-130 142q-205 0 -376 114q-57 37 -103 87q-183 200 -183 535z M270 715.5q0 -264.5 137 -427.5q138 -161 366.5 -161t364.5 154t136 435t-132 435.5t-361 154.5t-370 -163t-141 -427.5z" />
<glyph unicode="R" horiz-adv-x="1225" d="M188 0v1434h428q196 0 312 -95q124 -102 124 -287q0 -223 -186 -332q-59 -35 -132 -54v-4q65 -29 101 -71q47 -55 112 -160l269 -431h-200l-240 402q-98 166 -198 196q-37 12 -84 12h-138v-610h-168zM356 762h228q128 0 209 74q83 75 83 196t-74.5 185.5t-215.5 64.5 h-230v-520z" />
<glyph unicode="S" horiz-adv-x="1088" d="M121 58v198q100 -88 287 -120q53 -9 98 -9q308 0 308 223q0 104 -96 180q-54 42 -184 108t-195 105t-113 86q-103 101 -103 246q0 185 156 290q139 93 346.5 93t304.5 -51v-189q-127 88 -326 88q-202 0 -278 -116q-27 -41 -27 -98t20.5 -97t60.5 -73q56 -46 181.5 -108 t194.5 -104t121 -93q113 -111 113 -255q0 -199 -154 -299q-133 -87 -356 -87q-142 0 -284 48q-47 15 -75 34z" />
<glyph unicode="T" horiz-adv-x="1073" d="M41 1282v152h995v-152h-414v-1282h-168v1282h-413z" />
<glyph unicode="U" horiz-adv-x="1407" d="M170 557v877h168v-866q0 -441 372 -441q359 0 359 426v881h168v-854q0 -604 -545 -604q-522 0 -522 581z" />
<glyph unicode="V" horiz-adv-x="1272" d="M18 1434h187l397 -1137q19 -55 29 -127h4q8 60 33 129l405 1135h181l-531 -1434h-185z" />
<glyph unicode="W" horiz-adv-x="1913" d="M26 1434h185l305 -1100q19 -69 24 -144h5q5 53 31 144l317 1100h161l304 -1108q16 -57 24 -134h4q4 52 27 138l293 1104h182l-405 -1434h-197l-295 1048q-19 67 -23 146h-4q-6 -74 -26 -144l-297 -1050h-195z" />
<glyph unicode="X" horiz-adv-x="1208" d="M26 0l480 721l-442 713h206l293 -504q29 -50 51 -100h4q32 66 56 104l305 500h193l-451 -711l457 -723h-205l-330 549q-15 25 -33 71h-4q-10 -23 -34 -71l-340 -549h-206z" />
<glyph unicode="Y" horiz-adv-x="1132" d="M18 1434h191l321 -648q6 -12 35 -88h3q10 34 38 88l336 648h178l-473 -904v-530h-168v526z" />
<glyph unicode="Z" horiz-adv-x="1168" d="M33 0v47l833 1235h-766v152h1024v-40l-840 -1242h820v-152h-1071z" />
<glyph unicode="[" horiz-adv-x="618" d="M200 -326v1760h368v-119h-222v-1522h222v-119h-368z" />
<glyph unicode="\" horiz-adv-x="776" d="M-26 1434h155l669 -1674h-151z" />
<glyph unicode="]" horiz-adv-x="618" d="M53 -207h221v1522h-221v119h367v-1760h-367v119z" />
<glyph unicode="^" horiz-adv-x="1401" d="M230 624l422 834h65l457 -834h-150l-332 619h-6l-309 -619h-147z" />
<glyph unicode="_" horiz-adv-x="850" d="M0 -178h850v-119h-850v119z" />
<glyph unicode="`" horiz-adv-x="549" d="M82 1546h168l221 -328h-127z" />
<glyph unicode="a" horiz-adv-x="1042" d="M90 272q0 287 338 334l307 43q0 261 -211 261q-185 0 -334 -126v168q151 96 348 96q361 0 361 -382v-666h-164v160h-4q-107 -184 -315 -184q-153 0 -239.5 81t-86.5 215zM258 298q0 -89 53.5 -136.5t159 -47.5t185 85.5t79.5 216.5v102l-247 -34q-114 -16 -172 -56.5 t-58 -129.5z" />
<glyph unicode="b" horiz-adv-x="1204" d="M166 0v1516h164v-672h4q121 204 354 204q197 0 308.5 -137.5t111.5 -381.5t-125 -398.5t-335 -154.5t-314 172h-4v-148h-164zM330 418q0 -127 82.5 -215.5t220.5 -88.5t222.5 114t84.5 301t-79 284t-218 97t-226 -99.5t-87 -249.5v-143z" />
<glyph unicode="c" horiz-adv-x="946" d="M96 501q0 240 145 393.5t387 153.5q135 0 238 -50v-168q-114 80 -257.5 80t-244 -112.5t-100.5 -294t94.5 -285.5t241 -104t264.5 89v-156q-118 -71 -280 -71q-219 0 -353.5 142.5t-134.5 382.5z" />
<glyph unicode="d" horiz-adv-x="1206" d="M96 496.5q0 245.5 128 398.5t340 153t308 -166h4v634h164v-1516h-164v174h-4q-114 -198 -352 -198q-193 0 -308.5 137.5t-115.5 383zM264 504.5q0 -185.5 82.5 -288t220.5 -102.5t223.5 99t85.5 250v151q0 124 -82 210t-220 86t-224 -110t-86 -295.5z" />
<glyph unicode="e" horiz-adv-x="1071" d="M96 501q0 246 135.5 396.5t336.5 150.5t311 -130t110 -361v-86h-723q4 -171 92 -264t251.5 -93t308.5 114v-154q-135 -98 -354.5 -98t-343.5 139.5t-124 385.5zM268 610h553q-1 142 -68.5 221t-185.5 79t-199 -83t-100 -217z" />
<glyph unicode="f" horiz-adv-x="641" d="M53 884v140h175v166q0 161 93 254.5t232 93.5q75 0 119 -18v-148q-48 27 -109 27q-172 0 -172 -217v-158h240v-140h-240v-884h-163v884h-175z" />
<glyph unicode="g" horiz-adv-x="1206" d="M96 494.5q0 245.5 125.5 399.5t338 154t312.5 -166h4v142h164v-942q0 -564 -540 -564q-190 0 -332 72v164q173 -96 330 -96q378 0 378 402v112h-4q-117 -196 -352 -196q-191 0 -307.5 136.5t-116.5 382zM264 504q0 -185 82.5 -287.5t219.5 -102.5t223.5 98t86.5 251v151 q0 122 -82.5 209t-220 87t-223.5 -110.5t-86 -295.5z" />
<glyph unicode="h" horiz-adv-x="1159" d="M166 0v1516h164v-662h4q118 194 336 194q346 0 346 -417v-631h-164v590q0 320 -238 320q-120 0 -202 -92.5t-82 -237.5v-580h-164z" />
<glyph unicode="i" horiz-adv-x="496" d="M144 1390q0 46 31 76.5t75.5 30.5t76 -30.5t31.5 -75.5t-31.5 -76t-76 -31t-75.5 30t-31 76zM166 0v1024h164v-1024h-164z" />
<glyph unicode="j" horiz-adv-x="496" d="M-198 -297q74 -45 140 -45q224 0 224 358v1008h164v-981q0 -252 -101.5 -388.5t-290.5 -136.5q-70 0 -136 32v153zM144 1390q0 46 31 76.5t75.5 30.5t76 -30.5t31.5 -75.5t-31.5 -76t-76 -31t-75.5 30t-31 76z" />
<glyph unicode="k" horiz-adv-x="1018" d="M166 0v1516h164v-961h4l430 469h215l-475 -494l512 -530h-230l-452 492h-4v-492h-164z" />
<glyph unicode="l" horiz-adv-x="496" d="M166 0v1516h164v-1516h-164z" />
<glyph unicode="m" horiz-adv-x="1764" d="M166 0v1024h164v-162h4q109 186 318 186q105 0 183 -58.5t107 -153.5q114 212 340 212q338 0 338 -417v-631h-164v588q0 170 -52.5 246t-167 76t-188 -96t-73.5 -230v-584h-164v608q0 302 -233 302q-108 0 -178 -90.5t-70 -235.5v-584h-164z" />
<glyph unicode="n" horiz-adv-x="1159" d="M166 0v1024h164v-170h4q116 194 336 194q168 0 257 -108.5t89 -313.5v-626h-164v584q0 326 -238 326q-123 0 -203.5 -92.5t-80.5 -233.5v-584h-164z" />
<glyph unicode="o" horiz-adv-x="1200" d="M96 510.5q0 247.5 141 392.5t375.5 145t363 -141t128.5 -388.5t-138.5 -395t-368.5 -147.5t-365.5 143.5t-135.5 391zM264 509.5q0 -185.5 93 -290.5t250.5 -105t243 103t85.5 294t-85.5 295t-244 104t-250.5 -107.5t-92 -293z" />
<glyph unicode="p" horiz-adv-x="1204" d="M166 -471v1495h164v-180h4q121 204 354 204q198 0 309 -137.5t111 -381.5t-125 -398.5t-333 -154.5t-316 172h-4v-619h-164zM330 418q0 -127 82.5 -215.5t220.5 -88.5t222.5 114t84.5 301t-79 284t-218 97t-226 -99.5t-87 -249.5v-143z" />
<glyph unicode="q" horiz-adv-x="1206" d="M96 497q0 246 128 398.5t341 152.5t307 -166h4v142h164v-1495h-164v647h-4q-107 -200 -350 -200q-193 0 -309.5 137.5t-116.5 383.5zM264 503q0 -188 83 -288.5t220.5 -100.5t223 98.5t85.5 248.5v149q0 126 -82.5 213t-220 87t-223.5 -109.5t-86 -297.5z" />
<glyph unicode="r" horiz-adv-x="712" d="M166 0v1024h164v-211h4q35 108 107 168.5t148.5 60.5t110.5 -14v-170q-43 33 -136 33t-163.5 -99t-70.5 -270v-522h-164z" />
<glyph unicode="s" horiz-adv-x="869" d="M104 37v176q134 -99 295 -99q216 0 216 144q0 101 -143 160q-42 17 -100.5 40t-110 50.5t-85.5 61.5q-70 70 -70 182q0 138 121 220q111 76 257.5 76t251.5 -46v-166q-113 74 -260 74q-141 0 -188 -86q-14 -26 -14 -62t14.5 -63t42.5 -48q35 -27 131 -64t150 -64.5 t92 -62.5q79 -71 79 -186q0 -144 -123 -225q-110 -73 -275 -73t-281 61z" />
<glyph unicode="t" horiz-adv-x="694" d="M43 884v140h176v250l164 53v-303h258v-140h-258v-577q0 -103 35 -147t106.5 -44t116.5 34v-140q-58 -32 -153 -32q-269 0 -269 300v606h-176z" />
<glyph unicode="u" horiz-adv-x="1159" d="M144 412v612h163v-586q0 -324 248 -324q120 0 197.5 88.5t77.5 231.5v590h164v-1024h-164v162h-4q-102 -186 -316 -186q-366 0 -366 436z" />
<glyph unicode="v" horiz-adv-x="981" d="M14 1024h180l260 -744q29 -82 36 -143h4q10 77 32 139l272 748h173l-408 -1024h-161z" />
<glyph unicode="w" horiz-adv-x="1480" d="M24 1024h172l212 -770q10 -35 14 -92h8q3 44 18 94l236 768h150l212 -772q10 -37 15 -92h8q2 39 17 92l208 772h162l-307 -1024h-170l-211 733q-12 42 -16 95h-4q-3 -36 -21 -93l-229 -735h-164z" />
<glyph unicode="x" horiz-adv-x="940" d="M26 0l349 502l-334 522h191l198 -350q22 -39 43 -80h4l256 430h181l-344 -518l338 -506h-191l-201 332q-19 31 -45 78h-4q-5 -9 -47 -78l-205 -332h-189z" />
<glyph unicode="y" horiz-adv-x="991" d="M14 1024h182l277 -788q5 -15 21 -78h6q5 24 20 76l291 790h170l-471 -1188q-126 -318 -354 -318q-64 0 -107 13v147q53 -18 97 -18q124 0 186 148l82 194z" />
<glyph unicode="z" horiz-adv-x="926" d="M33 0v51l606 833h-549v140h790v-47l-606 -837h600v-140h-841z" />
<glyph unicode="{" horiz-adv-x="618" d="M92 496v116q156 10 156 216v292q0 310 307 314v-128q-159 -4 -159 -198v-293q0 -210 -150 -258v-4q150 -45 150 -256v-289q0 -111 35.5 -158.5t123.5 -49.5v-126q-307 4 -307 310v300q0 202 -156 212z" />
<glyph unicode="|" horiz-adv-x="490" d="M172 -482v2048h148v-2048h-148z" />
<glyph unicode="}" horiz-adv-x="618" d="M66 -200q87 2 123.5 50t36.5 158v289q0 211 149 256v4q-149 48 -149 258v293q0 194 -160 198v128q306 -4 306 -314v-292q0 -206 156 -216v-116q-156 -10 -156 -212v-300q0 -306 -306 -310v126z" />
<glyph unicode="~" horiz-adv-x="1401" d="M209 440q5 143 79.5 226.5t191 83.5t247 -89t193.5 -89t100 49t39 129h135q-7 -148 -80.5 -229t-191 -81t-273.5 109q-97 67 -159 67q-140 0 -146 -176h-135z" />
<glyph unicode="&#xa2;" d="M184 655q0 213 114.5 360.5t307.5 184.5v213h125v-203q123 -2 221 -51v-172q-101 71 -221 78v-785q122 12 221 86v-157q-96 -59 -221 -69v-189h-125v191q-193 22 -307.5 161t-114.5 352zM352 666q0 -150 68 -249t186 -126v761q-119 -31 -186.5 -133.5t-67.5 -252.5z" />
<glyph unicode="&#xa3;" d="M106 0v135q218 69 218 313v187h-197v141h197v254q0 188 109 308t282 120q117 0 213 -41v-155q-100 57 -211 57q-229 0 -229 -307v-236h296v-141h-296v-156q0 -242 -193 -339h711v-140h-900z" />
<glyph unicode="&#xa5;" d="M68 1434h192l250 -514q28 -58 47 -111h4q13 42 49 117l252 508h180l-356 -656h285v-139h-334v-207h334v-139h-334v-293h-164v293h-344v139h344v207h-344v139h291z" />
<glyph unicode="&#xad;" horiz-adv-x="819" d="M144 506v129h546v-129h-546z" />
<glyph unicode="&#x192;" d="M94 -119q36 -21 86 -21q150 0 190 292l91 636h-103v138h124l28 219q17 131 104.5 210t221.5 79q64 0 116 -19v-149q-48 28 -108 28q-146 0 -170 -160l-31 -208h166v-138h-187l-90 -648q-58 -418 -348 -418q-31 0 -90 16v143z" />
<glyph unicode="&#x401;" horiz-adv-x="1036" d="M188 0v1434h728v-152h-560v-477h518v-151h-518v-502h592v-152h-760zM264 1666q0 41 28.5 69t69.5 28t71 -28.5t30 -69.5t-29 -70t-70 -29t-70.5 29.5t-29.5 70.5zM651 1664.5q0 42.5 28 70.5t69 28t70 -28.5t29 -69.5t-28 -70t-69 -29t-70 28t-29 70.5z" />
<glyph unicode="&#x410;" horiz-adv-x="1321" d="M22 0l550 1434h174l552 -1434h-186l-152 402h-608l-143 -402h-187zM408 553h497l-225 611q-11 30 -22 96h-4q-10 -61 -23 -96z" />
<glyph unicode="&#x411;" horiz-adv-x="1171" d="M188 0v1434h766v-152h-598v-456h272q214 0 333 -103.5t119 -298t-125 -309.5t-341 -115h-426zM356 152h236q149 0 230 70t81 196q0 256 -311 256h-236v-522z" />
<glyph unicode="&#x412;" horiz-adv-x="1174" d="M188 0v1434h408q186 0 295 -91t109 -225t-66 -224t-182 -128v-4q145 -17 232 -109.5t87 -240.5q0 -184 -132 -298t-333 -114h-418zM356 152h228q148 0 229.5 70t81.5 192q0 254 -346 254h-193v-516zM356 819h172q138 0 217 66.5t79 187.5q0 209 -275 209h-193v-463z" />
<glyph unicode="&#x413;" horiz-adv-x="966" d="M188 0v1434h744v-156h-575v-1278h-169z" />
<glyph unicode="&#x414;" horiz-adv-x="1420" d="M15 152h111q144 263 244.5 614.5t113.5 667.5h675v-1282h193v-537h-155v385h-1027v-385h-155v537zM308 152h683v1130h-364q-16 -247 -110 -578t-209 -552z" />
<glyph unicode="&#x415;" horiz-adv-x="1036" d="M188 0v1434h728v-152h-560v-477h518v-151h-518v-502h592v-152h-760z" />
<glyph unicode="&#x416;" horiz-adv-x="1775" d="M-22 0l657 744l-613 690h206l538 -621q22 -25 37 -49h4v670h159v-670h5q13 22 37 49l538 621h205l-613 -690l656 -744h-225l-561 656q-24 28 -37 50h-5v-706h-159v706h-4q-15 -25 -37 -50l-561 -656h-227z" />
<glyph unicode="&#x417;" horiz-adv-x="1106" d="M96 60v182q168 -123 381 -123q155 0 246.5 75t91.5 202q0 276 -373 276h-149v139h137q159 0 246.5 69t87.5 186t-72.5 182t-199.5 65q-180 0 -350 -113v170q158 88 363 88t322 -97t117 -255q0 -279 -272 -352v-4q148 -17 235 -111t87 -233q0 -197 -140 -313.5 t-383 -116.5t-375 84z" />
<glyph unicode="&#x418;" horiz-adv-x="1534" d="M188 0v1434h168v-1010q0 -162 -8 -211h4q22 44 56 96l720 1125h216v-1434h-168v1036q0 140 10 197h-6q-19 -49 -46 -90l-738 -1143h-208z" />
<glyph unicode="&#x419;" horiz-adv-x="1534" d="M188 0v1434h168v-1010q0 -162 -8 -211h4q22 44 56 96l720 1125h216v-1434h-168v1036q0 140 10 197h-6q-19 -49 -46 -90l-738 -1143h-208zM420 1870h162q14 -188 192 -188q80 0 132 49.5t64 138.5h162q-15 -141 -113.5 -222.5t-248.5 -81.5t-245.5 81.5t-104.5 222.5z" />
<glyph unicode="&#x41a;" horiz-adv-x="1188" d="M188 0v1434h168v-674h4q14 22 38 49l536 625h209l-615 -688l658 -746h-234l-554 656q-31 37 -38 50h-4v-706h-168z" />
<glyph unicode="&#x41b;" horiz-adv-x="1378" d="M16 -2v158q51 -29 113 -29t116.5 74t111 385t125.5 848h706v-1434h-168v1282h-398q-69 -542 -109 -766t-81 -330q-81 -209 -279 -209q-79 0 -137 21z" />
<glyph unicode="&#x41c;" horiz-adv-x="1839" d="M188 0v1434h222l440 -1000q51 -115 66 -172h6q43 118 69 176l449 996h210v-1434h-167v962q0 114 14 279h-4q-24 -97 -43 -139l-490 -1102h-82l-489 1094q-21 48 -43 147h-4q8 -86 8 -281v-960h-162z" />
<glyph unicode="&#x41d;" horiz-adv-x="1454" d="M188 0v1434h168v-629h742v629h168v-1434h-168v654h-742v-654h-168z" />
<glyph unicode="&#x41e;" horiz-adv-x="1544" d="M94 712q0 334 187 540t496.5 206t491 -200t181.5 -537t-186 -541t-494.5 -204t-492 201t-183.5 535zM270 715q0 -265 137.5 -426.5t366 -161.5t364.5 154t136 434.5t-132 435.5t-361 155t-370 -163t-141 -428z" />
<glyph unicode="&#x41f;" horiz-adv-x="1460" d="M188 0v1434h1088v-1434h-170v1278h-749v-1278h-169z" />
<glyph unicode="&#x420;" horiz-adv-x="1147" d="M188 0v1434h394q230 0 356.5 -112t126.5 -316t-140.5 -334t-379.5 -130h-189v-542h-168zM356 694h176q174 0 265.5 79.5t91.5 224.5q0 284 -336 284h-197v-588z" />
<glyph unicode="&#x421;" horiz-adv-x="1268" d="M94 702q0 332 207 544t525 212q204 0 338 -59v-179q-154 86 -340 86q-247 0 -400.5 -165t-153.5 -434t143.5 -424.5t368 -155.5t382.5 96v-163q-159 -84 -396 -84q-306 0 -490 197t-184 529z" />
<glyph unicode="&#x422;" horiz-adv-x="1073" d="M41 1282v152h995v-152h-414v-1282h-168v1282h-413z" />
<glyph unicode="&#x423;" horiz-adv-x="1162" d="M60 1434h191l344 -766q9 -19 37 -93h2q3 9 41 97l319 762h180l-443 -1001q-118 -266 -228 -362t-228.5 -96t-190.5 31v170q86 -51 166.5 -51t148.5 62.5t147 220.5z" />
<glyph unicode="&#x424;" horiz-adv-x="1488" d="M94 748.5q0 233.5 156 389.5t399 156h25v180h156v-180h24q246 0 400.5 -153.5t154.5 -388t-156.5 -399.5t-396.5 -165h-26v-188h-156v188h-27q-240 0 -396.5 163.5t-156.5 397zM270 745.5q0 -183.5 103 -296.5t274 -113h27v817h-25q-170 0 -274.5 -112t-104.5 -295.5z M830 336h26q171 0 274 113.5t103 298t-103 295t-276 110.5h-24v-817z" />
<glyph unicode="&#x425;" horiz-adv-x="1208" d="M26 0l480 721l-442 713h206l293 -504q29 -50 51 -100h4q32 66 56 104l305 500h193l-451 -711l457 -723h-205l-330 549q-15 25 -33 71h-4q-10 -23 -34 -71l-340 -549h-206z" />
<glyph unicode="&#x426;" horiz-adv-x="1520" d="M188 0v1434h168v-1282h742v1282h168v-1282h192v-537h-155v385h-1115z" />
<glyph unicode="&#x427;" horiz-adv-x="1354" d="M166 895v539h168v-531q0 -231 246 -231q178 0 405 110v652h168v-1434h-168v645q-229 -121 -421.5 -121t-295 97.5t-102.5 273.5z" />
<glyph unicode="&#x428;" horiz-adv-x="1944" d="M188 0v1434h168v-1282h531v1282h167v-1282h531v1282h168v-1434h-1565z" />
<glyph unicode="&#x429;" horiz-adv-x="2007" d="M188 0v1434h168v-1282h531v1282h168v-1282h530v1282h168v-1282h193v-537h-155v385h-1603z" />
<glyph unicode="&#x42a;" horiz-adv-x="1445" d="M41 1280v154h581v-608h273q213 0 332 -103t119 -298t-125 -310t-341 -115h-426v1280h-413zM622 152h236q149 0 230.5 70.5t81.5 195.5q0 256 -312 256h-236v-522z" />
<glyph unicode="&#x42b;" horiz-adv-x="1604" d="M188 0v1434h168v-608h272q214 0 333 -103.5t119 -298t-125 -309.5t-341 -115h-426zM356 152h236q149 0 230 70t81 196q0 256 -311 256h-236v-522zM1247 0v1434h168v-1434h-168z" />
<glyph unicode="&#x42c;" horiz-adv-x="1180" d="M188 0v1434h168v-608h272q214 0 333 -103.5t119 -298t-125 -309.5t-341 -115h-426zM356 152h236q149 0 230 70t81 196q0 256 -311 256h-236v-522z" />
<glyph unicode="&#x42d;" horiz-adv-x="1262" d="M104 60v163q157 -96 376.5 -96t356 135.5t152.5 376.5h-635v151h633q-26 245 -161.5 380.5t-345.5 135.5t-376 -86v176q154 62 369 62q309 0 502 -207.5t193 -540.5t-185.5 -533.5t-488.5 -200.5q-231 0 -390 84z" />
<glyph unicode="&#x42e;" horiz-adv-x="2086" d="M188 0v1434h168v-613h340q30 300 205 468.5t459.5 168.5t457 -197.5t172.5 -539t-177 -543.5t-472.5 -202t-469 190t-181.5 504h-334v-670h-168zM866 716q0 -278 122 -433.5t347.5 -155.5t352 153t126.5 436.5t-121.5 436.5t-345.5 153t-352.5 -156t-128.5 -434z" />
<glyph unicode="&#x42f;" horiz-adv-x="1210" d="M61 0l218 479q21 47 64.5 99.5t101.5 74.5v4q-143 31 -222.5 131t-79.5 242q0 183 127.5 293.5t334.5 110.5h416v-1434h-168v610h-209q-60 0 -105.5 -32.5t-97.5 -145.5l-180 -432h-200zM321 1026q0 -122 80 -193t215 -71h237v520h-233q-142 0 -220.5 -67t-78.5 -189z " />
<glyph unicode="&#x430;" horiz-adv-x="1042" d="M90 272q0 287 338 334l307 43q0 261 -211 261q-185 0 -334 -126v168q151 96 348 96q361 0 361 -382v-666h-164v160h-4q-107 -184 -315 -184q-153 0 -239.5 81t-86.5 215zM258 298q0 -89 53.5 -136.5t159 -47.5t185 85.5t79.5 216.5v102l-247 -34q-114 -16 -172 -56.5 t-58 -129.5z" />
<glyph unicode="&#x431;" horiz-adv-x="1186" d="M119 622q0 242 46 410.5t127.5 253.5t181 117t341.5 75q96 22 143 50v-154q-41 -30 -132 -45q-225 -34 -314 -65q-191 -68 -221 -436h4q120 174 332.5 174t336.5 -139t124 -370.5t-129.5 -374t-357 -142.5t-355 167.5t-127.5 478.5zM289 524q2 -172 90 -293 q85 -117 228.5 -117t228 102.5t84.5 270.5t-86.5 271.5t-233.5 103.5q-206 0 -311 -196v-142z" />
<glyph unicode="&#x432;" horiz-adv-x="1085" d="M166 0v1024h446q151 0 238.5 -67t87.5 -183q0 -199 -196 -242q235 -30 235 -237q0 -125 -96.5 -210t-239.5 -85h-475zM330 140h284q199 0 199 161q0 155 -223 155h-260v-316zM330 596h246q198 0 198 154q0 134 -178 134h-266v-288z" />
<glyph unicode="&#x433;" horiz-adv-x="784" d="M166 0v1024h569v-140h-405v-884h-164z" />
<glyph unicode="&#x434;" horiz-adv-x="1120" d="M18 139h91q262 378 266 885h532v-885h152v-512h-139v373h-762v-373h-140v512zM283 139h460v746h-227q-27 -414 -233 -746z" />
<glyph unicode="&#x435;" horiz-adv-x="1071" d="M96 501q0 246 135.5 396.5t336.5 150.5t311 -130t110 -361v-86h-723q4 -171 92 -264t251.5 -93t308.5 114v-154q-135 -98 -354.5 -98t-343.5 139.5t-124 385.5zM268 610h553q-1 142 -68.5 221t-185.5 79t-199 -83t-100 -217z" />
<glyph unicode="&#x436;" horiz-adv-x="1528" d="M4 0l508 528l-477 496h209l438 -479h4v479h156v-479h4l438 479h211l-479 -496l510 -528h-222l-458 506h-4v-506h-156v506h-4l-459 -506h-219z" />
<glyph unicode="&#x437;" horiz-adv-x="913" d="M80 29v161q134 -75 313 -75q271 0 271 171t-297 171h-101v139h96q261 0 261 162q0 69 -60 110t-186.5 41t-276.5 -75v153q170 62 312 62q374 0 374 -275q0 -89 -55.5 -153.5t-155.5 -85.5v-5q114 -9 183 -77t69 -172q0 -140 -113 -223t-317.5 -83t-316.5 54z" />
<glyph unicode="&#x438;" horiz-adv-x="1190" d="M166 0v1024h150v-807q12 29 52 99l486 708h170v-1024h-148v817q-22 -43 -67 -121l-473 -696h-170z" />
<glyph unicode="&#x439;" horiz-adv-x="1190" d="M166 0v1024h150v-807q12 29 52 99l486 708h170v-1024h-148v817q-22 -43 -67 -121l-473 -696h-170zM252 1522h162q14 -188 192 -188q80 0 132 49.5t64 138.5h162q-15 -141 -113.5 -222.5t-248.5 -81.5t-245.5 81.5t-104.5 222.5z" />
<glyph unicode="&#x43a;" horiz-adv-x="1018" d="M166 0v1024h164v-469h4l430 469h215l-475 -494l512 -530h-230l-452 492h-4v-492h-164z" />
<glyph unicode="&#x43b;" horiz-adv-x="1079" d="M16 0v141q35 -18 76 -18q220 0 283 901h538v-1024h-163v885h-238q-41 -497 -140.5 -698t-267.5 -201q-51 0 -88 14z" />
<glyph unicode="&#x43c;" horiz-adv-x="1438" d="M166 0v1024h209l270 -668q29 -73 74 -202l73 198l262 672h218v-1024h-162v844q-22 -64 -68 -188l-256 -656h-147l-264 656q-21 53 -68 188v-844h-141z" />
<glyph unicode="&#x43d;" horiz-adv-x="1182" d="M166 0v1024h164v-420h522v420h164v-1024h-164v465h-522v-465h-164z" />
<glyph unicode="&#x43e;" horiz-adv-x="1200" d="M96 510.5q0 247.5 141 392.5t375.5 145t363 -141t128.5 -388.5t-138.5 -395t-368.5 -147.5t-365.5 143.5t-135.5 391zM264 509.5q0 -185.5 93 -290.5t250.5 -105t243 103t85.5 294t-85.5 295t-244 104t-250.5 -107.5t-92 -293z" />
<glyph unicode="&#x43f;" horiz-adv-x="1182" d="M166 0v1024h850v-1024h-164v884h-522v-884h-164z" />
<glyph unicode="&#x440;" horiz-adv-x="1204" d="M166 -471v1495h164v-180h4q121 204 354 204q198 0 309 -137.5t111 -381.5t-125 -398.5t-333 -154.5t-316 172h-4v-619h-164zM330 418q0 -127 82.5 -215.5t220.5 -88.5t222.5 114t84.5 301t-79 284t-218 97t-226 -99.5t-87 -249.5v-143z" />
<glyph unicode="&#x441;" horiz-adv-x="946" d="M96 501q0 240 145 393.5t387 153.5q135 0 238 -50v-168q-114 80 -257.5 80t-244 -112.5t-100.5 -294t94.5 -285.5t241 -104t264.5 89v-156q-118 -71 -280 -71q-219 0 -353.5 142.5t-134.5 382.5z" />
<glyph unicode="&#x442;" horiz-adv-x="840" d="M30 884v140h779v-140h-307v-884h-164v884h-308z" />
<glyph unicode="&#x443;" horiz-adv-x="991" d="M14 1024h182l277 -788q5 -15 21 -78h6q5 24 20 76l291 790h170l-471 -1188q-126 -318 -354 -318q-64 0 -107 13v147q53 -18 97 -18q124 0 186 148l82 194z" />
<glyph unicode="&#x444;" horiz-adv-x="1405" d="M96 507.5q0 241.5 139.5 391t368.5 149.5h24v410h148v-410h22q231 0 370.5 -148.5t139.5 -391t-137 -387.5t-360 -145h-35v-458h-148v458h-32q-224 0 -362 145t-138 386.5zM264 511q0 -184 93.5 -290.5t250.5 -106.5h20v796h-24q-154 0 -247 -107.5t-93 -291.5zM776 114 h22q156 0 249 105.5t93 291t-91.5 292.5t-245.5 107h-27v-796z" />
<glyph unicode="&#x445;" horiz-adv-x="940" d="M26 0l349 502l-334 522h191l198 -350q22 -39 43 -80h4l256 430h181l-344 -518l338 -506h-191l-201 332q-19 31 -45 78h-4q-5 -9 -47 -78l-205 -332h-189z" />
<glyph unicode="&#x446;" horiz-adv-x="1229" d="M166 0v1024h164v-885h522v885h164v-885h151v-512h-141v373h-860z" />
<glyph unicode="&#x447;" horiz-adv-x="1157" d="M152 678v346h164v-338q0 -225 194 -225q148 0 318 86v477h163v-1024h-163v412q-180 -98 -332 -98q-344 0 -344 364z" />
<glyph unicode="&#x448;" horiz-adv-x="1638" d="M166 0v1024h164v-884h408v884h163v-884h407v884h164v-1024h-1306z" />
<glyph unicode="&#x449;" horiz-adv-x="1688" d="M166 0v1024h164v-885h407v885h164v-885h408v885h164v-885h153v-512h-143v373h-1317z" />
<glyph unicode="&#x44a;" horiz-adv-x="1210" d="M30 884v140h476v-393h276q157 0 249.5 -81.5t92.5 -229.5t-93 -234t-235 -86h-454v884h-312zM506 140h246q204 0 204 180q0 170 -206 170h-244v-350z" />
<glyph unicode="&#x44b;" horiz-adv-x="1453" d="M166 0v1024h164v-393h276q157 0 249.5 -82t92.5 -229.5t-93 -233.5t-235 -86h-454zM330 140h246q204 0 204 180q0 170 -206 170h-244v-350zM1124 0v1024h162v-1024h-162z" />
<glyph unicode="&#x44c;" horiz-adv-x="1032" d="M166 0v1024h164v-393h276q157 0 249.5 -82t92.5 -229.5t-93 -233.5t-235 -86h-454zM330 140h246q204 0 204 180q0 170 -206 170h-244v-350z" />
<glyph unicode="&#x44d;" horiz-adv-x="946" d="M90 45v155q116 -86 263.5 -86t237 89.5t97.5 242.5h-436v140h436q-12 152 -101 238t-234.5 86t-250.5 -78v162q106 54 250 54q244 0 375 -142.5t131 -392.5t-134.5 -393.5t-361.5 -143.5q-157 0 -272 69z" />
<glyph unicode="&#x44e;" horiz-adv-x="1665" d="M166 0v1024h164v-420h292q26 210 154.5 327t338.5 117t330.5 -138t120.5 -390.5t-129 -398t-348.5 -145.5t-339 128.5t-129.5 360.5h-290v-465h-164zM786 512q0 -398 310 -398q303 0 303 398t-306.5 398t-306.5 -398z" />
<glyph unicode="&#x44f;" horiz-adv-x="1030" d="M62 0l172 316q60 110 145 145q-120 16 -183 88t-63 194t98.5 201.5t276.5 79.5h358v-1024h-164v424h-137q-99 0 -180 -160l-133 -264h-190zM301 727q0 -166 201 -166h200v323h-194q-207 0 -207 -157z" />
<glyph unicode="&#x451;" horiz-adv-x="1071" d="M96 501q0 246 135.5 396.5t336.5 150.5t311 -130t110 -361v-86h-723q4 -171 92 -264t251.5 -93t308.5 114v-154q-135 -98 -354.5 -98t-343.5 139.5t-124 385.5zM252 1318q0 41 28.5 69t69.5 28t71 -28.5t30 -69.5t-29 -70t-70 -29t-70.5 29.5t-29.5 70.5zM268 610h553 q-1 142 -68.5 221t-185.5 79t-199 -83t-100 -217zM639 1316.5q0 42.5 28 70.5t69 28t70 -28.5t29 -69.5t-28 -70t-69 -29t-70 28t-29 70.5z" />
<glyph unicode="&#x2000;" horiz-adv-x="935" />
<glyph unicode="&#x2001;" horiz-adv-x="1870" />
<glyph unicode="&#x2002;" horiz-adv-x="935" />
<glyph unicode="&#x2003;" horiz-adv-x="1870" />
<glyph unicode="&#x2004;" horiz-adv-x="623" />
<glyph unicode="&#x2005;" horiz-adv-x="467" />
<glyph unicode="&#x2006;" horiz-adv-x="311" />
<glyph unicode="&#x2007;" horiz-adv-x="311" />
<glyph unicode="&#x2008;" horiz-adv-x="233" />
<glyph unicode="&#x2009;" horiz-adv-x="374" />
<glyph unicode="&#x200a;" horiz-adv-x="103" />
<glyph unicode="&#x2010;" horiz-adv-x="819" d="M144 506v129h546v-129h-546z" />
<glyph unicode="&#x2011;" horiz-adv-x="819" d="M144 506v129h546v-129h-546z" />
<glyph unicode="&#x2012;" horiz-adv-x="819" d="M144 506v129h546v-129h-546z" />
<glyph unicode="&#x2013;" horiz-adv-x="1024" d="M0 506v129h1024v-129h-1024z" />
<glyph unicode="&#x2014;" horiz-adv-x="2048" d="M0 506v129h2048v-129h-2048z" />
<glyph unicode="&#x2018;" horiz-adv-x="469" d="M106 1012l140 446h118l-108 -446h-150z" />
<glyph unicode="&#x2019;" horiz-adv-x="469" d="M110 1012l111 446h147l-140 -446h-118z" />
<glyph unicode="&#x201c;" horiz-adv-x="772" d="M106 1012l140 446h118l-108 -446h-150zM410 1012l141 446h117l-111 -446h-147z" />
<glyph unicode="&#x201d;" horiz-adv-x="772" d="M110 1012l111 446h147l-140 -446h-118zM414 1012l108 446h150l-140 -446h-118z" />
<glyph unicode="&#x2026;" horiz-adv-x="1501" d="M140 92q0 46 31 79.5t76.5 33.5t78 -33.5t32.5 -79.5t-32 -78t-78 -32t-77 32t-31 78zM639 92q0 46 32.5 79.5t78 33.5t78 -33.5t32.5 -79.5t-32.5 -78t-78 -32t-78 32t-32.5 78zM1143 92q0 46 31.5 79.5t77 33.5t78 -33.5t32.5 -79.5t-32.5 -78t-78 -32t-77 32t-31.5 78 z" />
<glyph unicode="&#x202f;" horiz-adv-x="374" />
<glyph unicode="&#x205f;" horiz-adv-x="467" />
<glyph unicode="&#x20ac;" d="M102 482v140h108q-4 31 -4 78t6 107h-110v140h131q51 240 192.5 375.5t343.5 135.5q137 0 245 -56v-162q-114 78 -247.5 78t-231 -100.5t-136.5 -270.5h497v-140h-519q-8 -99 -1 -185h520v-140h-504q72 -366 350 -366q131 0 272 87v-153q-133 -74 -282 -74 q-427 0 -509 506h-121z" />
<glyph unicode="&#x2116;" horiz-adv-x="2298" d="M188 0v1434h220l710 -1213h4q-8 49 -8 209v1004h168v-1434h-209l-673 1136q-32 55 -46 88h-6q8 -46 8 -194v-1030h-168zM1450 1028.5q0 202.5 101.5 314t282.5 111.5t274.5 -109t93.5 -308t-101.5 -316t-278.5 -117t-274.5 111t-97.5 313.5zM1480 318v132h691v-132h-691z M1602 1026q0 -286 223 -286t223 289.5t-217 289.5q-108 0 -168.5 -76.5t-60.5 -216.5z" />
<glyph unicode="&#xe000;" horiz-adv-x="1025" d="M0 0v1025h1025v-1025h-1025z" />
</font>
</defs>
</svg>
